<?xml version="1.0" standalone="no"?>
<!DOCTYPE svg PUBLIC "-//W3C//DTD SVG 1.1//EN" "http://www.w3.org/Graphics/SVG/1.1/DTD/svg11.dtd" >
<svg xmlns="http://www.w3.org/2000/svg" xmlns:xlink="http://www.w3.org/1999/xlink" version="1.1">
<metadata>
Created by FontForge 20201107 at Mon Oct  7 22:36:30 2024
 By 
Copyright (c) 2017 Swiss Typefaces Sarl. All rights reserved.
</metadata>
<defs>
<font id="SangBleuSunrise-Light" horiz-adv-x="0" >
  <font-face 
    font-family="SangBleu Sunrise Light"
    font-weight="300"
    font-stretch="normal"
    units-per-em="2048"
    panose-1="2 11 3 4 0 0 0 0 0 4"
    ascent="1638"
    descent="-410"
    x-height="1028"
    cap-height="1552"
    bbox="-811 -825 2601 2140"
    underline-thickness="61"
    underline-position="-265"
    unicode-range="U+0020-FEFF"
  />
<missing-glyph horiz-adv-x="1310" 
d="M143 0v1552h1024v-1552h-1024zM211 1513l444 -702l445 702h-889zM182 1491v-1430l453 715zM678 776l450 -715v1430zM211 39h889l-445 702z" />
    <glyph glyph-name="f_f006" unicode="ff" horiz-adv-x="1435" 
d="M952 0v963h-184v65h184q14 172 63.5 296.5t145.5 198.5t232 74h18v-110h-82q-176 0 -248.5 -115t-19.5 -344h356v-65h-352v-963h-113zM276 0v963h-245v65h245q14 172 63.5 296.5t145.5 198.5t232 74h18v-110h-82q-176 0 -248.5 -115t-19.5 -344h289v-65h-285v-963h-113z
" />
    <glyph glyph-name="fi007" unicode="fi" horiz-adv-x="1243" 
d="M276 0v963h-245v65h245q14 172 63.5 296.5t145.5 198.5t232 74h18v-110h-82q-176 0 -248.5 -115t-19.5 -344h350v-65h-346v-963h-113zM903 1489q0 35 25.5 60.5t60.5 25.5t61.5 -25.5t26.5 -60.5t-26.5 -61.5t-61.5 -26.5t-60.5 26.5t-25.5 61.5zM932 0v1028h112v-1028
h-112z" />
    <glyph glyph-name="f_f_i008" unicode="ffi" horiz-adv-x="1918" 
d="M952 0v963h-184v65h184q14 172 63.5 296.5t145.5 198.5t232 74h18v-110h-82q-176 0 -248.5 -115t-19.5 -344h350v-65h-346v-963h-113zM276 0v963h-245v65h245q14 172 63.5 296.5t145.5 198.5t232 74h18v-110h-82q-176 0 -248.5 -115t-19.5 -344h289v-65h-285v-963h-113z
M1579 1489q0 35 25.5 60.5t60.5 25.5t61.5 -25.5t26.5 -60.5t-26.5 -61.5t-61.5 -26.5t-60.5 26.5t-25.5 61.5zM1608 0v1028h112v-1028h-112z" />
    <glyph glyph-name="_532" unicode="fl" horiz-adv-x="1255" 
d="M276 0v963h-245v65h245q14 172 63.5 296.5t145.5 198.5t232 74h18v-110h-82q-176 0 -248.5 -115t-19.5 -344h350v-65h-346v-963h-113zM946 0v1597h113v-1597h-113z" />
    <glyph glyph-name="_534" unicode="ffl" horiz-adv-x="1931" 
d="M952 0v963h-184v65h184q14 172 63.5 296.5t145.5 198.5t232 74h18v-110h-82q-176 0 -248.5 -115t-19.5 -344h350v-65h-346v-963h-113zM276 0v963h-245v65h245q14 172 63.5 296.5t145.5 198.5t232 74h18v-110h-82q-176 0 -248.5 -115t-19.5 -344h289v-65h-285v-963h-113z
M1622 0v1597h113v-1597h-113z" />
    <glyph glyph-name=".notdef" horiz-adv-x="1310" 
d="M143 0v1552h1024v-1552h-1024zM211 1513l444 -702l445 702h-889zM182 1491v-1430l453 715zM678 776l450 -715v1430zM211 39h889l-445 702z" />
    <glyph glyph-name=".null" 
 />
    <glyph glyph-name="nonmarkingreturn" horiz-adv-x="682" 
 />
    <glyph glyph-name="space" unicode=" " horiz-adv-x="593" 
 />
    <glyph glyph-name="exclam" unicode="!" horiz-adv-x="540" 
d="M291 412h-39q-5 323 -28 657t-23 483q0 17 34.5 23.5t69.5 0t35 -23.5q0 -152 -22 -484.5t-27 -655.5zM266 -23q-36 0 -62 27t-26 64t25.5 63.5t62.5 26.5q40 0 66 -26t26 -64t-26 -64.5t-66 -26.5z" />
    <glyph glyph-name="quotedbl" unicode="&#x22;" horiz-adv-x="833" 
d="M188 973l-36 567q-1 23 10.5 31t46.5 8q33 0 44.5 -8t10.5 -31l-39 -567h-37zM606 973l-37 567q-1 23 11 31t47 8q33 0 44.5 -8t10.5 -31l-39 -567h-37z" />
    <glyph glyph-name="numbersign" unicode="#" horiz-adv-x="1857" 
d="M281 0l176 434h-387l26 64h387l232 571h-387l24 61h387l187 459h67l-186 -459h528l187 459h67l-186 -459h385l-25 -61h-385l-231 -571h383l-25 -64h-385l-176 -434h-67l176 434h-529l-176 -434h-67zM551 498h528l232 571h-529z" />
    <glyph glyph-name="dollar" unicode="$" horiz-adv-x="1210" 
d="M575 -279v256q-96 0 -178.5 19.5t-137.5 50t-95 68t-58 73t-18 66.5q0 29 17.5 46t46.5 17q52 0 75 -69q35 -106 116.5 -165.5t231.5 -59.5v743l-71 25q-187 64 -281 162.5t-94 252.5q0 155 131.5 260t314.5 113v238h50v-238q91 -3 168.5 -22.5t129.5 -48t88.5 -63.5
t53 -68t16.5 -62q0 -30 -15 -47t-44 -17q-52 0 -76 74q-65 198 -321 211v-672l22 -8q64 -23 111.5 -42.5t98.5 -45t86.5 -51t68.5 -59.5t52.5 -71.5t31.5 -85t12 -102.5q0 -175 -130 -291t-353 -128v-259h-50zM539 895l36 -12v653q-149 -8 -250.5 -91t-101.5 -210
q0 -124 79 -203t237 -137zM1008 360q0 80 -27 141t-82.5 106.5t-117.5 77t-156 65.5v-725q178 12 280.5 102.5t102.5 232.5z" />
    <glyph glyph-name="percent" unicode="%" horiz-adv-x="1849" 
d="M301 0l1159 1552h86l-1159 -1552h-86zM88 1135q0 121 37 221.5t110 162.5t168 62q144 0 231 -129.5t87 -316.5q0 -123 -37.5 -224.5t-110.5 -163t-170 -61.5q-143 0 -229 129.5t-86 319.5zM182 1135q0 -191 59 -301.5t162 -110.5t163.5 111t60.5 301q0 189 -60.5 299
t-163.5 110t-162 -110t-59 -299zM1128 426q0 121 37 221.5t110.5 162.5t168.5 62q144 0 230.5 -129.5t86.5 -316.5q0 -123 -37 -224.5t-110 -163t-170 -61.5q-143 0 -229.5 129.5t-86.5 319.5zM1223 426q0 -191 59 -301.5t162 -110.5t163 111t60 301q0 189 -60 299.5
t-163 110.5t-162 -110.5t-59 -299.5z" />
    <glyph glyph-name="ampersand" unicode="&#x26;" horiz-adv-x="1667" 
d="M602 -23q-105 0 -196 37t-152.5 98.5t-97 141t-35.5 164.5q0 173 123 293.5t336 185.5q-117 113 -173.5 197t-56.5 178q0 136 111.5 221.5t279.5 85.5q156 0 259.5 -73t103.5 -203q0 -135 -102 -227t-293 -156l475 -457l18 33l301 532h68l-326 -586l-14 -24l371 -357
l-74 -79l-354 342q-126 -188 -264 -267.5t-308 -79.5zM231 457q0 -180 118.5 -295t279.5 -115q149 0 265 75t230 249l-526 508q-180 -66 -273.5 -173t-93.5 -249zM453 1303q0 -46 17 -91.5t54 -93.5t71 -84.5t93 -93.5q167 62 249.5 146t82.5 208q0 114 -78.5 177t-204.5 63
q-127 0 -205.5 -64t-78.5 -167z" />
    <glyph glyph-name="quotesingle" unicode="'" horiz-adv-x="413" 
d="M188 973l-36 567q-1 23 10.5 31t46.5 8q33 0 44.5 -8t10.5 -31l-39 -567h-37z" />
    <glyph glyph-name="parenleft" unicode="(" horiz-adv-x="622" 
d="M598 -446l-31 -31q-228 205 -340 479.5t-112 587.5t112 587.5t340 479.5l31 -29q-379 -387 -379 -1038q0 -652 379 -1036z" />
    <glyph glyph-name="parenright" unicode=")" horiz-adv-x="622" 
d="M25 1626l30 31q228 -205 340.5 -480t112.5 -587t-112.5 -587t-340.5 -480l-30 28q378 386 378 1039t-378 1036z" />
    <glyph glyph-name="asterisk" unicode="*" horiz-adv-x="974" 
d="M276 930l-24 18l182 283l-313 119l10 30l324 -88l16 334h33l18 -334l324 88l8 -30l-311 -119l180 -283l-25 -18l-211 260z" />
    <glyph glyph-name="plus" unicode="+" horiz-adv-x="1337" 
d="M635 0v502h-502v63h502v492h67v-492h502v-63h-502v-502h-67z" />
    <glyph glyph-name="comma" unicode="," horiz-adv-x="460" 
d="M68 -393l-25 35q188 165 188 303q0 84 -94 118q-1 41 26.5 67t65.5 26q45 0 74 -34t29 -95q0 -90 -62 -200t-202 -220z" />
    <glyph glyph-name="hyphen" unicode="-" horiz-adv-x="925" 
d="M162 500v67h602v-67h-602z" />
    <glyph glyph-name="period" unicode="." horiz-adv-x="462" 
d="M229 -23q-36 0 -62 27t-26 64t25.5 63.5t62.5 26.5q41 0 67 -26t26 -64t-26.5 -64.5t-66.5 -26.5z" />
    <glyph glyph-name="slash" unicode="/" horiz-adv-x="1040" 
d="M63 -106l828 1695h84l-830 -1695h-82z" />
    <glyph glyph-name="zero" unicode="0" horiz-adv-x="1390" 
d="M133 778q0 222 66.5 403t196 289.5t298.5 108.5q128 0 235 -63t178 -171.5t110.5 -254.5t39.5 -312q0 -221 -66.5 -402t-196.5 -290t-300 -109q-169 0 -298.5 109t-196 290t-66.5 402zM262 778q0 -349 118 -551t314 -202q195 0 314.5 202.5t119.5 550.5
q0 351 -119.5 553.5t-314.5 202.5q-196 0 -314 -202t-118 -554z" />
    <glyph glyph-name="one" unicode="1" horiz-adv-x="747" 
d="M397 0v1473l-348 -148v51l461 197v-1573h-113z" />
    <glyph glyph-name="two" unicode="2" horiz-adv-x="1212" 
d="M37 0v8q158 150 260 250.5t213 217.5t177.5 203t123.5 178t82 173t25 160q0 159 -88 238t-234 79q-157 0 -261 -101t-108 -288h-39q-4 213 119 337t328 124q197 0 301 -102.5t104 -264.5q0 -83 -32.5 -171t-86.5 -171.5t-148.5 -188t-194 -200.5t-246.5 -229l-162 -148
h958l-36 -104h-1055z" />
    <glyph glyph-name="three" unicode="3" horiz-adv-x="1208" 
d="M500 -23q-93 0 -174.5 24.5t-132 62t-79 78.5t-28.5 77q0 34 22 53t50 19q16 0 28.5 -5t22.5 -19t14.5 -21.5t15 -32l13.5 -31.5q37 -81 101.5 -119t181.5 -38q65 0 128.5 17.5t121.5 54t102 87.5t70 123t26 156q0 93 -35 172t-90 128t-121 76t-131 27q-56 0 -168 -43
l-12 39l61 23q177 65 276 163.5t99 223.5q0 115 -76.5 175t-207.5 60q-90 0 -163.5 -29t-129.5 -99.5t-72 -176.5h-39q17 182 141 279.5t303 97.5q167 0 263 -75t96 -193q0 -64 -25 -120t-69 -97.5t-91.5 -72t-103.5 -54.5v-4q80 -13 151 -49t126.5 -91.5t87.5 -135
t32 -171.5q0 -117 -48 -218.5t-128 -171t-186.5 -109.5t-222.5 -40z" />
    <glyph glyph-name="four" unicode="4" horiz-adv-x="1402" 
d="M915 0v434h-872v47l889 1078h96v-1047h311v-78h-311v-434h-113zM150 512h765v930z" />
    <glyph glyph-name="five" unicode="5" horiz-adv-x="1191" 
d="M516 25q189 0 317 116t128 301q0 93 -40 172t-124.5 146.5t-227 117.5t-336.5 76l158 598h707l-29 -104h-659l-101 -383q191 -24 334.5 -78t231 -130.5t130 -169.5t42.5 -202q0 -217 -162.5 -362.5t-409.5 -145.5q-93 0 -173 24.5t-129.5 62t-77 78.5t-27.5 77
q0 34 21.5 53t49.5 19q16 0 28.5 -5t22.5 -19t14.5 -21.5t15 -32l13.5 -31.5q37 -81 101.5 -119t181.5 -38z" />
    <glyph glyph-name="six" unicode="6" horiz-adv-x="1273" 
d="M1153 473q0 -141 -68.5 -255.5t-185 -177.5t-256.5 -63q-163 0 -283.5 77t-180.5 203.5t-60 285.5q0 230 125.5 442t358.5 378.5t544 264.5l14 -37q-370 -130 -599.5 -350t-291.5 -502q70 94 183.5 146.5t232.5 52.5q92 0 176 -31.5t149 -89t103.5 -147t38.5 -197.5z
M250 547q0 -233 107.5 -377.5t289.5 -144.5q163 0 271 117t108 304q0 192 -109 311.5t-280 119.5q-103 0 -205 -42t-166 -118q-16 -94 -16 -170z" />
    <glyph glyph-name="seven" unicode="7" horiz-adv-x="1146" 
d="M96 1552h1037l-922 -1552h-80l866 1448h-934z" />
    <glyph glyph-name="eight" unicode="8" horiz-adv-x="1239" 
d="M614 -23q-136 0 -247.5 48t-178.5 140t-67 212q0 296 416 438q-105 58 -174 116t-111.5 135.5t-42.5 168.5q0 107 59.5 186.5t153.5 118.5t207 39q102 0 191.5 -33.5t150.5 -106t61 -171.5q0 -72 -28.5 -136t-78.5 -113t-108.5 -85.5t-126.5 -63.5l33 -16
q92 -50 156.5 -93.5t122.5 -100t87 -123.5t29 -146q0 -182 -139.5 -298t-364.5 -116zM623 907l43 -22q126 53 203 148t77 224q0 91 -47.5 155.5t-118.5 93t-157 28.5q-139 0 -231.5 -68t-92.5 -190q0 -112 79.5 -196.5t244.5 -172.5zM215 383q0 -111 56 -193.5t146.5 -123.5
t200.5 -41q189 0 296.5 88t107.5 241q0 51 -18 97t-46.5 82.5t-77.5 75t-96.5 68t-117.5 68.5l-109 58q-153 -57 -247.5 -163t-94.5 -257z" />
    <glyph glyph-name="nine" unicode="9" horiz-adv-x="1275" 
d="M123 1085q0 141 68.5 255.5t185 177.5t256.5 63q163 0 283.5 -76.5t180.5 -203.5t60 -285q0 -230 -125.5 -442t-359 -379t-543.5 -265l-14 37q370 130 599.5 350t291.5 502q-70 -94 -183.5 -146t-232.5 -52q-124 0 -229 53t-171.5 160.5t-66.5 250.5zM1026 1012
q0 233 -107.5 377.5t-289.5 144.5q-163 0 -271 -117.5t-108 -304.5q0 -192 109 -311t280 -119q103 0 205 42t166 118q16 94 16 170z" />
    <glyph glyph-name="colon" unicode=":" horiz-adv-x="503" 
d="M250 -23q-36 0 -62 27t-26 64t25.5 63.5t62.5 26.5q40 0 66 -26t26 -64t-26 -64.5t-66 -26.5zM250 872q-36 0 -62 27t-26 64t25.5 63.5t62.5 26.5q40 0 66 -26t26 -64t-26 -64.5t-66 -26.5z" />
    <glyph glyph-name="semicolon" unicode=";" horiz-adv-x="632" 
d="M168 -393l-25 35q189 166 189 303q0 84 -94 118q-1 41 26.5 67t65.5 26q44 0 73 -34t29 -95q0 -90 -62 -200t-202 -220zM332 872q-36 0 -62 27t-26 64t25.5 63.5t62.5 26.5q40 0 66 -26t26 -64t-26 -64.5t-66 -26.5z" />
    <glyph glyph-name="less" unicode="&#x3c;" horiz-adv-x="1337" 
d="M129 504v59l1034 465v-70l-946 -423l946 -429v-69z" />
    <glyph glyph-name="equal" unicode="=" horiz-adv-x="1337" 
d="M158 739v66h1022v-66h-1022zM158 256v61h1022v-61h-1022z" />
    <glyph glyph-name="greater" unicode="&#x3e;" horiz-adv-x="1337" 
d="M1208 563v-59l-1034 -467v69l946 429l-946 423v70z" />
    <glyph glyph-name="question" unicode="?" horiz-adv-x="1132" 
d="M408 412l-11 303q-3 58 9 87.5t38.5 43t83.5 24.5l146 31q142 32 217.5 96t75.5 183q0 147 -122 247.5t-319 100.5q-235 0 -303 -156q-27 -67 -82 -67q-30 0 -48.5 18.5t-18.5 48.5q0 31 31.5 66.5t85 67t136 52.5t173.5 21q120 0 223 -35t172.5 -95t109 -141t39.5 -171
q0 -77 -26 -136t-74 -98t-106 -63t-133 -39l-148 -29q-37 -7 -52 -11.5t-30 -17t-18.5 -33t-3.5 -57.5l-7 -241h-38zM426 -23q-36 0 -62 27t-26 64t25.5 63.5t62.5 26.5q40 0 66 -26t26 -64t-26 -64.5t-66 -26.5z" />
    <glyph glyph-name="at" unicode="@" horiz-adv-x="1943" 
d="M834 -23q-147 0 -277.5 45t-227.5 126.5t-153.5 204.5t-56.5 270t55 291t153.5 262.5t227 209.5t285 142t317.5 51q134 0 257.5 -36.5t223.5 -106t160 -183t60 -254.5q0 -151 -54 -275t-146 -203.5t-211 -123t-251 -43.5q-56 0 -82.5 13.5t-26.5 44.5q0 34 35 118l60 150
h-6q-100 -152 -226.5 -239t-253.5 -87q-94 0 -151.5 54t-57.5 155q0 123 74 254t185.5 229.5t246 162t250.5 63.5q118 0 230 -66l-265 -671q-32 -82 -32 -101q0 -16 13 -24.5t52 -8.5q81 0 160 22.5t151.5 71t128 117t88.5 167.5t33 216q0 129 -53 232.5t-143.5 169
t-206.5 100.5t-246 35q-188 0 -364.5 -73t-306 -194.5t-207.5 -287t-78 -342.5q0 -271 180 -439.5t469 -168.5q267 0 479 104l18 -37q-234 -117 -509 -117zM739 416q59 0 128 29.5t139 83.5t135 142t106 195l127 322q-50 41 -137 41q-105 0 -221.5 -58t-210.5 -148.5
t-155.5 -210t-61.5 -232.5q0 -81 39 -122.5t112 -41.5z" />
    <glyph glyph-name="A" unicode="A" horiz-adv-x="1540" 
d="M1372 0l-266 612h-725l-264 -612h-76l678 1573h102l682 -1573h-131zM408 676h671l-336 774z" />
    <glyph glyph-name="B" unicode="B" horiz-adv-x="1497" 
d="M737 0h-499v1552h452q105 0 188.5 -9.5t160.5 -33.5t128 -63.5t81 -102.5t30 -147q0 -155 -114.5 -254t-297.5 -117v-2q112 -2 203.5 -25t162.5 -67.5t110.5 -118t39.5 -170.5q0 -208 -156.5 -325t-488.5 -117zM358 846h381q178 0 294 88t116 244q0 88 -34 150
t-99.5 97.5t-150 51.5t-195.5 16h-312v-647zM358 59h340q284 0 416.5 95t132.5 284q0 181 -131.5 267t-374.5 86h-383v-732z" />
    <glyph glyph-name="C" unicode="C" horiz-adv-x="1699" 
d="M123 778q0 245 114.5 428.5t312 278t449.5 94.5q151 0 299 -30.5t234 -90.5l53 -368h-41l-110 294q-16 40 -36 56.5t-55 29.5q-177 54 -346 54q-118 0 -223.5 -25t-200 -81t-163 -138.5t-108.5 -205t-40 -273.5q0 -236 94 -411t260.5 -266t384.5 -91q104 0 197.5 15.5
t149.5 37.5q35 12 54.5 29t35.5 57l110 295h41l-53 -369q-86 -60 -233.5 -90.5t-298.5 -30.5q-258 0 -456 94t-311.5 277t-113.5 430z" />
    <glyph glyph-name="D" unicode="D" horiz-adv-x="1703" 
d="M625 0h-387v1552h383q158 0 296 -25t261 -82.5t211 -144.5t139 -219t51 -297q0 -166 -51 -299.5t-138.5 -223t-210 -149t-260.5 -86t-294 -26.5zM358 59h263q144 0 265 24.5t225 79t176.5 137t113.5 204.5t41 276t-41 275t-113 202.5t-176.5 135t-225.5 77t-265 23.5
h-263v-1434z" />
    <glyph glyph-name="E" unicode="E" horiz-adv-x="1345" 
d="M238 0v1552h999v-63h-879v-645h762v-64h-762v-717h879v-63h-999z" />
    <glyph glyph-name="F" unicode="F" horiz-adv-x="1298" 
d="M238 0v1552h1007v-63h-887v-645h785v-64h-785v-780h-120z" />
    <glyph glyph-name="G" unicode="G" horiz-adv-x="1759" 
d="M123 778q0 245 114.5 428.5t312 278t449.5 94.5q151 0 299 -30.5t234 -90.5l53 -368h-41l-110 294q-16 40 -36 56.5t-55 29.5q-177 54 -346 54q-118 0 -223.5 -25t-200 -81t-163 -138.5t-108.5 -205t-40 -273.5q0 -237 94 -411t260.5 -263.5t384.5 -89.5q278 0 451 108
v533h-487v63h608v-620q-117 -74 -270 -109t-314 -35q-250 0 -445 94t-308 277.5t-113 429.5z" />
    <glyph glyph-name="H" unicode="H" horiz-adv-x="1740" 
d="M238 0v1552h120v-708h1024v708h121v-1552h-121v780h-1024v-780h-120z" />
    <glyph glyph-name="I" unicode="I" horiz-adv-x="595" 
d="M238 0v1552h120v-1552h-120z" />
    <glyph glyph-name="J" unicode="J" horiz-adv-x="610" 
d="M-23 -285l-26 39q151 123 196 172q78 83 98 184q11 56 11 138v1304h121v-1286q0 -84 -9.5 -139.5t-39 -105t-68.5 -88t-113 -99.5q-54 -44 -170 -119z" />
    <glyph glyph-name="K" unicode="K" horiz-adv-x="1531" 
d="M238 0v1552h120v-757l4 2l990 755h100l-948 -725l1048 -827h-182l-1012 788v-788h-120z" />
    <glyph glyph-name="L" unicode="L" horiz-adv-x="1255" 
d="M238 0v1552h120v-1489h871v-63h-991z" />
    <glyph glyph-name="M" unicode="M" horiz-adv-x="2037" 
d="M307 1403v-1403h-69v1552h114l666 -1075l672 1075h110v-1552h-121v1403l-661 -1059h-51z" />
    <glyph glyph-name="N" unicode="N" horiz-adv-x="1738" 
d="M307 1552l1125 -1357v1357h71v-1552h-71l-1125 1366v-1366h-69v1552h69z" />
    <glyph glyph-name="O" unicode="O" horiz-adv-x="1863" 
d="M932 -23q-227 0 -412.5 103t-292 286.5t-106.5 411.5q0 229 106.5 413t292 286t412.5 102t412.5 -102t292 -286t106.5 -413q0 -228 -106.5 -411.5t-292 -286.5t-412.5 -103zM936 35q103 0 200.5 29.5t182 89.5t147.5 144.5t99.5 202.5t36.5 255q0 176 -54.5 323
t-147.5 243t-214.5 149t-257.5 53q-103 0 -200.5 -29.5t-182 -89.5t-147.5 -144.5t-99.5 -202.5t-36.5 -255q0 -176 54.5 -323t147.5 -243t214.5 -149t257.5 -53z" />
    <glyph glyph-name="P" unicode="P" horiz-adv-x="1431" 
d="M358 0h-120v1552h491q109 0 195.5 -9.5t171 -36.5t140 -71t90 -118t34.5 -174t-34 -174.5t-90.5 -120.5t-140 -74t-171 -38.5t-195.5 -10.5h-371v-725zM358 1493v-707h355q92 0 164 9t139.5 32.5t111.5 62t70.5 102t26.5 147.5q0 85 -26.5 148.5t-70.5 102t-111.5 62.5
t-139.5 32.5t-164 8.5h-355z" />
    <glyph glyph-name="Q" unicode="Q" horiz-adv-x="1863" 
d="M932 -23q-227 0 -412.5 103t-292 286.5t-106.5 411.5q0 229 106.5 413t292 286t412.5 102t412.5 -102t292 -286t106.5 -413q0 -232 -112 -419t-302 -287l277 -324l-47 -43l-291 340q-158 -68 -336 -68zM936 35q158 0 287 63l-250 295l45 43l262 -307q150 93 236 250
t86 377q0 176 -54.5 323t-147.5 243t-214.5 149t-257.5 53q-103 0 -200.5 -29.5t-182 -89.5t-147.5 -144.5t-99.5 -202.5t-36.5 -255q0 -176 54.5 -323t147.5 -243t214.5 -149t257.5 -53z" />
    <glyph glyph-name="R" unicode="R" horiz-adv-x="1460" 
d="M358 0h-120v1552h372q110 0 196.5 -9t169 -34.5t136.5 -68t86.5 -112t32.5 -163.5q0 -82 -25.5 -146t-69 -106.5t-108.5 -72t-135.5 -44.5t-159.5 -22l748 -774h-160l-727 758h-236v-758zM358 817h230q93 0 164.5 8t138.5 30.5t110 59.5t69 97.5t26 142.5t-26 142.5
t-69.5 97.5t-110.5 59.5t-139 30.5t-165 8h-228v-676z" />
    <glyph glyph-name="S" unicode="S" horiz-adv-x="1306" 
d="M651 -23q-281 0 -454 91l-68 405h41l121 -309q17 -40 35 -58t51 -30q111 -43 272 -43q185 0 302.5 91.5t117.5 237.5q0 65 -21 118t-54.5 91t-90 71t-112.5 55.5t-136 47.5l-108 35q-192 63 -289.5 162.5t-97.5 257.5q0 112 72.5 200t189 133.5t252.5 45.5q247 0 383 -72
l67 -372h-41l-120 282q-16 34 -36.5 51t-52.5 29q-86 27 -188 27q-81 0 -154 -18t-132 -52.5t-93.5 -91.5t-34.5 -129q0 -122 73 -196.5t239 -129.5l108 -35q94 -30 162 -58.5t133.5 -69t106 -87.5t65.5 -112t25 -144q0 -183 -151 -303.5t-382 -120.5z" />
    <glyph glyph-name="T" unicode="T" horiz-adv-x="1390" 
d="M635 0v1489h-617v63h1354v-63h-614v-1489h-123z" />
    <glyph glyph-name="U" unicode="U" horiz-adv-x="1689" 
d="M840 -23q-623 0 -623 621v954h121v-948q0 -279 127.5 -421t402.5 -142q535 0 535 575v936h70v-946q0 -629 -633 -629z" />
    <glyph glyph-name="V" unicode="V" horiz-adv-x="1507" 
d="M721 -20l-682 1572h133l608 -1411l611 1411h77l-682 -1572h-65z" />
    <glyph glyph-name="W" unicode="W" horiz-adv-x="2273" 
d="M578 -20l-525 1572h129l459 -1386l483 1386h70l483 -1388l465 1388h78l-526 -1572h-76l-485 1382l-482 -1382h-73z" />
    <glyph glyph-name="X" unicode="X" horiz-adv-x="1470" 
d="M0 0l676 807l-594 745h149l521 -653l548 653h86l-591 -706l673 -846h-149l-600 754l-633 -754h-86z" />
    <glyph glyph-name="Y" unicode="Y" horiz-adv-x="1548" 
d="M836 700v-700h-123v700l-658 852h144l604 -782l604 782h86z" />
    <glyph glyph-name="Z" unicode="Z" horiz-adv-x="1368" 
d="M29 0v57l1116 1432h-1000v63h1141v-59l-1116 -1430h1133v-63h-1274z" />
    <glyph glyph-name="bracketleft" unicode="[" horiz-adv-x="567" 
d="M223 -449v2094h269v-39l-95 -4q-54 -1 -74 -18t-20 -60v-1852q0 -43 20 -60t74 -18l95 -4v-39h-269z" />
    <glyph glyph-name="backslash" unicode="\" horiz-adv-x="1040" 
d="M979 -106h-84l-829 1695h84z" />
    <glyph glyph-name="bracketright" unicode="]" horiz-adv-x="567" 
d="M344 1645v-2094h-268v39l94 4q54 1 74 18t20 60v1852q0 43 -20 60t-74 18l-94 4v39h268z" />
    <glyph glyph-name="asciicircum" unicode="^" horiz-adv-x="1337" 
d="M201 739l434 850h65l435 -850h-70l-397 777l-398 -777h-69z" />
    <glyph glyph-name="underscore" unicode="_" horiz-adv-x="1361" 
d="M45 -145v61h1272v-61h-1272z" />
    <glyph glyph-name="grave" unicode="`" 
d="M143 1233h-37l-311 330v8h129z" />
    <glyph glyph-name="a" unicode="a" horiz-adv-x="1138" 
d="M436 -23q-146 0 -241 79.5t-95 197.5q0 45 16 84.5t40.5 69.5t65.5 56t80.5 44t96 33.5t101.5 25t108 18t103.5 13t99.5 10.5v68q0 168 -64 252t-202 84q-134 0 -211 -70q-57 -51 -43 -190q1 -29 -16.5 -46.5t-47.5 -17.5q-28 0 -45.5 18t-17.5 52q0 55 27 107.5
t75.5 94.5t123 67.5t161.5 25.5q185 0 278.5 -92t92.5 -291l-2 -508q0 -67 19 -96t62 -29q72 0 115 78l23 -13q-55 -122 -181 -122q-68 0 -106.5 43t-38.5 131v112q-35 -151 -134 -220t-243 -69zM483 35q63 0 119.5 19.5t104 59.5t76 110t28.5 161v188q-66 -9 -109.5 -15.5
t-104 -17.5t-100.5 -23t-87 -29t-77 -38t-56.5 -48t-39 -61t-12.5 -75q0 -96 72 -163.5t186 -67.5z" />
    <glyph glyph-name="b" unicode="b" horiz-adv-x="1265" 
d="M303 0h-113v1597h113v-729q51 86 146 135.5t208 49.5q221 0 359.5 -152.5t138.5 -384.5q0 -153 -61.5 -275.5t-175.5 -193t-261 -70.5q-116 0 -210.5 49.5t-143.5 135.5v-162zM303 852v-674q61 -74 144 -107.5t167 -33.5q187 0 300.5 136t113.5 343q0 205 -113.5 341
t-300.5 136q-84 0 -167 -33.5t-144 -107.5z" />
    <glyph glyph-name="c" unicode="c" horiz-adv-x="1179" 
d="M627 -23q-228 0 -372 150t-144 387q0 125 42 228t114 170.5t167.5 104t202.5 36.5q95 0 176 -24t130.5 -60.5t76.5 -76.5t27 -75q0 -30 -15.5 -47.5t-44.5 -17.5q-32 0 -50 18.5t-30 65.5q-10 32 -27.5 59.5t-49 55.5t-84 44.5t-121.5 16.5q-82 0 -154 -30.5
t-126.5 -86.5t-86 -143t-31.5 -193q0 -226 121.5 -366t317.5 -140q67 0 128 16t117.5 51t99.5 97.5t64 147.5h33q-44 -196 -173 -292t-308 -96z" />
    <glyph glyph-name="d" unicode="d" horiz-adv-x="1265" 
d="M608 -23q-221 0 -359 153t-138 386q0 232 138 384.5t359 152.5q115 0 210 -49t145 -134v727h112v-1597h-112v160q-54 -86 -148 -134.5t-207 -48.5zM238 516q0 -207 113 -343t300 -136q84 0 167.5 33t144.5 106v678q-61 73 -144.5 106t-167.5 33q-124 0 -219 -63.5
t-144.5 -171.5t-49.5 -242z" />
    <glyph glyph-name="e" unicode="e" horiz-adv-x="1208" 
d="M627 -23q-228 0 -372 150t-144 387q0 124 43.5 228t115 170.5t160.5 103.5t182 37q193 0 324.5 -113.5t163.5 -321.5h-871q-2 -18 -2 -59q0 -226 121.5 -366t319.5 -140q68 0 128.5 15.5t117.5 49t100.5 95.5t64.5 147h35q-29 -130 -101.5 -217.5t-169.5 -126.5t-216 -39
zM610 1012q-134 0 -239 -91t-133 -251h729q-17 167 -112 254.5t-245 87.5z" />
    <glyph glyph-name="f" unicode="f" horiz-adv-x="759" 
d="M276 0v963h-245v65h245q14 172 63.5 296.5t145.5 198.5t232 74h18v-110h-82q-176 0 -248.5 -115t-19.5 -344h356v-65h-352v-963h-113z" />
    <glyph glyph-name="g" unicode="g" horiz-adv-x="1159" 
d="M561 338q-84 0 -151 24q-93 -24 -158.5 -65.5t-65.5 -97.5q0 -109 250 -109h238q84 0 148 -6.5t123 -23.5t96.5 -45t60 -74.5t22.5 -108.5q0 -90 -52 -161t-137.5 -112t-183.5 -62t-200 -21q-216 0 -347.5 77t-131.5 197q0 86 71.5 149.5t200.5 92.5q-117 10 -180.5 57
t-63.5 117q0 71 82.5 127.5t204.5 77.5q-105 42 -165 126.5t-60 198.5q0 158 114 257.5t285 99.5q130 0 227 -60l43 76h347l-45 -80h-336q77 -49 120.5 -124t43.5 -169q0 -156 -115 -257t-285 -101zM178 -240q0 -112 100 -177.5t281 -65.5q121 0 222 29.5t166 93t65 149.5
q0 106 -84.5 153.5t-270.5 47.5h-278q-201 -58 -201 -230zM561 375q128 0 205.5 87.5t77.5 233.5t-77.5 233t-205.5 87q-129 0 -207 -87t-78 -233t78 -233.5t207 -87.5z" />
    <glyph glyph-name="h" unicode="h" horiz-adv-x="1218" 
d="M303 0h-113v1597h113v-872q28 167 131.5 247.5t245.5 80.5q362 0 362 -426v-627h-112v606q0 375 -303 375q-138 0 -231 -96.5t-93 -280.5v-604z" />
    <glyph glyph-name="i" unicode="i" horiz-adv-x="505" 
d="M197 0v1028h112v-1028h-112zM166 1489q0 35 25.5 60.5t60.5 25.5t61.5 -25.5t26.5 -60.5t-26.5 -61.5t-61.5 -26.5t-60.5 26.5t-25.5 61.5z" />
    <glyph glyph-name="j" unicode="j" horiz-adv-x="516" 
d="M-31 -532l-20 28q46 38 69.5 57.5t55 50t46 50.5t33.5 52.5t26 62.5t15.5 73t10.5 92t2 113v981h112v-977q0 -136 -16.5 -216t-51.5 -133t-106 -110q-50 -40 -176 -124zM178 1489q0 35 25.5 60.5t60.5 25.5t61.5 -25.5t26.5 -60.5t-26.5 -61.5t-61.5 -26.5t-60.5 26.5
t-25.5 61.5z" />
    <glyph glyph-name="k" unicode="k" horiz-adv-x="1118" 
d="M190 0v1597h113v-1034l639 465h90l-604 -438l705 -590h-154l-676 555v-555h-113z" />
    <glyph glyph-name="l" unicode="l" horiz-adv-x="505" 
d="M197 0v1597h112v-1597h-112z" />
    <glyph glyph-name="m" unicode="m" horiz-adv-x="1939" 
d="M303 604v-604h-113v1028h113v-303q28 168 128.5 248t242.5 80q158 0 248 -82t108 -256q14 91 50 158.5t88 105.5t110.5 56t126.5 18q176 0 267 -102.5t91 -323.5v-627h-112v606q0 196 -77 285.5t-224 89.5q-136 0 -226 -96.5t-90 -280.5v-604h-112v606q0 196 -77 285.5
t-224 89.5q-65 0 -121.5 -23t-101 -68t-70 -118.5t-25.5 -167.5z" />
    <glyph glyph-name="n" unicode="n" horiz-adv-x="1218" 
d="M303 0h-113v1028h113v-303q28 167 131.5 247.5t245.5 80.5q362 0 362 -426v-627h-112v606q0 375 -303 375q-138 0 -231 -96.5t-93 -280.5v-604z" />
    <glyph glyph-name="o" unicode="o" horiz-adv-x="1284" 
d="M643 -23q-143 0 -263.5 64.5t-195.5 189t-75 285.5q0 162 75 286t195.5 187.5t263.5 63.5q105 0 201 -37.5t170 -105t118 -170t44 -224.5q0 -121 -44 -223.5t-118 -171t-170 -106.5t-201 -38zM649 25q75 0 145.5 28.5t128.5 82.5t93 144t35 203q0 146 -57.5 267.5
t-152.5 189.5t-206 68q-75 0 -145 -28.5t-127.5 -83.5t-92 -145t-34.5 -202q0 -147 56.5 -268t151 -188.5t205.5 -67.5z" />
    <glyph glyph-name="p" unicode="p" horiz-adv-x="1265" 
d="M190 -508v1536h113v-160q51 86 146 135.5t208 49.5q221 0 359.5 -152.5t138.5 -384.5q0 -153 -61.5 -275.5t-175.5 -193t-261 -70.5q-116 0 -210.5 49.5t-143.5 135.5v-670h-113zM303 852v-674q61 -74 144 -107.5t167 -33.5q187 0 300.5 136t113.5 343q0 205 -113.5 341
t-300.5 136q-84 0 -167 -33.5t-144 -107.5z" />
    <glyph glyph-name="q" unicode="q" horiz-adv-x="1265" 
d="M608 -23q-221 0 -359 153t-138 386q0 232 138 384.5t359 152.5q115 0 210 -49t145 -134v158h112v-1536h-112v668q-54 -86 -148 -134.5t-207 -48.5zM238 516q0 -207 113 -343t300 -136q84 0 167.5 33t144.5 106v678q-61 73 -144.5 106t-167.5 33q-124 0 -219 -63.5
t-144.5 -171.5t-49.5 -242z" />
    <glyph glyph-name="r" unicode="r" horiz-adv-x="753" 
d="M190 0v1028h113v-313q64 327 391 327h15v-108h-54q-184 0 -268 -87t-84 -235v-612h-113z" />
    <glyph glyph-name="s" unicode="s" horiz-adv-x="995" 
d="M481 -23q-198 0 -325 74l-33 320h33l86 -252q3 -8 6 -14t5.5 -10.5t6.5 -9t6.5 -6.5t8 -5.5t8 -5t9 -5t9.5 -4.5q64 -34 193 -34q120 0 203 59t83 162q0 96 -64 146t-190 77l-96 20q-285 64 -285 287q0 121 105.5 199t267.5 78q180 0 287 -72l29 -289h-33l-80 219
q-11 30 -21.5 44t-33.5 24q-49 29 -166 29t-187.5 -56t-70.5 -143q0 -162 227 -211l94 -20q160 -37 240 -107.5t80 -189.5q0 -136 -116 -220t-286 -84z" />
    <glyph glyph-name="t" unicode="t" horiz-adv-x="815" 
d="M492 -23q-107 0 -161.5 44t-54.5 163v779h-249v65h249v229l113 50v-279h410v-65h-410v-779q0 -88 43.5 -118.5t128.5 -30.5q77 0 176 18v-43q-174 -33 -245 -33z" />
    <glyph glyph-name="u" unicode="u" horiz-adv-x="1208" 
d="M905 1028h113v-1028h-113v307q-28 -170 -129 -250t-241 -80q-359 0 -359 429v622h111v-604q0 -196 77 -285.5t224 -89.5q136 0 226.5 97t90.5 280v602z" />
    <glyph glyph-name="v" unicode="v" horiz-adv-x="1124" 
d="M1087 1028l-501 -1042h-47l-502 1042h123l430 -893l430 893h67z" />
    <glyph glyph-name="w" unicode="w" horiz-adv-x="1781" 
d="M166 1028l354 -889l379 889h41l381 -891l354 891h64l-418 -1042h-55l-377 870l-371 -870h-59l-418 1042h125z" />
    <glyph glyph-name="x" unicode="x" horiz-adv-x="1107" 
d="M111 0h-72l463 512l-434 516h137l368 -438l396 438h73l-434 -479l461 -549h-137l-395 471z" />
    <glyph glyph-name="y" unicode="y" horiz-adv-x="1132" 
d="M279 -508l251 512l-491 1024h125l428 -895l440 895h68l-754 -1536h-67z" />
    <glyph glyph-name="z" unicode="z" horiz-adv-x="1034" 
d="M59 0v47l744 916h-688v65h831v-47l-741 -915h747v-66h-893z" />
    <glyph glyph-name="braceleft" unicode="{" horiz-adv-x="655" 
d="M610 -440l-8 -41q-74 12 -134 35t-111.5 61t-81 90.5t-41.5 123.5t8 161l45 223q31 158 -31.5 246.5t-196.5 109.5v35q134 21 196.5 111t31.5 248l-45 221q-20 90 -8 162t41.5 124.5t81.5 90.5t112 61t133 35l8 -43q-168 -31 -239 -126.5t-31 -277.5l43 -204
q35 -175 -31.5 -282t-191.5 -134v-4q125 -27 191.5 -135t31.5 -281l-43 -209q-36 -182 32.5 -276.5t237.5 -124.5z" />
    <glyph glyph-name="bar" unicode="|" horiz-adv-x="524" 
d="M223 -449v2094h76v-2094h-76z" />
    <glyph glyph-name="braceright" unicode="}" horiz-adv-x="655" 
d="M45 1616l8 41q74 -12 134 -35t112 -61t81.5 -90.5t41.5 -123.5t-8 -161l-45 -223q-31 -158 31 -247t196 -110v-35q-134 -21 -196 -110.5t-31 -247.5l45 -221q20 -90 8 -162t-41.5 -124.5t-82 -90.5t-112.5 -61t-133 -35l-8 43q168 31 239 126.5t31 276.5l-43 205
q-17 93 -7.5 165t43.5 124t81.5 83t106.5 44v4q-59 13 -106.5 45t-81.5 84t-43.5 123.5t7.5 163.5l43 208q36 182 -32.5 277t-237.5 125z" />
    <glyph glyph-name="asciitilde" unicode="~" horiz-adv-x="1337" 
d="M432 668q61 0 116.5 -20.5t97.5 -50t82 -59.5t86.5 -50.5t94.5 -20.5q180 0 207 192h66q-16 -128 -93.5 -188.5t-179.5 -60.5q-56 0 -108 20.5t-93 49.5t-81.5 58t-91.5 49.5t-105 20.5q-180 0 -207 -190h-65q16 128 93.5 189t180.5 61z" />
    <glyph glyph-name="uni00A0" unicode="&#xa0;" horiz-adv-x="593" 
 />
    <glyph glyph-name="exclamdown" unicode="&#xa1;" horiz-adv-x="487" 
d="M225 623h39q5 -324 27 -651.5t22 -477.5q0 -17 -34.5 -23.5t-68.5 0t-34 23.5q0 150 22 477.5t27 651.5zM240 1057q40 0 66 -26t26 -64t-26 -64t-66 -26q-37 0 -62.5 26.5t-25.5 63.5t25.5 63.5t62.5 26.5z" />
    <glyph glyph-name="cent" unicode="&#xa2;" horiz-adv-x="1193" 
d="M606 -279v256q-143 5 -254.5 74.5t-173 190t-61.5 272.5q0 236 140 380t349 157v288h49v-286q93 -2 171 -26.5t126 -60.5t74.5 -75t26.5 -74q0 -30 -15.5 -47.5t-44.5 -17.5q-32 0 -50 18.5t-30 65.5q-53 162 -258 174v-957h17q67 0 128 16t117.5 51t99.5 97.5t64 147.5
h33q-29 -129 -98 -217t-159.5 -128t-201.5 -43v-256h-49zM233 559q0 -207 102 -342t271 -160v953q-161 -8 -267 -128t-106 -323z" />
    <glyph glyph-name="sterling" unicode="&#xa3;" horiz-adv-x="1312" 
d="M96 0v8l172 156q140 128 193 212t53 165q0 64 -37 143h-348v57h320l-15 29l-69 131q-62 116 -88.5 190t-26.5 138q0 149 140 249.5t341 100.5q167 0 273 -61.5t106 -139.5q0 -29 -17 -46t-46 -17q-24 0 -40 14t-34 47q-87 154 -307 154q-133 0 -223.5 -73.5t-90.5 -176.5
q0 -59 25 -126.5t86 -180.5l72 -131q40 -73 51 -101h442v-57h-424q8 -33 8 -76q0 -45 -8.5 -82t-35.5 -89.5t-85 -117t-149 -143.5l-92 -80h995l-25 -96h-1116z" />
    <glyph glyph-name="yen" unicode="&#xa5;" horiz-adv-x="1542" 
d="M328 416v59h387v191h-387v57h368l-641 829h138l606 -786l606 786h82l-641 -829h371v-57h-388v-191h388v-59h-388v-416h-114v416h-387z" />
    <glyph glyph-name="brokenbar" unicode="&#xa6;" horiz-adv-x="524" 
d="M223 817v807h76v-807h-76zM223 -432v807h76v-807h-76z" />
    <glyph glyph-name="section" unicode="&#xa7;" horiz-adv-x="1226" 
d="M512 -401q-172 0 -289 81t-117 166q0 34 20.5 53t53.5 19t50 -20t32 -66q35 -102 101.5 -146t177.5 -44q126 0 197 75t71 195q0 112 -59.5 217.5t-184.5 237.5l-170 178q-73 78 -118.5 134t-85.5 121t-58 130t-18 137q0 149 81 268t220.5 184.5t310.5 65.5q154 0 256 -64
t102 -139q0 -73 -65 -73q-33 0 -51 21.5t-35 62.5q-72 147 -254 147q-121 0 -196.5 -72t-75.5 -178q0 -94 55.5 -188t181.5 -223l170 -179q84 -89 135 -149.5t97 -130.5t66 -138t20 -143q0 -109 -47 -208.5t-128 -172.5t-197.5 -116t-248.5 -43zM793 -287q118 54 190 166.5
t72 243.5q0 70 -22 137.5t-67 135t-91.5 122t-116.5 127.5l-174 180q-127 133 -186.5 231.5t-59.5 196.5q0 62 23.5 120t66.5 95q-115 -53 -177.5 -157t-62.5 -230q0 -111 58 -215.5t172 -224.5l172 -180q157 -165 226 -273.5t69 -232.5q0 -66 -26.5 -136.5t-65.5 -105.5z
" />
    <glyph glyph-name="dieresis" unicode="&#xa8;" 
d="M-242 1362q-35 0 -60.5 26.5t-25.5 61.5t25.5 60.5t60.5 25.5t61.5 -25.5t26.5 -60.5t-26.5 -61.5t-61.5 -26.5zM240 1362q-35 0 -60.5 26.5t-25.5 61.5t25.5 60.5t60.5 25.5t61.5 -25.5t26.5 -60.5t-26.5 -61.5t-61.5 -26.5z" />
    <glyph glyph-name="copyright" unicode="&#xa9;" horiz-adv-x="1828" 
d="M913 -23q-171 0 -319.5 62t-251.5 168.5t-162 254.5t-59 316t59 316t162 254.5t251.5 168.5t319.5 62q229 0 411.5 -105.5t283 -288t100.5 -407.5t-100.5 -407.5t-283 -288t-411.5 -105.5zM913 27q147 0 279.5 52.5t234 147t161 238t59.5 313.5q0 137 -38.5 257.5
t-107.5 210.5t-160.5 155t-201 98t-226.5 33q-146 0 -278.5 -53t-233 -148t-160 -239t-59.5 -314t59.5 -313.5t160 -238t233 -147t278.5 -52.5zM944 336q-218 0 -358 123.5t-140 333.5q0 207 141 330.5t361 123.5q183 0 279 -61l53 -230h-25l-86 168q-4 7 -8 13.5t-7 10
t-7.5 8t-6.5 6t-7.5 5t-6.5 4.5q-50 37 -180 37q-80 0 -150 -23t-128 -69t-91.5 -124.5t-33.5 -180.5q0 -199 110.5 -317.5t298.5 -118.5q136 0 183 35q28 20 43 49l90 174h24l-61 -236q-102 -61 -287 -61z" />
    <glyph glyph-name="ordfeminine" unicode="&#xaa;" horiz-adv-x="1067" 
d="M397 719q-120 0 -197 64t-77 159q0 41 14.5 75.5t44 61t61.5 47t82 36.5t89.5 27t98.5 20.5t95.5 14t93.5 11.5v57q0 258 -221 258q-111 0 -166 -55q-57 -54 -51 -145q4 -58 -51 -58q-47 0 -47 54q0 97 90.5 169t239.5 72q305 0 305 -309v-408q-1 -54 15 -77t52 -23
q58 0 93 64l20 -11q-45 -104 -152 -104q-57 0 -90.5 35t-33.5 100v94q-28 -119 -109 -174t-199 -55zM440 770q52 0 97 15t83 45.5t60 85.5t22 128v158q-71 -10 -118.5 -18t-108 -22t-98.5 -31.5t-74 -42.5t-53 -59t-17 -77q0 -76 56.5 -129t150.5 -53z" />
    <glyph glyph-name="guillemotleft" unicode="&#xab;" horiz-adv-x="1110" 
d="M535 74l-433 450l433 451l38 -31l-325 -420l325 -422zM950 74l-432 450l432 451l39 -31l-325 -420l325 -422z" />
    <glyph glyph-name="uni00AD" unicode="&#xad;" horiz-adv-x="925" 
d="M162 500v67h602v-67h-602z" />
    <glyph glyph-name="registered" unicode="&#xae;" horiz-adv-x="1828" 
d="M913 -23q-171 0 -319.5 62t-251.5 168.5t-162 254.5t-59 316t59 316t162 254.5t251.5 168.5t319.5 62q229 0 411.5 -105.5t283 -288t100.5 -407.5t-100.5 -407.5t-283 -288t-411.5 -105.5zM913 27q147 0 279.5 52.5t234 147t161 238t59.5 313.5q0 137 -38.5 257.5
t-107.5 210.5t-160.5 155t-201 98t-226.5 33q-146 0 -278.5 -53t-233 -148t-160 -239t-59.5 -314t59.5 -313.5t160 -238t233 -147t278.5 -52.5zM688 367h-84v880h258q79 0 140.5 -10.5t112 -34.5t77.5 -68t27 -106q0 -101 -70.5 -157t-194.5 -70l408 -434h-107l-399 426
h-168v-426zM688 836h162q276 0 276 184q0 101 -72.5 142.5t-203.5 41.5h-162v-368z" />
    <glyph glyph-name="macron" unicode="&#xaf;" 
d="M-293 1368v55h586v-55h-586z" />
    <glyph glyph-name="degree" unicode="&#xb0;" horiz-adv-x="923" 
d="M461 887q-147 0 -247.5 100.5t-100.5 245.5t100.5 245.5t247.5 100.5t247.5 -100.5t100.5 -245.5t-100.5 -245.5t-247.5 -100.5zM461 946q118 0 202.5 80t84.5 207t-84.5 208t-202.5 81q-116 0 -200.5 -81t-84.5 -208t84 -207t201 -80z" />
    <glyph glyph-name="plusminus" unicode="&#xb1;" horiz-adv-x="1337" 
d="M635 190v418h-490v66h490v409h65v-409h490v-66h-490v-418h-65zM145 0v63h1045v-63h-1045z" />
    <glyph glyph-name="twosuperior" unicode="&#xb2;" horiz-adv-x="702" 
d="M47 821v4q128 124 207 207t144 166t93.5 149.5t28.5 129.5q0 80 -45 127t-129 47q-85 0 -138 -54t-54 -155h-31q0 120 68.5 188t185.5 68q107 0 167 -56.5t60 -146.5q0 -108 -89 -226t-273 -282l-103 -92h479l-28 -74h-543z" />
    <glyph glyph-name="threesuperior" unicode="&#xb3;" horiz-adv-x="722" 
d="M305 803q-100 0 -164.5 49t-64.5 98q0 20 12.5 31.5t30.5 11.5q16 0 26 -9t13 -16.5t10 -29.5q22 -54 56 -79t100 -25q96 0 164.5 63.5t68.5 173.5q0 100 -63.5 161.5t-135.5 61.5q-41 0 -96 -22l-8 26l37 15q203 79 203 207q0 62 -42 96.5t-112 34.5q-72 0 -125.5 -41.5
t-64.5 -126.5h-27q10 101 78.5 158t173.5 57q90 0 143 -42.5t53 -107.5q0 -115 -161 -184v-4q96 -18 159.5 -86.5t63.5 -167.5q0 -133 -96.5 -218t-231.5 -85z" />
    <glyph glyph-name="acute" unicode="&#xb4;" 
d="M-150 1233l222 338h127v-8l-312 -330h-37z" />
    <glyph glyph-name="paragraph" unicode="&#xb6;" horiz-adv-x="1134" 
d="M586 -428v1014h-13q-234 0 -366.5 124t-132.5 330q0 109 45 202t129 162t213.5 108.5t290.5 39.5h141v-1749l-76 -55v877q-89 -31 -172 -37v-973z" />
    <glyph glyph-name="periodcentered" unicode="&#xb7;" horiz-adv-x="501" 
d="M248 442q-37 0 -62.5 26.5t-25.5 63.5t26 64t62 27q40 0 66 -26.5t26 -64.5t-26 -64t-66 -26z" />
    <glyph glyph-name="cedilla" unicode="&#xb8;" 
d="M-18 -516q-75 0 -131 36t-56 85q0 19 16 29t39 4q1 -57 45.5 -89t100.5 -32q59 0 96 25t37 71q0 17 -7 32t-26.5 31t-34.5 27t-50.5 28.5t-53 26t-63.5 29.5l215 217h49l-178 -178q107 -52 154.5 -93.5t47.5 -99.5q0 -64 -55.5 -106.5t-144.5 -42.5z" />
    <glyph glyph-name="onesuperior" unicode="&#xb9;" horiz-adv-x="481" 
d="M242 821v801l-187 -80v37l269 113v-871h-82z" />
    <glyph glyph-name="ordmasculine" unicode="&#xba;" horiz-adv-x="1079" 
d="M541 719q-86 0 -163.5 30.5t-136.5 85t-93.5 137t-34.5 181.5q0 129 59.5 229.5t156.5 152.5t212 52t212 -52t156.5 -152.5t59.5 -229.5q0 -99 -34.5 -181.5t-93.5 -137t-136.5 -85t-163.5 -30.5zM547 762q60 0 114.5 21.5t99 64t71 114t26.5 162.5q0 179 -94.5 300.5
t-226.5 121.5q-61 0 -115.5 -22t-99.5 -65t-71 -114.5t-26 -162.5q0 -179 93.5 -299.5t228.5 -120.5z" />
    <glyph glyph-name="guillemotright" unicode="&#xbb;" horiz-adv-x="1110" 
d="M592 524l-432 -450l-39 28l325 422l-325 420l39 31zM1008 524l-433 -450l-38 28l325 422l-325 420l38 31z" />
    <glyph glyph-name="onequarter" unicode="&#xbc;" horiz-adv-x="1613" 
d="M242 698v801l-187 -80v37l269 113v-871h-82zM39 0l1159 1552h86l-1159 -1552h-86zM1298 0v233h-464v33l475 590h71v-567h168v-56h-168v-233h-82zM905 289h393v483z" />
    <glyph glyph-name="onehalf" unicode="&#xbd;" horiz-adv-x="1533" 
d="M242 698v801l-187 -80v37l269 113v-871h-82zM39 0l1159 1552h86l-1159 -1552h-86zM879 0v4q257 248 365 390t108 261q0 80 -45 127t-129 47q-85 0 -138.5 -53.5t-54.5 -154.5h-31q0 120 68.5 188t185.5 68q108 0 168 -56.5t60 -146.5q0 -108 -89 -225.5t-274 -282.5
l-102 -92h479l-29 -74h-542z" />
    <glyph glyph-name="threequarters" unicode="&#xbe;" horiz-adv-x="1855" 
d="M305 680q-100 0 -164.5 49t-64.5 98q0 20 12.5 31.5t30.5 11.5q16 0 26 -9t13 -16.5t10 -29.5q22 -54 56 -79t100 -25q96 0 164.5 63.5t68.5 173.5q0 100 -63.5 161.5t-135.5 61.5q-41 0 -96 -22l-8 27l37 14q203 79 203 207q0 62 -42 96.5t-112 34.5q-72 0 -125.5 -41.5
t-64.5 -126.5h-27q10 101 78.5 158t173.5 57q90 0 143 -42.5t53 -107.5q0 -115 -161 -184v-4q96 -18 159.5 -86.5t63.5 -167.5q0 -133 -96.5 -218t-231.5 -85zM281 0l1159 1552h86l-1159 -1552h-86zM1542 0v233h-465v33l475 590h72v-567h168v-56h-168v-233h-82zM1149 289
h393v483z" />
    <glyph glyph-name="questiondown" unicode="&#xbf;" horiz-adv-x="1114" 
d="M717 623l10 -291q3 -58 -9 -88t-38.5 -43.5t-83.5 -24.5l-145 -31q-142 -32 -217.5 -95.5t-75.5 -182.5q0 -147 121.5 -247.5t318.5 -100.5q235 0 303 155q28 68 82 68q30 0 49 -19t19 -49q0 -31 -31.5 -66t-85 -66.5t-136 -52.5t-173.5 -21q-241 0 -393 128t-152 314
q0 77 26 136t74.5 98t106.5 63t133 39l147 28q37 7 52 11.5t30 17t19 33t4 57.5l6 230h39zM702 1057q37 0 63 -26.5t26 -63.5t-26 -63.5t-63 -26.5q-40 0 -66 26t-26 64t26 64t66 26z" />
    <glyph glyph-name="Agrave" unicode="&#xc0;" horiz-adv-x="1540" 
d="M1372 0l-266 612h-725l-264 -612h-76l678 1573h102l682 -1573h-131zM408 676h671l-336 774zM883 1726h-41l-408 261v4h154z" />
    <glyph glyph-name="Aacute" unicode="&#xc1;" horiz-adv-x="1540" 
d="M1372 0l-266 612h-725l-264 -612h-76l678 1573h102l682 -1573h-131zM408 676h671l-336 774zM698 1726l295 265h154v-4l-408 -261h-41z" />
    <glyph glyph-name="Acircumflex" unicode="&#xc2;" horiz-adv-x="1540" 
d="M1372 0l-266 612h-725l-264 -612h-76l678 1573h102l682 -1573h-131zM408 676h671l-336 774zM451 1720l311 283h16l312 -283h-41l-279 187l-278 -187h-41z" />
    <glyph glyph-name="Atilde" unicode="&#xc3;" horiz-adv-x="1540" 
d="M1372 0l-266 612h-725l-264 -612h-76l678 1573h102l682 -1573h-131zM408 676h671l-336 774zM936 1733q-41 0 -79.5 15.5t-69.5 37.5t-60.5 44.5t-62.5 38t-66 15.5q-109 0 -115 -135h-34q0 97 44.5 159t116.5 62q44 0 90.5 -24t80 -52.5t78.5 -52.5t87 -24q48 0 77.5 34
t33.5 99h35q0 -106 -45.5 -161.5t-110.5 -55.5z" />
    <glyph glyph-name="Adieresis" unicode="&#xc4;" horiz-adv-x="1540" 
d="M1372 0l-266 612h-725l-264 -612h-76l678 1573h102l682 -1573h-131zM408 676h671l-336 774zM520 1810q-35 0 -60.5 26.5t-25.5 61.5t25.5 61t60.5 26t60.5 -26t25.5 -61t-25.5 -61.5t-60.5 -26.5zM1020 1810q-35 0 -60.5 26.5t-25.5 61.5t25.5 61t60.5 26t60.5 -26
t25.5 -61t-25.5 -61.5t-60.5 -26.5z" />
    <glyph glyph-name="Aring" unicode="&#xc5;" horiz-adv-x="1540" 
d="M1372 0l-266 612h-725l-264 -612h-76l678 1573h102l682 -1573h-131zM408 676h671l-336 774zM770 1708q-93 0 -158 62.5t-65 152.5q0 91 65 153t158 62q94 0 159.5 -61.5t65.5 -153.5q0 -90 -65.5 -152.5t-159.5 -62.5zM770 1757q72 0 120 47t48 119t-48 119t-120 47
t-120 -47t-48 -119t48 -119t120 -47z" />
    <glyph glyph-name="AE" unicode="&#xc6;" horiz-adv-x="2144" 
d="M1034 0v612h-561l-418 -612h-82l1061 1552h1000v-63h-877v-645h762v-64h-762v-717h877v-63h-1000zM518 676h516v756z" />
    <glyph glyph-name="Ccedilla" unicode="&#xc7;" horiz-adv-x="1699" 
d="M123 778q0 245 114.5 428.5t312 278t449.5 94.5q151 0 299 -30.5t234 -90.5l53 -368h-41l-110 294q-16 40 -36 56.5t-55 29.5q-177 54 -346 54q-118 0 -223.5 -25t-200 -81t-163 -138.5t-108.5 -205t-40 -273.5q0 -236 94 -411t260.5 -266t384.5 -91q104 0 197.5 15.5
t149.5 37.5q35 12 54.5 29t35.5 57l110 295h41l-53 -369q-86 -60 -233.5 -90.5t-298.5 -30.5q-258 0 -456 94t-311.5 277t-113.5 430zM862 -520q-75 0 -130.5 36t-55.5 87q0 19 16 28t39 4q1 -58 45.5 -90t100.5 -32q58 0 95.5 26t37.5 70q0 53 -99 108q-36 20 -137 66
l215 217h49l-178 -178q109 -53 156 -93.5t47 -97.5q0 -67 -55.5 -109t-145.5 -42z" />
    <glyph glyph-name="Egrave" unicode="&#xc8;" horiz-adv-x="1345" 
d="M238 0v1552h999v-63h-879v-645h762v-64h-762v-717h879v-63h-999zM885 1726h-41l-408 261v4h154z" />
    <glyph glyph-name="Eacute" unicode="&#xc9;" horiz-adv-x="1345" 
d="M238 0v1552h999v-63h-879v-645h762v-64h-762v-717h879v-63h-999zM700 1726l295 265h154v-4l-408 -261h-41z" />
    <glyph glyph-name="Ecircumflex" unicode="&#xca;" horiz-adv-x="1345" 
d="M238 0v1552h999v-63h-879v-645h762v-64h-762v-717h879v-63h-999zM453 1720l311 283h16l312 -283h-41l-279 187l-278 -187h-41z" />
    <glyph glyph-name="Edieresis" unicode="&#xcb;" horiz-adv-x="1345" 
d="M238 0v1552h999v-63h-879v-645h762v-64h-762v-717h879v-63h-999zM522 1810q-35 0 -60.5 26.5t-25.5 61.5t25.5 61t60.5 26t60.5 -26t25.5 -61t-25.5 -61.5t-60.5 -26.5zM1022 1810q-35 0 -60.5 26.5t-25.5 61.5t25.5 61t60.5 26t60.5 -26t25.5 -61t-25.5 -61.5
t-60.5 -26.5z" />
    <glyph glyph-name="Igrave" unicode="&#xcc;" horiz-adv-x="595" 
d="M238 0v1552h120v-1552h-120zM410 1726h-41l-408 261v4h154z" />
    <glyph glyph-name="Iacute" unicode="&#xcd;" horiz-adv-x="595" 
d="M238 0v1552h120v-1552h-120zM225 1726l295 265h154v-4l-408 -261h-41z" />
    <glyph glyph-name="Icircumflex" unicode="&#xce;" horiz-adv-x="595" 
d="M238 0v1552h120v-1552h-120zM-23 1720l312 283h16l311 -283h-41l-278 187l-279 -187h-41z" />
    <glyph glyph-name="Idieresis" unicode="&#xcf;" horiz-adv-x="595" 
d="M238 0v1552h120v-1552h-120zM47 1810q-35 0 -60.5 26.5t-25.5 61.5t25.5 61t60.5 26t60.5 -26t25.5 -61t-25.5 -61.5t-60.5 -26.5zM547 1810q-35 0 -60.5 26.5t-25.5 61.5t25.5 61t60.5 26t60.5 -26t25.5 -61t-25.5 -61.5t-60.5 -26.5z" />
    <glyph glyph-name="Eth" unicode="&#xd0;" horiz-adv-x="1724" 
d="M645 0h-387v1552h383q158 0 296 -25t261 -82.5t211 -144.5t139 -219t51 -297q0 -166 -51 -299.5t-138.5 -223t-210 -149t-260.5 -86t-294 -26.5zM379 59h262q144 0 265 24.5t225 79t176.5 137t113.5 204.5t41 276t-41 275t-113 202.5t-176.5 135t-225.5 77t-265 23.5
h-262v-1434zM49 780v64h766v-64h-766z" />
    <glyph glyph-name="Ntilde" unicode="&#xd1;" horiz-adv-x="1738" 
d="M307 1552l1125 -1357v1357h71v-1552h-71l-1125 1366v-1366h-69v1552h69zM1059 1733q-41 0 -79.5 15.5t-69.5 37.5t-60.5 44.5t-62.5 38t-66 15.5q-109 0 -115 -135h-35q0 97 45 159t117 62q44 0 90.5 -24t80 -52.5t78.5 -52.5t87 -24q48 0 77.5 34t33.5 99h34
q0 -106 -45 -161.5t-110 -55.5z" />
    <glyph glyph-name="Ograve" unicode="&#xd2;" horiz-adv-x="1863" 
d="M932 -23q-227 0 -412.5 103t-292 286.5t-106.5 411.5q0 229 106.5 413t292 286t412.5 102t412.5 -102t292 -286t106.5 -413q0 -228 -106.5 -411.5t-292 -286.5t-412.5 -103zM936 35q103 0 200.5 29.5t182 89.5t147.5 144.5t99.5 202.5t36.5 255q0 176 -54.5 323
t-147.5 243t-214.5 149t-257.5 53q-103 0 -200.5 -29.5t-182 -89.5t-147.5 -144.5t-99.5 -202.5t-36.5 -255q0 -176 54.5 -323t147.5 -243t214.5 -149t257.5 -53zM1040 1726h-41l-407 261v4h153z" />
    <glyph glyph-name="Oacute" unicode="&#xd3;" horiz-adv-x="1863" 
d="M932 -23q-227 0 -412.5 103t-292 286.5t-106.5 411.5q0 229 106.5 413t292 286t412.5 102t412.5 -102t292 -286t106.5 -413q0 -228 -106.5 -411.5t-292 -286.5t-412.5 -103zM936 35q103 0 200.5 29.5t182 89.5t147.5 144.5t99.5 202.5t36.5 255q0 176 -54.5 323
t-147.5 243t-214.5 149t-257.5 53q-103 0 -200.5 -29.5t-182 -89.5t-147.5 -144.5t-99.5 -202.5t-36.5 -255q0 -176 54.5 -323t147.5 -243t214.5 -149t257.5 -53zM856 1726l295 265h154v-4l-408 -261h-41z" />
    <glyph glyph-name="Ocircumflex" unicode="&#xd4;" horiz-adv-x="1863" 
d="M932 -23q-227 0 -412.5 103t-292 286.5t-106.5 411.5q0 229 106.5 413t292 286t412.5 102t412.5 -102t292 -286t106.5 -413q0 -228 -106.5 -411.5t-292 -286.5t-412.5 -103zM936 35q103 0 200.5 29.5t182 89.5t147.5 144.5t99.5 202.5t36.5 255q0 176 -54.5 323
t-147.5 243t-214.5 149t-257.5 53q-103 0 -200.5 -29.5t-182 -89.5t-147.5 -144.5t-99.5 -202.5t-36.5 -255q0 -176 54.5 -323t147.5 -243t214.5 -149t257.5 -53zM606 1720l312 283h16l311 -283h-41l-278 187l-279 -187h-41z" />
    <glyph glyph-name="Otilde" unicode="&#xd5;" horiz-adv-x="1863" 
d="M932 -23q-227 0 -412.5 103t-292 286.5t-106.5 411.5q0 229 106.5 413t292 286t412.5 102t412.5 -102t292 -286t106.5 -413q0 -228 -106.5 -411.5t-292 -286.5t-412.5 -103zM936 35q103 0 200.5 29.5t182 89.5t147.5 144.5t99.5 202.5t36.5 255q0 176 -54.5 323
t-147.5 243t-214.5 149t-257.5 53q-103 0 -200.5 -29.5t-182 -89.5t-147.5 -144.5t-99.5 -202.5t-36.5 -255q0 -176 54.5 -323t147.5 -243t214.5 -149t257.5 -53zM1092 1733q-41 0 -79.5 15.5t-69.5 37.5t-60.5 44.5t-62.5 38t-66 15.5q-109 0 -115 -135h-35q0 97 45 159
t117 62q44 0 90.5 -24t80 -52.5t78.5 -52.5t87 -24q48 0 77 34t33 99h35q0 -106 -45 -161.5t-110 -55.5z" />
    <glyph glyph-name="Odieresis" unicode="&#xd6;" horiz-adv-x="1863" 
d="M932 -23q-227 0 -412.5 103t-292 286.5t-106.5 411.5q0 229 106.5 413t292 286t412.5 102t412.5 -102t292 -286t106.5 -413q0 -228 -106.5 -411.5t-292 -286.5t-412.5 -103zM936 35q103 0 200.5 29.5t182 89.5t147.5 144.5t99.5 202.5t36.5 255q0 176 -54.5 323
t-147.5 243t-214.5 149t-257.5 53q-103 0 -200.5 -29.5t-182 -89.5t-147.5 -144.5t-99.5 -202.5t-36.5 -255q0 -176 54.5 -323t147.5 -243t214.5 -149t257.5 -53zM676 1810q-35 0 -60.5 26.5t-25.5 61.5t25.5 61t60.5 26t60.5 -26t25.5 -61t-25.5 -61.5t-60.5 -26.5z
M1176 1810q-35 0 -60.5 26.5t-25.5 61.5t25.5 61t60.5 26t60.5 -26t25.5 -61t-25.5 -61.5t-60.5 -26.5z" />
    <glyph glyph-name="multiply" unicode="&#xd7;" horiz-adv-x="1337" 
d="M262 76l-47 47l408 407l-408 408l47 47l408 -407l407 407l47 -45l-409 -410l409 -409l-47 -47l-407 409z" />
    <glyph glyph-name="Oslash" unicode="&#xd8;" horiz-adv-x="1863" 
d="M932 -23q-227 0 -412.5 103t-292 286.5t-106.5 411.5q0 229 106.5 413t292 286t412.5 102t412.5 -102t292 -286t106.5 -413q0 -228 -106.5 -411.5t-292 -286.5t-412.5 -103zM936 35q103 0 200.5 29.5t182 89.5t147.5 144.5t99.5 202.5t36.5 255q0 176 -54.5 323
t-147.5 243t-214.5 149t-257.5 53q-103 0 -200.5 -29.5t-182 -89.5t-147.5 -144.5t-99.5 -202.5t-36.5 -255q0 -176 54.5 -323t147.5 -243t214.5 -149t257.5 -53zM168 -131l-47 41l1577 1784l45 -41z" />
    <glyph glyph-name="Ugrave" unicode="&#xd9;" horiz-adv-x="1689" 
d="M840 -23q-623 0 -623 621v954h121v-948q0 -279 127.5 -421t402.5 -142q535 0 535 575v936h70v-946q0 -629 -633 -629zM973 1726h-41l-408 261v4h154z" />
    <glyph glyph-name="Uacute" unicode="&#xda;" horiz-adv-x="1689" 
d="M840 -23q-623 0 -623 621v954h121v-948q0 -279 127.5 -421t402.5 -142q535 0 535 575v936h70v-946q0 -629 -633 -629zM788 1726l295 265h154v-4l-408 -261h-41z" />
    <glyph glyph-name="Ucircumflex" unicode="&#xdb;" horiz-adv-x="1689" 
d="M840 -23q-623 0 -623 621v954h121v-948q0 -279 127.5 -421t402.5 -142q535 0 535 575v936h70v-946q0 -629 -633 -629zM541 1720l311 283h16l312 -283h-41l-279 187l-278 -187h-41z" />
    <glyph glyph-name="Udieresis" unicode="&#xdc;" horiz-adv-x="1689" 
d="M840 -23q-623 0 -623 621v954h121v-948q0 -279 127.5 -421t402.5 -142q535 0 535 575v936h70v-946q0 -629 -633 -629zM610 1810q-35 0 -60.5 26.5t-25.5 61.5t25.5 61t60.5 26t60.5 -26t25.5 -61t-25.5 -61.5t-60.5 -26.5zM1110 1810q-35 0 -60.5 26.5t-25.5 61.5
t25.5 61t60.5 26t60.5 -26t25.5 -61t-25.5 -61.5t-60.5 -26.5z" />
    <glyph glyph-name="Yacute" unicode="&#xdd;" horiz-adv-x="1548" 
d="M836 700v-700h-123v700l-658 852h144l604 -782l604 782h86zM715 1726l295 265h153v-4l-407 -261h-41z" />
    <glyph glyph-name="Thorn" unicode="&#xde;" horiz-adv-x="1472" 
d="M358 0h-120v1552h120v-360h377q90 0 164 -7t148 -23.5t130 -47.5t99.5 -75t66.5 -110t23 -149q0 -100 -34 -175t-90.5 -120t-140.5 -72.5t-170.5 -37.5t-195.5 -10h-377v-365zM358 1130v-704h363q92 0 163.5 8.5t138.5 31.5t111 61.5t70.5 101.5t26.5 147
q0 85 -26.5 148.5t-70.5 102t-111 62.5t-139 32.5t-163 8.5h-363z" />
    <glyph glyph-name="germandbls" unicode="&#xdf;" horiz-adv-x="1339" 
d="M838 -23q-185 0 -289.5 69.5t-104.5 146.5q0 29 17.5 46t44.5 17q13 0 24 -4.5t18.5 -10.5t15 -18.5t11 -20.5t11 -25t10.5 -25q29 -67 92 -97t168 -30q132 0 217.5 66.5t85.5 184.5q0 90 -53 159t-178 149l-86 55q-87 55 -135.5 93.5t-78.5 84.5t-30 96q0 56 35.5 97.5
t107.5 89.5l41 26q83 54 125.5 106t42.5 124q0 83 -75 133.5t-187 50.5q-189 0 -287 -110t-98 -308v-1122h-113v1079q0 230 130.5 370t371.5 140q162 0 258.5 -60.5t96.5 -162.5q0 -39 -13.5 -72t-43.5 -63.5t-55.5 -50.5t-72.5 -52l-65 -45q-36 -25 -51.5 -37t-32.5 -38.5
t-17 -57.5q0 -55 48.5 -100.5t168.5 -122.5l84 -55q145 -95 205 -175t60 -184q0 -105 -60 -183t-155 -115.5t-209 -37.5z" />
    <glyph glyph-name="agrave" unicode="&#xe0;" horiz-adv-x="1138" 
d="M436 -23q-146 0 -241 79.5t-95 197.5q0 45 16 84.5t40.5 69.5t65.5 56t80.5 44t96 33.5t101.5 25t108 18t103.5 13t99.5 10.5v68q0 168 -64 252t-202 84q-134 0 -211 -70q-57 -51 -43 -190q1 -29 -16.5 -46.5t-47.5 -17.5q-28 0 -45.5 18t-17.5 52q0 55 27 107.5
t75.5 94.5t123 67.5t161.5 25.5q185 0 278.5 -92t92.5 -291l-2 -508q0 -67 19 -96t62 -29q72 0 115 78l23 -13q-55 -122 -181 -122q-68 0 -106.5 43t-38.5 131v112q-35 -151 -134 -220t-243 -69zM483 35q63 0 119.5 19.5t104 59.5t76 110t28.5 161v188q-66 -9 -109.5 -15.5
t-104 -17.5t-100.5 -23t-87 -29t-77 -38t-56.5 -48t-39 -61t-12.5 -75q0 -96 72 -163.5t186 -67.5zM604 1233h-37l-311 330v8h129z" />
    <glyph glyph-name="aacute" unicode="&#xe1;" horiz-adv-x="1138" 
d="M436 -23q-146 0 -241 79.5t-95 197.5q0 45 16 84.5t40.5 69.5t65.5 56t80.5 44t96 33.5t101.5 25t108 18t103.5 13t99.5 10.5v68q0 168 -64 252t-202 84q-134 0 -211 -70q-57 -51 -43 -190q1 -29 -16.5 -46.5t-47.5 -17.5q-28 0 -45.5 18t-17.5 52q0 55 27 107.5
t75.5 94.5t123 67.5t161.5 25.5q185 0 278.5 -92t92.5 -291l-2 -508q0 -67 19 -96t62 -29q72 0 115 78l23 -13q-55 -122 -181 -122q-68 0 -106.5 43t-38.5 131v112q-35 -151 -134 -220t-243 -69zM483 35q63 0 119.5 19.5t104 59.5t76 110t28.5 161v188q-66 -9 -109.5 -15.5
t-104 -17.5t-100.5 -23t-87 -29t-77 -38t-56.5 -48t-39 -61t-12.5 -75q0 -96 72 -163.5t186 -67.5zM485 1233l222 338h127v-8l-312 -330h-37z" />
    <glyph glyph-name="acircumflex" unicode="&#xe2;" horiz-adv-x="1138" 
d="M436 -23q-146 0 -241 79.5t-95 197.5q0 45 16 84.5t40.5 69.5t65.5 56t80.5 44t96 33.5t101.5 25t108 18t103.5 13t99.5 10.5v68q0 168 -64 252t-202 84q-134 0 -211 -70q-57 -51 -43 -190q1 -29 -16.5 -46.5t-47.5 -17.5q-28 0 -45.5 18t-17.5 52q0 55 27 107.5
t75.5 94.5t123 67.5t161.5 25.5q185 0 278.5 -92t92.5 -291l-2 -508q0 -67 19 -96t62 -29q72 0 115 78l23 -13q-55 -122 -181 -122q-68 0 -106.5 43t-38.5 131v112q-35 -151 -134 -220t-243 -69zM483 35q63 0 119.5 19.5t104 59.5t76 110t28.5 161v188q-66 -9 -109.5 -15.5
t-104 -17.5t-100.5 -23t-87 -29t-77 -38t-56.5 -48t-39 -61t-12.5 -75q0 -96 72 -163.5t186 -67.5zM209 1233l326 366h12l325 -366h-38l-293 260l-293 -260h-39z" />
    <glyph glyph-name="atilde" unicode="&#xe3;" horiz-adv-x="1138" 
d="M436 -23q-146 0 -241 79.5t-95 197.5q0 45 16 84.5t40.5 69.5t65.5 56t80.5 44t96 33.5t101.5 25t108 18t103.5 13t99.5 10.5v68q0 168 -64 252t-202 84q-134 0 -211 -70q-57 -51 -43 -190q1 -29 -16.5 -46.5t-47.5 -17.5q-28 0 -45.5 18t-17.5 52q0 55 27 107.5
t75.5 94.5t123 67.5t161.5 25.5q185 0 278.5 -92t92.5 -291l-2 -508q0 -67 19 -96t62 -29q72 0 115 78l23 -13q-55 -122 -181 -122q-68 0 -106.5 43t-38.5 131v112q-35 -151 -134 -220t-243 -69zM483 35q63 0 119.5 19.5t104 59.5t76 110t28.5 161v188q-66 -9 -109.5 -15.5
t-104 -17.5t-100.5 -23t-87 -29t-77 -38t-56.5 -48t-39 -61t-12.5 -75q0 -96 72 -163.5t186 -67.5zM707 1290q-41 0 -79.5 16t-69.5 38.5t-60.5 45t-62.5 38.5t-66 16q-109 0 -115 -135h-35q0 97 45 159t117 62q36 0 72.5 -16t67 -38.5l61 -45t66 -38.5t69.5 -16
q101 0 110 133h35q0 -106 -45 -162.5t-110 -56.5z" />
    <glyph glyph-name="adieresis" unicode="&#xe4;" horiz-adv-x="1138" 
d="M436 -23q-146 0 -241 79.5t-95 197.5q0 45 16 84.5t40.5 69.5t65.5 56t80.5 44t96 33.5t101.5 25t108 18t103.5 13t99.5 10.5v68q0 168 -64 252t-202 84q-134 0 -211 -70q-57 -51 -43 -190q1 -29 -16.5 -46.5t-47.5 -17.5q-28 0 -45.5 18t-17.5 52q0 55 27 107.5
t75.5 94.5t123 67.5t161.5 25.5q185 0 278.5 -92t92.5 -291l-2 -508q0 -67 19 -96t62 -29q72 0 115 78l23 -13q-55 -122 -181 -122q-68 0 -106.5 43t-38.5 131v112q-35 -151 -134 -220t-243 -69zM483 35q63 0 119.5 19.5t104 59.5t76 110t28.5 161v188q-66 -9 -109.5 -15.5
t-104 -17.5t-100.5 -23t-87 -29t-77 -38t-56.5 -48t-39 -61t-12.5 -75q0 -96 72 -163.5t186 -67.5zM299 1362q-35 0 -60.5 26.5t-25.5 61.5t25.5 60.5t60.5 25.5t61.5 -25.5t26.5 -60.5t-26.5 -61.5t-61.5 -26.5zM780 1362q-35 0 -60.5 26.5t-25.5 61.5t25.5 60.5t60.5 25.5
t61.5 -25.5t26.5 -60.5t-26.5 -61.5t-61.5 -26.5z" />
    <glyph glyph-name="aring" unicode="&#xe5;" horiz-adv-x="1138" 
d="M436 -23q-146 0 -241 79.5t-95 197.5q0 45 16 84.5t40.5 69.5t65.5 56t80.5 44t96 33.5t101.5 25t108 18t103.5 13t99.5 10.5v68q0 168 -64 252t-202 84q-134 0 -211 -70q-57 -51 -43 -190q1 -29 -16.5 -46.5t-47.5 -17.5q-28 0 -45.5 18t-17.5 52q0 55 27 107.5
t75.5 94.5t123 67.5t161.5 25.5q185 0 278.5 -92t92.5 -291l-2 -508q0 -67 19 -96t62 -29q72 0 115 78l23 -13q-55 -122 -181 -122q-68 0 -106.5 43t-38.5 131v112q-35 -151 -134 -220t-243 -69zM483 35q63 0 119.5 19.5t104 59.5t76 110t28.5 161v188q-66 -9 -109.5 -15.5
t-104 -17.5t-100.5 -23t-87 -29t-77 -38t-56.5 -48t-39 -61t-12.5 -75q0 -96 72 -163.5t186 -67.5zM541 1198q-93 0 -158.5 62t-65.5 153q0 90 65.5 152.5t158.5 62.5q94 0 159.5 -62.5t65.5 -152.5q0 -92 -65.5 -153.5t-159.5 -61.5zM541 1247q72 0 120 47t48 119t-48 119
t-120 47t-120 -47t-48 -119t48 -119t120 -47z" />
    <glyph glyph-name="ae" unicode="&#xe6;" horiz-adv-x="1914" 
d="M436 -23q-149 0 -245.5 79.5t-96.5 197.5q0 56 24.5 103t62 79.5t98 59.5t116 43t133 29.5t133 21t130.5 15.5q19 2 28 3v68q0 168 -65.5 252t-208.5 84q-140 0 -211 -68q-60 -56 -47 -192q2 -29 -16 -46.5t-50 -17.5q-27 0 -44 19t-17 49q0 120 108.5 208.5t282.5 88.5
q145 0 234 -53.5t124 -168.5q71 106 181 164t231 58q193 0 324 -113t163 -322h-872q-2 -18 -2 -59q0 -225 121.5 -362.5t318.5 -137.5q68 0 127.5 14t117.5 46t101.5 92.5t65.5 146.5h33q-44 -194 -172.5 -287.5t-311.5 -93.5q-163 0 -285.5 79t-183.5 218
q-23 -101 -93.5 -170.5t-155.5 -98t-181 -28.5zM221 266q0 -96 73.5 -163.5t190.5 -67.5q82 0 157.5 31.5t133 102.5t68.5 169q-25 86 -25 174v61q-68 -9 -111.5 -15.5t-105.5 -17.5t-102.5 -23t-89 -29t-79 -38t-58 -48t-40 -61t-12.5 -75zM1319 1012q-134 0 -241.5 -92.5
t-135.5 -253.5h733q-17 167 -112 256.5t-244 89.5z" />
    <glyph glyph-name="ccedilla" unicode="&#xe7;" horiz-adv-x="1179" 
d="M627 -23q-228 0 -372 150t-144 387q0 125 42 228t114 170.5t167.5 104t202.5 36.5q95 0 176 -24t130.5 -60.5t76.5 -76.5t27 -75q0 -30 -15.5 -47.5t-44.5 -17.5q-32 0 -50 18.5t-30 65.5q-10 32 -27.5 59.5t-49 55.5t-84 44.5t-121.5 16.5q-82 0 -154 -30.5
t-126.5 -86.5t-86 -143t-31.5 -193q0 -226 121.5 -366t317.5 -140q67 0 128 16t117.5 51t99.5 97.5t64 147.5h33q-44 -196 -173 -292t-308 -96zM590 -516q-75 0 -131 36t-56 85q0 19 16.5 29t39.5 4q1 -58 45 -89.5t100 -31.5q59 0 96 25t37 71q0 17 -7 32t-26.5 31
t-34.5 27t-50.5 28.5t-53 26t-63.5 29.5l215 217h49l-178 -178q107 -52 155 -94t48 -99q0 -64 -56 -106.5t-145 -42.5z" />
    <glyph glyph-name="egrave" unicode="&#xe8;" horiz-adv-x="1208" 
d="M627 -23q-228 0 -372 150t-144 387q0 124 43.5 228t115 170.5t160.5 103.5t182 37q193 0 324.5 -113.5t163.5 -321.5h-871q-2 -18 -2 -59q0 -226 121.5 -366t319.5 -140q68 0 128.5 15.5t117.5 49t100.5 95.5t64.5 147h35q-29 -130 -101.5 -217.5t-169.5 -126.5t-216 -39
zM610 1012q-134 0 -239 -91t-133 -251h729q-17 167 -112 254.5t-245 87.5zM678 1233h-37l-311 330v8h129z" />
    <glyph glyph-name="eacute" unicode="&#xe9;" horiz-adv-x="1208" 
d="M627 -23q-228 0 -372 150t-144 387q0 124 43.5 228t115 170.5t160.5 103.5t182 37q193 0 324.5 -113.5t163.5 -321.5h-871q-2 -18 -2 -59q0 -226 121.5 -366t319.5 -140q68 0 128.5 15.5t117.5 49t100.5 95.5t64.5 147h35q-29 -130 -101.5 -217.5t-169.5 -126.5t-216 -39
zM610 1012q-134 0 -239 -91t-133 -251h729q-17 167 -112 254.5t-245 87.5zM559 1233l221 338h127v-8l-311 -330h-37z" />
    <glyph glyph-name="ecircumflex" unicode="&#xea;" horiz-adv-x="1208" 
d="M627 -23q-228 0 -372 150t-144 387q0 124 43.5 228t115 170.5t160.5 103.5t182 37q193 0 324.5 -113.5t163.5 -321.5h-871q-2 -18 -2 -59q0 -226 121.5 -366t319.5 -140q68 0 128.5 15.5t117.5 49t100.5 95.5t64.5 147h35q-29 -130 -101.5 -217.5t-169.5 -126.5t-216 -39
zM610 1012q-134 0 -239 -91t-133 -251h729q-17 167 -112 254.5t-245 87.5zM283 1233l325 366h13l325 -366h-39l-293 260l-292 -260h-39z" />
    <glyph glyph-name="edieresis" unicode="&#xeb;" horiz-adv-x="1208" 
d="M627 -23q-228 0 -372 150t-144 387q0 124 43.5 228t115 170.5t160.5 103.5t182 37q193 0 324.5 -113.5t163.5 -321.5h-871q-2 -18 -2 -59q0 -226 121.5 -366t319.5 -140q68 0 128.5 15.5t117.5 49t100.5 95.5t64.5 147h35q-29 -130 -101.5 -217.5t-169.5 -126.5t-216 -39
zM610 1012q-134 0 -239 -91t-133 -251h729q-17 167 -112 254.5t-245 87.5zM373 1362q-35 0 -60.5 26.5t-25.5 61.5t25.5 60.5t60.5 25.5t61.5 -25.5t26.5 -60.5t-26.5 -61.5t-61.5 -26.5zM854 1362q-35 0 -60.5 26.5t-25.5 61.5t25.5 60.5t60.5 25.5t61.5 -25.5t26.5 -60.5
t-26.5 -61.5t-61.5 -26.5z" />
    <glyph glyph-name="igrave" unicode="&#xec;" horiz-adv-x="505" 
d="M197 0v1028h112v-1028h-112zM317 1233h-36l-312 330v8h129z" />
    <glyph glyph-name="iacute" unicode="&#xed;" horiz-adv-x="505" 
d="M197 0v1028h112v-1028h-112zM199 1233l221 338h127v-8l-311 -330h-37z" />
    <glyph glyph-name="icircumflex" unicode="&#xee;" horiz-adv-x="505" 
d="M197 0v1028h112v-1028h-112zM-80 1233l326 366h12l326 -366h-39l-293 260l-293 -260h-39z" />
    <glyph glyph-name="idieresis" unicode="&#xef;" horiz-adv-x="505" 
d="M197 0v1028h112v-1028h-112zM47 1362q-35 0 -60.5 26.5t-25.5 61.5t25.5 60.5t60.5 25.5t61.5 -25.5t26.5 -60.5t-26.5 -61.5t-61.5 -26.5zM455 1362q-35 0 -60.5 26.5t-25.5 61.5t25.5 60.5t60.5 25.5t61.5 -25.5t26.5 -60.5t-26.5 -61.5t-61.5 -26.5z" />
    <glyph glyph-name="eth" unicode="&#xf0;" horiz-adv-x="1302" 
d="M627 -23q-102 0 -194.5 37t-164.5 104t-114.5 170.5t-42.5 227.5q0 123 43 226t115 170.5t165 105t195 37.5q223 0 383 -160q-85 317 -355 510l-282 -152l-21 41l260 140q-167 109 -393 157l10 35q261 -46 451 -156l283 152l20 -41l-258 -139q218 -143 330 -357t112 -467
q0 -127 -30.5 -233.5t-83 -181t-122 -126t-147 -76t-159.5 -24.5zM231 510q0 -114 34.5 -208t91.5 -153.5t129 -91.5t149 -32q81 0 154.5 36.5t132 106t93 182t34.5 252.5q0 125 -29 260q-148 142 -363 142q-81 0 -155.5 -30.5t-135.5 -89.5t-98 -156t-37 -218z" />
    <glyph glyph-name="ntilde" unicode="&#xf1;" horiz-adv-x="1218" 
d="M303 0h-113v1028h113v-303q28 167 131.5 247.5t245.5 80.5q362 0 362 -426v-627h-112v606q0 375 -303 375q-138 0 -231 -96.5t-93 -280.5v-604zM782 1290q-41 0 -79.5 16t-69.5 38.5t-60.5 45t-62.5 38.5t-66 16q-108 0 -114 -135h-35q0 97 45 159t117 62q36 0 72.5 -16
t67 -38.5l61 -45t66 -38.5t69.5 -16q101 0 110 133h35q0 -106 -45.5 -162.5t-110.5 -56.5z" />
    <glyph glyph-name="ograve" unicode="&#xf2;" horiz-adv-x="1284" 
d="M643 -23q-143 0 -263.5 64.5t-195.5 189t-75 285.5q0 162 75 286t195.5 187.5t263.5 63.5q105 0 201 -37.5t170 -105t118 -170t44 -224.5q0 -121 -44 -223.5t-118 -171t-170 -106.5t-201 -38zM649 25q75 0 145.5 28.5t128.5 82.5t93 144t35 203q0 146 -57.5 267.5
t-152.5 189.5t-206 68q-75 0 -145 -28.5t-127.5 -83.5t-92 -145t-34.5 -202q0 -147 56.5 -268t151 -188.5t205.5 -67.5zM705 1233h-37l-312 330v8h129z" />
    <glyph glyph-name="oacute" unicode="&#xf3;" horiz-adv-x="1284" 
d="M643 -23q-143 0 -263.5 64.5t-195.5 189t-75 285.5q0 162 75 286t195.5 187.5t263.5 63.5q105 0 201 -37.5t170 -105t118 -170t44 -224.5q0 -121 -44 -223.5t-118 -171t-170 -106.5t-201 -38zM649 25q75 0 145.5 28.5t128.5 82.5t93 144t35 203q0 146 -57.5 267.5
t-152.5 189.5t-206 68q-75 0 -145 -28.5t-127.5 -83.5t-92 -145t-34.5 -202q0 -147 56.5 -268t151 -188.5t205.5 -67.5zM586 1233l221 338h127v-8l-311 -330h-37z" />
    <glyph glyph-name="ocircumflex" unicode="&#xf4;" horiz-adv-x="1284" 
d="M643 -23q-143 0 -263.5 64.5t-195.5 189t-75 285.5q0 162 75 286t195.5 187.5t263.5 63.5q105 0 201 -37.5t170 -105t118 -170t44 -224.5q0 -121 -44 -223.5t-118 -171t-170 -106.5t-201 -38zM649 25q75 0 145.5 28.5t128.5 82.5t93 144t35 203q0 146 -57.5 267.5
t-152.5 189.5t-206 68q-75 0 -145 -28.5t-127.5 -83.5t-92 -145t-34.5 -202q0 -147 56.5 -268t151 -188.5t205.5 -67.5zM309 1233l326 366h12l326 -366h-39l-293 260l-293 -260h-39z" />
    <glyph glyph-name="otilde" unicode="&#xf5;" horiz-adv-x="1284" 
d="M643 -23q-143 0 -263.5 64.5t-195.5 189t-75 285.5q0 162 75 286t195.5 187.5t263.5 63.5q105 0 201 -37.5t170 -105t118 -170t44 -224.5q0 -121 -44 -223.5t-118 -171t-170 -106.5t-201 -38zM649 25q75 0 145.5 28.5t128.5 82.5t93 144t35 203q0 146 -57.5 267.5
t-152.5 189.5t-206 68q-75 0 -145 -28.5t-127.5 -83.5t-92 -145t-34.5 -202q0 -147 56.5 -268t151 -188.5t205.5 -67.5zM807 1290q-41 0 -79.5 16t-69.5 38.5t-60.5 45t-62.5 38.5t-66 16q-109 0 -115 -135h-35q0 97 45 159t117 62q36 0 72.5 -16t67 -38.5l61 -45t66 -38.5
t69.5 -16q48 0 77.5 33.5t33.5 99.5h35q0 -106 -45.5 -162.5t-110.5 -56.5z" />
    <glyph glyph-name="odieresis" unicode="&#xf6;" horiz-adv-x="1284" 
d="M643 -23q-143 0 -263.5 64.5t-195.5 189t-75 285.5q0 162 75 286t195.5 187.5t263.5 63.5q105 0 201 -37.5t170 -105t118 -170t44 -224.5q0 -121 -44 -223.5t-118 -171t-170 -106.5t-201 -38zM649 25q75 0 145.5 28.5t128.5 82.5t93 144t35 203q0 146 -57.5 267.5
t-152.5 189.5t-206 68q-75 0 -145 -28.5t-127.5 -83.5t-92 -145t-34.5 -202q0 -147 56.5 -268t151 -188.5t205.5 -67.5zM399 1362q-35 0 -60.5 26.5t-25.5 61.5t25.5 60.5t60.5 25.5t61.5 -25.5t26.5 -60.5t-26.5 -61.5t-61.5 -26.5zM881 1362q-35 0 -60.5 26.5t-25.5 61.5
t25.5 60.5t60.5 25.5t61.5 -25.5t26.5 -60.5t-26.5 -61.5t-61.5 -26.5z" />
    <glyph glyph-name="divide" unicode="&#xf7;" horiz-adv-x="1337" 
d="M670 834q-35 0 -59.5 24.5t-24.5 59.5t24.5 60.5t59.5 25.5t60.5 -25.5t25.5 -60.5t-25.5 -59.5t-60.5 -24.5zM137 502v63h1063v-63h-1063zM670 63q-35 0 -59.5 25.5t-24.5 61.5q0 35 24.5 59t59.5 24q36 0 61 -24t25 -59t-25.5 -61t-60.5 -26z" />
    <glyph glyph-name="oslash" unicode="&#xf8;" horiz-adv-x="1284" 
d="M643 -23q-143 0 -263.5 64.5t-195.5 189t-75 285.5q0 162 75 286t195.5 187.5t263.5 63.5q105 0 201 -37.5t170 -105t118 -170t44 -224.5q0 -121 -44 -223.5t-118 -171t-170 -106.5t-201 -38zM649 25q75 0 145.5 28.5t128.5 82.5t93 144t35 203q0 146 -57.5 267.5
t-152.5 189.5t-206 68q-75 0 -145 -28.5t-127.5 -83.5t-92 -145t-34.5 -202q0 -147 56.5 -268t151 -188.5t205.5 -67.5zM1133 1137l38 -33l-1019 -1204l-37 30z" />
    <glyph glyph-name="ugrave" unicode="&#xf9;" horiz-adv-x="1208" 
d="M905 1028h113v-1028h-113v307q-28 -170 -129 -250t-241 -80q-359 0 -359 429v622h111v-604q0 -196 77 -285.5t224 -89.5q136 0 226.5 97t90.5 280v602zM662 1233h-37l-312 330v8h129z" />
    <glyph glyph-name="uacute" unicode="&#xfa;" horiz-adv-x="1208" 
d="M905 1028h113v-1028h-113v307q-28 -170 -129 -250t-241 -80q-359 0 -359 429v622h111v-604q0 -196 77 -285.5t224 -89.5q136 0 226.5 97t90.5 280v602zM543 1233l221 338h127v-8l-311 -330h-37z" />
    <glyph glyph-name="ucircumflex" unicode="&#xfb;" horiz-adv-x="1208" 
d="M905 1028h113v-1028h-113v307q-28 -170 -129 -250t-241 -80q-359 0 -359 429v622h111v-604q0 -196 77 -285.5t224 -89.5q136 0 226.5 97t90.5 280v602zM264 1233l326 366h12l326 -366h-39l-293 260l-293 -260h-39z" />
    <glyph glyph-name="udieresis" unicode="&#xfc;" horiz-adv-x="1208" 
d="M905 1028h113v-1028h-113v307q-28 -170 -129 -250t-241 -80q-359 0 -359 429v622h111v-604q0 -196 77 -285.5t224 -89.5q136 0 226.5 97t90.5 280v602zM354 1362q-35 0 -60.5 26.5t-25.5 61.5t25.5 60.5t60.5 25.5t61.5 -25.5t26.5 -60.5t-26.5 -61.5t-61.5 -26.5z
M836 1362q-35 0 -60.5 26.5t-25.5 61.5t25.5 60.5t60.5 25.5t61.5 -25.5t26.5 -60.5t-26.5 -61.5t-61.5 -26.5z" />
    <glyph glyph-name="yacute" unicode="&#xfd;" horiz-adv-x="1132" 
d="M279 -508l251 512l-491 1024h125l428 -895l440 895h68l-754 -1536h-67zM535 1233l221 338h127v-8l-312 -330h-36z" />
    <glyph glyph-name="thorn" unicode="&#xfe;" horiz-adv-x="1265" 
d="M657 -23q-116 0 -210.5 49.5t-143.5 135.5v-670h-113v2105h113v-729q51 86 146 135.5t208 49.5q147 0 261.5 -70.5t175.5 -192.5t61 -274q0 -153 -61 -275.5t-175 -193t-262 -70.5zM303 856v-680q61 -73 144 -106t167 -33q187 0 300.5 136t113.5 343q0 205 -113.5 341
t-300.5 136q-85 0 -167.5 -32.5t-143.5 -104.5z" />
    <glyph glyph-name="ydieresis" unicode="&#xff;" horiz-adv-x="1132" 
d="M279 -508l251 512l-491 1024h125l428 -895l440 895h68l-754 -1536h-67zM348 1362q-35 0 -60.5 26.5t-25.5 61.5t25.5 60.5t60.5 25.5t61.5 -25.5t26.5 -60.5t-26.5 -61.5t-61.5 -26.5zM829 1362q-35 0 -60.5 26.5t-25.5 61.5t25.5 60.5t60.5 25.5q36 0 62.5 -25.5
t26.5 -60.5t-27 -61.5t-62 -26.5z" />
    <glyph glyph-name="Amacron" unicode="&#x100;" horiz-adv-x="1540" 
d="M1372 0l-266 612h-725l-264 -612h-76l678 1573h102l682 -1573h-131zM408 676h671l-336 774zM477 1819v59h586v-59h-586z" />
    <glyph glyph-name="amacron" unicode="&#x101;" horiz-adv-x="1138" 
d="M436 -23q-146 0 -241 79.5t-95 197.5q0 45 16 84.5t40.5 69.5t65.5 56t80.5 44t96 33.5t101.5 25t108 18t103.5 13t99.5 10.5v68q0 168 -64 252t-202 84q-134 0 -211 -70q-57 -51 -43 -190q1 -29 -16.5 -46.5t-47.5 -17.5q-28 0 -45.5 18t-17.5 52q0 55 27 107.5
t75.5 94.5t123 67.5t161.5 25.5q185 0 278.5 -92t92.5 -291l-2 -508q0 -67 19 -96t62 -29q72 0 115 78l23 -13q-55 -122 -181 -122q-68 0 -106.5 43t-38.5 131v112q-35 -151 -134 -220t-243 -69zM483 35q63 0 119.5 19.5t104 59.5t76 110t28.5 161v188q-66 -9 -109.5 -15.5
t-104 -17.5t-100.5 -23t-87 -29t-77 -38t-56.5 -48t-39 -61t-12.5 -75q0 -96 72 -163.5t186 -67.5zM248 1368v55h586v-55h-586z" />
    <glyph glyph-name="Abreve" unicode="&#x102;" horiz-adv-x="1540" 
d="M1372 0l-266 612h-725l-264 -612h-76l678 1573h102l682 -1573h-131zM408 676h671l-336 774zM770 1702q-57 0 -108 16t-97 50.5t-77 97.5t-39 149h57q13 -131 83.5 -197.5t180.5 -66.5t180.5 66.5t83.5 197.5h58q-10 -86 -40.5 -149t-76 -97.5t-96.5 -50.5t-109 -16z" />
    <glyph glyph-name="abreve" unicode="&#x103;" horiz-adv-x="1138" 
d="M436 -23q-146 0 -241 79.5t-95 197.5q0 45 16 84.5t40.5 69.5t65.5 56t80.5 44t96 33.5t101.5 25t108 18t103.5 13t99.5 10.5v68q0 168 -64 252t-202 84q-134 0 -211 -70q-57 -51 -43 -190q1 -29 -16.5 -46.5t-47.5 -17.5q-28 0 -45.5 18t-17.5 52q0 55 27 107.5
t75.5 94.5t123 67.5t161.5 25.5q185 0 278.5 -92t92.5 -291l-2 -508q0 -67 19 -96t62 -29q72 0 115 78l23 -13q-55 -122 -181 -122q-68 0 -106.5 43t-38.5 131v112q-35 -151 -134 -220t-243 -69zM483 35q63 0 119.5 19.5t104 59.5t76 110t28.5 161v188q-66 -9 -109.5 -15.5
t-104 -17.5t-100.5 -23t-87 -29t-77 -38t-56.5 -48t-39 -61t-12.5 -75q0 -96 72 -163.5t186 -67.5zM541 1237q-57 0 -108 16t-97.5 51t-77.5 98.5t-39 149.5h57q13 -131 84 -197.5t181 -66.5t180.5 66.5t83.5 197.5h57q-10 -87 -40.5 -150t-75.5 -98t-96 -51t-109 -16z" />
    <glyph glyph-name="Aogonek" unicode="&#x104;" horiz-adv-x="1540" 
d="M1372 0l-266 612h-725l-264 -612h-76l678 1573h102l682 -1573h-131zM408 676h671l-336 774zM1368 -477q-85 0 -147 44.5t-62 115.5q0 41 30 89t78.5 92.5t89.5 76t83 59.5h33q-117 -101 -160 -152q-72 -85 -72 -149q0 -60 46 -93.5t116 -33.5q86 0 160 45l6 -31
q-38 -26 -93 -44.5t-108 -18.5z" />
    <glyph glyph-name="aogonek" unicode="&#x105;" horiz-adv-x="1138" 
d="M436 -23q-146 0 -241 79.5t-95 197.5q0 45 16 84.5t40.5 69.5t65.5 56t80.5 44t96 33.5t101.5 25t108 18t103.5 13t99.5 10.5v68q0 168 -64 252t-202 84q-134 0 -211 -70q-57 -51 -43 -190q1 -29 -16.5 -46.5t-47.5 -17.5q-28 0 -45.5 18t-17.5 52q0 55 27 107.5
t75.5 94.5t123 67.5t161.5 25.5q185 0 278.5 -92t92.5 -291l-2 -508q0 -67 19 -96t62 -29q72 0 115 78l23 -13q-41 -90 -135 -116q-41 -36 -70 -64.5t-63.5 -68.5t-53 -79.5t-18.5 -74.5q0 -61 45 -95t114 -34q87 0 160 43l8 -27q-94 -63 -202 -63q-85 0 -145 44t-60 116
q0 116 250 297h-11q-68 0 -106.5 43t-38.5 131v112q-35 -151 -134 -220t-243 -69zM483 35q63 0 119.5 19.5t104 59.5t76 110t28.5 161v188q-66 -9 -109.5 -15.5t-104 -17.5t-100.5 -23t-87 -29t-77 -38t-56.5 -48t-39 -61t-12.5 -75q0 -96 72 -163.5t186 -67.5z" />
    <glyph glyph-name="Cacute" unicode="&#x106;" horiz-adv-x="1699" 
d="M123 778q0 245 114.5 428.5t312 278t449.5 94.5q151 0 299 -30.5t234 -90.5l53 -368h-41l-110 294q-16 40 -36 56.5t-55 29.5q-177 54 -346 54q-118 0 -223.5 -25t-200 -81t-163 -138.5t-108.5 -205t-40 -273.5q0 -236 94 -411t260.5 -266t384.5 -91q104 0 197.5 15.5
t149.5 37.5q35 12 54.5 29t35.5 57l110 295h41l-53 -369q-86 -60 -233.5 -90.5t-298.5 -30.5q-258 0 -456 94t-311.5 277t-113.5 430zM911 1726l295 265h154v-4l-408 -261h-41z" />
    <glyph glyph-name="cacute" unicode="&#x107;" horiz-adv-x="1179" 
d="M627 -23q-228 0 -372 150t-144 387q0 125 42 228t114 170.5t167.5 104t202.5 36.5q95 0 176 -24t130.5 -60.5t76.5 -76.5t27 -75q0 -30 -15.5 -47.5t-44.5 -17.5q-32 0 -50 18.5t-30 65.5q-10 32 -27.5 59.5t-49 55.5t-84 44.5t-121.5 16.5q-82 0 -154 -30.5
t-126.5 -86.5t-86 -143t-31.5 -193q0 -226 121.5 -366t317.5 -140q67 0 128 16t117.5 51t99.5 97.5t64 147.5h33q-44 -196 -173 -292t-308 -96zM557 1233l221 338h127v-8l-311 -330h-37z" />
    <glyph glyph-name="Ccircumflex" unicode="&#x108;" horiz-adv-x="1699" 
d="M123 778q0 245 114.5 428.5t312 278t449.5 94.5q151 0 299 -30.5t234 -90.5l53 -368h-41l-110 294q-16 40 -36 56.5t-55 29.5q-177 54 -346 54q-118 0 -223.5 -25t-200 -81t-163 -138.5t-108.5 -205t-40 -273.5q0 -236 94 -411t260.5 -266t384.5 -91q104 0 197.5 15.5
t149.5 37.5q35 12 54.5 29t35.5 57l110 295h41l-53 -369q-86 -60 -233.5 -90.5t-298.5 -30.5q-258 0 -456 94t-311.5 277t-113.5 430zM664 1720l311 283h16l312 -283h-41l-279 187l-278 -187h-41z" />
    <glyph glyph-name="ccircumflex" unicode="&#x109;" horiz-adv-x="1179" 
d="M627 -23q-228 0 -372 150t-144 387q0 125 42 228t114 170.5t167.5 104t202.5 36.5q95 0 176 -24t130.5 -60.5t76.5 -76.5t27 -75q0 -30 -15.5 -47.5t-44.5 -17.5q-32 0 -50 18.5t-30 65.5q-10 32 -27.5 59.5t-49 55.5t-84 44.5t-121.5 16.5q-82 0 -154 -30.5
t-126.5 -86.5t-86 -143t-31.5 -193q0 -226 121.5 -366t317.5 -140q67 0 128 16t117.5 51t99.5 97.5t64 147.5h33q-44 -196 -173 -292t-308 -96zM281 1233l325 366h12l326 -366h-39l-293 260l-293 -260h-38z" />
    <glyph glyph-name="Cdotaccent" unicode="&#x10a;" horiz-adv-x="1699" 
d="M123 778q0 245 114.5 428.5t312 278t449.5 94.5q151 0 299 -30.5t234 -90.5l53 -368h-41l-110 294q-16 40 -36 56.5t-55 29.5q-177 54 -346 54q-118 0 -223.5 -25t-200 -81t-163 -138.5t-108.5 -205t-40 -273.5q0 -236 94 -411t260.5 -266t384.5 -91q104 0 197.5 15.5
t149.5 37.5q35 12 54.5 29t35.5 57l110 295h41l-53 -369q-86 -60 -233.5 -90.5t-298.5 -30.5q-258 0 -456 94t-311.5 277t-113.5 430zM983 1810q-35 0 -60.5 26.5t-25.5 61.5t25.5 61t60.5 26t61.5 -26t26.5 -61t-26.5 -61.5t-61.5 -26.5z" />
    <glyph glyph-name="cdotaccent" unicode="&#x10b;" horiz-adv-x="1179" 
d="M627 -23q-228 0 -372 150t-144 387q0 125 42 228t114 170.5t167.5 104t202.5 36.5q95 0 176 -24t130.5 -60.5t76.5 -76.5t27 -75q0 -30 -15.5 -47.5t-44.5 -17.5q-32 0 -50 18.5t-30 65.5q-10 32 -27.5 59.5t-49 55.5t-84 44.5t-121.5 16.5q-82 0 -154 -30.5
t-126.5 -86.5t-86 -143t-31.5 -193q0 -226 121.5 -366t317.5 -140q67 0 128 16t117.5 51t99.5 97.5t64 147.5h33q-44 -196 -173 -292t-308 -96zM612 1362q-35 0 -60.5 26.5t-25.5 61.5t25.5 60.5t60.5 25.5t61.5 -25.5t26.5 -60.5t-26.5 -61.5t-61.5 -26.5z" />
    <glyph glyph-name="Ccaron" unicode="&#x10c;" horiz-adv-x="1699" 
d="M123 778q0 245 114.5 428.5t312 278t449.5 94.5q151 0 299 -30.5t234 -90.5l53 -368h-41l-110 294q-16 40 -36 56.5t-55 29.5q-177 54 -346 54q-118 0 -223.5 -25t-200 -81t-163 -138.5t-108.5 -205t-40 -273.5q0 -236 94 -411t260.5 -266t384.5 -91q104 0 197.5 15.5
t149.5 37.5q35 12 54.5 29t35.5 57l110 295h41l-53 -369q-86 -60 -233.5 -90.5t-298.5 -30.5q-258 0 -456 94t-311.5 277t-113.5 430zM664 2003h41l278 -186l279 186h41l-312 -283h-16z" />
    <glyph glyph-name="ccaron" unicode="&#x10d;" horiz-adv-x="1179" 
d="M627 -23q-228 0 -372 150t-144 387q0 125 42 228t114 170.5t167.5 104t202.5 36.5q95 0 176 -24t130.5 -60.5t76.5 -76.5t27 -75q0 -30 -15.5 -47.5t-44.5 -17.5q-32 0 -50 18.5t-30 65.5q-10 32 -27.5 59.5t-49 55.5t-84 44.5t-121.5 16.5q-82 0 -154 -30.5
t-126.5 -86.5t-86 -143t-31.5 -193q0 -226 121.5 -366t317.5 -140q67 0 128 16t117.5 51t99.5 97.5t64 147.5h33q-44 -196 -173 -292t-308 -96zM281 1599h38l293 -260l293 260h39l-326 -366h-12z" />
    <glyph glyph-name="Dcaron" unicode="&#x10e;" horiz-adv-x="1703" 
d="M625 0h-387v1552h383q158 0 296 -25t261 -82.5t211 -144.5t139 -219t51 -297q0 -166 -51 -299.5t-138.5 -223t-210 -149t-260.5 -86t-294 -26.5zM358 59h263q144 0 265 24.5t225 79t176.5 137t113.5 204.5t41 276t-41 275t-113 202.5t-176.5 135t-225.5 77t-265 23.5
h-263v-1434zM522 2003h41l279 -186l278 186h41l-311 -283h-16z" />
    <glyph glyph-name="dcaron" unicode="&#x10f;" horiz-adv-x="1306" 
d="M608 -23q-221 0 -359 153t-138 386q0 232 138 384.5t359 152.5q115 0 210 -49t145 -134v727h112v-1597h-112v160q-54 -86 -148 -134.5t-207 -48.5zM238 516q0 -207 113 -343t300 -136q84 0 167.5 33t144.5 106v678q-61 73 -144.5 106t-167.5 33q-124 0 -219 -63.5
t-144.5 -171.5t-49.5 -242zM1274 1108l-21 27q185 165 185 288q0 86 -90 115q0 36 20 58t55 22q44 0 70.5 -32t26.5 -83q0 -187 -246 -395z" />
    <glyph glyph-name="Dcroat" unicode="&#x110;" horiz-adv-x="1724" 
d="M645 0h-387v1552h383q158 0 296 -25t261 -82.5t211 -144.5t139 -219t51 -297q0 -166 -51 -299.5t-138.5 -223t-210 -149t-260.5 -86t-294 -26.5zM379 59h262q144 0 265 24.5t225 79t176.5 137t113.5 204.5t41 276t-41 275t-113 202.5t-176.5 135t-225.5 77t-265 23.5
h-262v-1434zM49 780v64h766v-64h-766z" />
    <glyph glyph-name="dcroat" unicode="&#x111;" horiz-adv-x="1265" 
d="M608 -23q-221 0 -359 153t-138 386q0 232 138 384.5t359 152.5q115 0 210 -49t145 -134v727h112v-1597h-112v160q-54 -86 -148 -134.5t-207 -48.5zM238 516q0 -207 113 -343t300 -136q84 0 167.5 33t144.5 106v678q-61 73 -144.5 106t-167.5 33q-124 0 -219 -63.5
t-144.5 -171.5t-49.5 -242zM666 1288v49h596v-49h-596z" />
    <glyph glyph-name="Emacron" unicode="&#x112;" horiz-adv-x="1345" 
d="M238 0v1552h999v-63h-879v-645h762v-64h-762v-717h879v-63h-999zM479 1819v59h586v-59h-586z" />
    <glyph glyph-name="emacron" unicode="&#x113;" horiz-adv-x="1208" 
d="M627 -23q-228 0 -372 150t-144 387q0 124 43.5 228t115 170.5t160.5 103.5t182 37q193 0 324.5 -113.5t163.5 -321.5h-871q-2 -18 -2 -59q0 -226 121.5 -366t319.5 -140q68 0 128.5 15.5t117.5 49t100.5 95.5t64.5 147h35q-29 -130 -101.5 -217.5t-169.5 -126.5t-216 -39
zM610 1012q-134 0 -239 -91t-133 -251h729q-17 167 -112 254.5t-245 87.5zM322 1368v55h585v-55h-585z" />
    <glyph glyph-name="Ebreve" unicode="&#x114;" horiz-adv-x="1345" 
d="M238 0v1552h999v-63h-879v-645h762v-64h-762v-717h879v-63h-999zM772 1702q-57 0 -108 16t-97 50.5t-77 97.5t-39 149h57q13 -131 83.5 -197.5t180.5 -66.5t180.5 66.5t83.5 197.5h58q-10 -86 -40.5 -149t-76 -97.5t-96.5 -50.5t-109 -16z" />
    <glyph glyph-name="ebreve" unicode="&#x115;" horiz-adv-x="1208" 
d="M627 -23q-228 0 -372 150t-144 387q0 124 43.5 228t115 170.5t160.5 103.5t182 37q193 0 324.5 -113.5t163.5 -321.5h-871q-2 -18 -2 -59q0 -226 121.5 -366t319.5 -140q68 0 128.5 15.5t117.5 49t100.5 95.5t64.5 147h35q-29 -130 -101.5 -217.5t-169.5 -126.5t-216 -39
zM610 1012q-134 0 -239 -91t-133 -251h729q-17 167 -112 254.5t-245 87.5zM614 1237q-57 0 -108 16t-97 51t-77 98.5t-39 149.5h57q13 -131 83.5 -197.5t180.5 -66.5t181 66.5t84 197.5h57q-10 -87 -40.5 -150t-76 -98t-96.5 -51t-109 -16z" />
    <glyph glyph-name="Edotaccent" unicode="&#x116;" horiz-adv-x="1345" 
d="M238 0v1552h999v-63h-879v-645h762v-64h-762v-717h879v-63h-999zM772 1810q-35 0 -60.5 26.5t-25.5 61.5t25.5 61t60.5 26t61.5 -26t26.5 -61t-26.5 -61.5t-61.5 -26.5z" />
    <glyph glyph-name="edotaccent" unicode="&#x117;" horiz-adv-x="1208" 
d="M627 -23q-228 0 -372 150t-144 387q0 124 43.5 228t115 170.5t160.5 103.5t182 37q193 0 324.5 -113.5t163.5 -321.5h-871q-2 -18 -2 -59q0 -226 121.5 -366t319.5 -140q68 0 128.5 15.5t117.5 49t100.5 95.5t64.5 147h35q-29 -130 -101.5 -217.5t-169.5 -126.5t-216 -39
zM610 1012q-134 0 -239 -91t-133 -251h729q-17 167 -112 254.5t-245 87.5zM614 1362q-35 0 -60.5 26.5t-25.5 61.5t25.5 60.5t60.5 25.5t61.5 -25.5t26.5 -60.5t-26.5 -61.5t-61.5 -26.5z" />
    <glyph glyph-name="Eogonek" unicode="&#x118;" horiz-adv-x="1345" 
d="M238 0v1552h999v-63h-879v-645h762v-64h-762v-717h879v-63h-999zM1133 -477q-85 0 -147 44.5t-62 115.5q0 41 29.5 89t78 92.5t89.5 76t83 59.5h33q-53 -46 -76.5 -67.5t-68.5 -68.5t-65.5 -87.5t-20.5 -77.5q0 -60 46 -93.5t115 -33.5q86 0 160 45l6 -31
q-38 -26 -92.5 -44.5t-107.5 -18.5z" />
    <glyph glyph-name="eogonek" unicode="&#x119;" horiz-adv-x="1208" 
d="M848 -387l6 -27q-38 -26 -93 -44.5t-108 -18.5q-85 0 -146 44t-61 116q0 151 304 305q-60 -11 -123 -11q-228 0 -372 150t-144 387q0 124 43.5 228t115 170.5t160.5 103.5t182 37q193 0 324.5 -113.5t163.5 -321.5h-871q-2 -18 -2 -59q0 -226 121.5 -366t319.5 -140
q68 0 128.5 15.5t117.5 49t100.5 95.5t64.5 147h35q-14 -64 -41 -118t-55.5 -90t-73 -70.5t-77 -53.5t-83.5 -46q-258 -141 -258 -283q0 -61 46.5 -95t115.5 -34q83 0 160 43zM610 1012q-134 0 -239 -91t-133 -251h729q-17 167 -112 254.5t-245 87.5z" />
    <glyph glyph-name="Ecaron" unicode="&#x11a;" horiz-adv-x="1345" 
d="M238 0v1552h999v-63h-879v-645h762v-64h-762v-717h879v-63h-999zM453 2003h41l278 -186l279 186h41l-312 -283h-16z" />
    <glyph glyph-name="ecaron" unicode="&#x11b;" horiz-adv-x="1208" 
d="M627 -23q-228 0 -372 150t-144 387q0 124 43.5 228t115 170.5t160.5 103.5t182 37q193 0 324.5 -113.5t163.5 -321.5h-871q-2 -18 -2 -59q0 -226 121.5 -366t319.5 -140q68 0 128.5 15.5t117.5 49t100.5 95.5t64.5 147h35q-29 -130 -101.5 -217.5t-169.5 -126.5t-216 -39
zM610 1012q-134 0 -239 -91t-133 -251h729q-17 167 -112 254.5t-245 87.5zM283 1599h39l292 -260l293 260h39l-325 -366h-13z" />
    <glyph glyph-name="Gcircumflex" unicode="&#x11c;" horiz-adv-x="1759" 
d="M123 778q0 245 114.5 428.5t312 278t449.5 94.5q151 0 299 -30.5t234 -90.5l53 -368h-41l-110 294q-16 40 -36 56.5t-55 29.5q-177 54 -346 54q-118 0 -223.5 -25t-200 -81t-163 -138.5t-108.5 -205t-40 -273.5q0 -237 94 -411t260.5 -263.5t384.5 -89.5q278 0 451 108
v533h-487v63h608v-620q-117 -74 -270 -109t-314 -35q-250 0 -445 94t-308 277.5t-113 429.5zM666 1720l311 283h16l312 -283h-41l-279 187l-278 -187h-41z" />
    <glyph glyph-name="gcircumflex" unicode="&#x11d;" horiz-adv-x="1159" 
d="M561 338q-84 0 -151 24q-93 -24 -158.5 -65.5t-65.5 -97.5q0 -109 250 -109h238q84 0 148 -6.5t123 -23.5t96.5 -45t60 -74.5t22.5 -108.5q0 -90 -52 -161t-137.5 -112t-183.5 -62t-200 -21q-216 0 -347.5 77t-131.5 197q0 86 71.5 149.5t200.5 92.5q-117 10 -180.5 57
t-63.5 117q0 71 82.5 127.5t204.5 77.5q-105 42 -165 126.5t-60 198.5q0 158 114 257.5t285 99.5q130 0 227 -60l43 76h347l-45 -80h-336q77 -49 120.5 -124t43.5 -169q0 -156 -115 -257t-285 -101zM178 -240q0 -112 100 -177.5t281 -65.5q121 0 222 29.5t166 93t65 149.5
q0 106 -84.5 153.5t-270.5 47.5h-278q-201 -58 -201 -230zM561 375q128 0 205.5 87.5t77.5 233.5t-77.5 233t-205.5 87q-129 0 -207 -87t-78 -233t78 -233.5t207 -87.5zM260 1233l326 366h12l326 -366h-39l-293 260l-293 -260h-39z" />
    <glyph glyph-name="Gbreve" unicode="&#x11e;" horiz-adv-x="1759" 
d="M123 778q0 245 114.5 428.5t312 278t449.5 94.5q151 0 299 -30.5t234 -90.5l53 -368h-41l-110 294q-16 40 -36 56.5t-55 29.5q-177 54 -346 54q-118 0 -223.5 -25t-200 -81t-163 -138.5t-108.5 -205t-40 -273.5q0 -237 94 -411t260.5 -263.5t384.5 -89.5q278 0 451 108
v533h-487v63h608v-620q-117 -74 -270 -109t-314 -35q-250 0 -445 94t-308 277.5t-113 429.5zM985 1702q-57 0 -108 16t-97 50.5t-77 97.5t-39 149h57q13 -131 83.5 -197.5t180.5 -66.5t180.5 66.5t83.5 197.5h58q-10 -86 -40.5 -149t-76 -97.5t-96.5 -50.5t-109 -16z" />
    <glyph glyph-name="gbreve" unicode="&#x11f;" horiz-adv-x="1159" 
d="M561 338q-84 0 -151 24q-93 -24 -158.5 -65.5t-65.5 -97.5q0 -109 250 -109h238q84 0 148 -6.5t123 -23.5t96.5 -45t60 -74.5t22.5 -108.5q0 -90 -52 -161t-137.5 -112t-183.5 -62t-200 -21q-216 0 -347.5 77t-131.5 197q0 86 71.5 149.5t200.5 92.5q-117 10 -180.5 57
t-63.5 117q0 71 82.5 127.5t204.5 77.5q-105 42 -165 126.5t-60 198.5q0 158 114 257.5t285 99.5q130 0 227 -60l43 76h347l-45 -80h-336q77 -49 120.5 -124t43.5 -169q0 -156 -115 -257t-285 -101zM178 -240q0 -112 100 -177.5t281 -65.5q121 0 222 29.5t166 93t65 149.5
q0 106 -84.5 153.5t-270.5 47.5h-278q-201 -58 -201 -230zM561 375q128 0 205.5 87.5t77.5 233.5t-77.5 233t-205.5 87q-129 0 -207 -87t-78 -233t78 -233.5t207 -87.5zM592 1237q-57 0 -108 16t-97.5 51t-77.5 98.5t-39 149.5h58q13 -131 83.5 -197.5t180.5 -66.5
t180.5 66.5t83.5 197.5h57q-10 -87 -40.5 -150t-75.5 -98t-96 -51t-109 -16z" />
    <glyph glyph-name="Gdotaccent" unicode="&#x120;" horiz-adv-x="1759" 
d="M123 778q0 245 114.5 428.5t312 278t449.5 94.5q151 0 299 -30.5t234 -90.5l53 -368h-41l-110 294q-16 40 -36 56.5t-55 29.5q-177 54 -346 54q-118 0 -223.5 -25t-200 -81t-163 -138.5t-108.5 -205t-40 -273.5q0 -237 94 -411t260.5 -263.5t384.5 -89.5q278 0 451 108
v533h-487v63h608v-620q-117 -74 -270 -109t-314 -35q-250 0 -445 94t-308 277.5t-113 429.5zM985 1810q-35 0 -60.5 26.5t-25.5 61.5t25.5 61t60.5 26t61.5 -26t26.5 -61t-26.5 -61.5t-61.5 -26.5z" />
    <glyph glyph-name="gdotaccent" unicode="&#x121;" horiz-adv-x="1159" 
d="M561 338q-84 0 -151 24q-93 -24 -158.5 -65.5t-65.5 -97.5q0 -109 250 -109h238q84 0 148 -6.5t123 -23.5t96.5 -45t60 -74.5t22.5 -108.5q0 -90 -52 -161t-137.5 -112t-183.5 -62t-200 -21q-216 0 -347.5 77t-131.5 197q0 86 71.5 149.5t200.5 92.5q-117 10 -180.5 57
t-63.5 117q0 71 82.5 127.5t204.5 77.5q-105 42 -165 126.5t-60 198.5q0 158 114 257.5t285 99.5q130 0 227 -60l43 76h347l-45 -80h-336q77 -49 120.5 -124t43.5 -169q0 -156 -115 -257t-285 -101zM178 -240q0 -112 100 -177.5t281 -65.5q121 0 222 29.5t166 93t65 149.5
q0 106 -84.5 153.5t-270.5 47.5h-278q-201 -58 -201 -230zM561 375q128 0 205.5 87.5t77.5 233.5t-77.5 233t-205.5 87q-129 0 -207 -87t-78 -233t78 -233.5t207 -87.5zM592 1362q-35 0 -60.5 26.5t-25.5 61.5t25.5 60.5t60.5 25.5t61.5 -25.5t26.5 -60.5t-26.5 -61.5
t-61.5 -26.5z" />
    <glyph glyph-name="uni0122" unicode="&#x122;" horiz-adv-x="1759" 
d="M123 778q0 245 114.5 428.5t312 278t449.5 94.5q151 0 299 -30.5t234 -90.5l53 -368h-41l-110 294q-16 40 -36 56.5t-55 29.5q-177 54 -346 54q-118 0 -223.5 -25t-200 -81t-163 -138.5t-108.5 -205t-40 -273.5q0 -237 94 -411t260.5 -263.5t384.5 -89.5q278 0 451 108
v533h-487v63h608v-620q-117 -74 -270 -109t-314 -35q-250 0 -445 94t-308 277.5t-113 429.5zM866 -651l-20 28q184 161 184 287q0 86 -90 115q0 37 20.5 58.5t55.5 21.5q44 0 70 -30.5t26 -84.5q0 -187 -246 -395z" />
    <glyph glyph-name="uni0123" unicode="&#x123;" horiz-adv-x="1159" 
d="M561 338q-84 0 -151 24q-93 -24 -158.5 -65.5t-65.5 -97.5q0 -109 250 -109h238q84 0 148 -6.5t123 -23.5t96.5 -45t60 -74.5t22.5 -108.5q0 -90 -52 -161t-137.5 -112t-183.5 -62t-200 -21q-216 0 -347.5 77t-131.5 197q0 86 71.5 149.5t200.5 92.5q-117 10 -180.5 57
t-63.5 117q0 71 82.5 127.5t204.5 77.5q-105 42 -165 126.5t-60 198.5q0 158 114 257.5t285 99.5q130 0 227 -60l43 76h347l-45 -80h-336q77 -49 120.5 -124t43.5 -169q0 -156 -115 -257t-285 -101zM178 -240q0 -112 100 -177.5t281 -65.5q121 0 222 29.5t166 93t65 149.5
q0 106 -84.5 153.5t-270.5 47.5h-278q-201 -58 -201 -230zM561 375q128 0 205.5 87.5t77.5 233.5t-77.5 233t-205.5 87q-129 0 -207 -87t-78 -233t78 -233.5t207 -87.5zM707 1690l18 -29q-182 -159 -182 -287q0 -85 88 -114q1 -36 -19.5 -58t-56.5 -22q-43 0 -69.5 30.5
t-26.5 83.5q0 191 248 396z" />
    <glyph glyph-name="Hcircumflex" unicode="&#x124;" horiz-adv-x="1740" 
d="M238 0v1552h120v-708h1024v708h121v-1552h-121v780h-1024v-780h-120zM551 1720l311 283h17l311 -283h-41l-279 187l-278 -187h-41z" />
    <glyph glyph-name="hcircumflex" unicode="&#x125;" horiz-adv-x="1218" 
d="M303 0h-113v1597h113v-872q28 167 131.5 247.5t245.5 80.5q362 0 362 -426v-627h-112v606q0 375 -303 375q-138 0 -231 -96.5t-93 -280.5v-604zM-72 1765l312 283h16l311 -283h-41l-278 187l-279 -187h-41z" />
    <glyph glyph-name="Hbar" unicode="&#x126;" horiz-adv-x="1740" 
d="M238 0v1552h120v-708h1024v708h121v-1552h-121v780h-1024v-780h-120zM61 1151v61h1620v-61h-1620z" />
    <glyph glyph-name="hbar" unicode="&#x127;" horiz-adv-x="1218" 
d="M303 0h-113v1597h113v-872q28 167 131.5 247.5t245.5 80.5q362 0 362 -426v-627h-112v606q0 375 -303 375q-138 0 -231 -96.5t-93 -280.5v-604zM4 1288v49h596v-49h-596z" />
    <glyph glyph-name="Itilde" unicode="&#x128;" horiz-adv-x="595" 
d="M238 0v1552h120v-1552h-120zM463 1733q-41 0 -79.5 15.5t-69.5 37.5t-60.5 44.5t-62.5 38t-66 15.5q-109 0 -115 -135h-35q0 97 45 159t117 62q44 0 90.5 -24t80 -52.5t78.5 -52.5t87 -24q48 0 77.5 34t33.5 99h34q0 -106 -45 -161.5t-110 -55.5z" />
    <glyph glyph-name="itilde" unicode="&#x129;" horiz-adv-x="505" 
d="M197 0v1028h112v-1028h-112zM418 1290q-41 0 -79.5 16t-69.5 38.5t-60.5 45t-62.5 38.5t-66 16q-109 0 -115 -135h-35q0 97 45 159t117 62q36 0 72.5 -16t67 -38.5l61 -45t66 -38.5t69.5 -16q48 0 77.5 33.5t33.5 99.5h34q0 -106 -45 -162.5t-110 -56.5z" />
    <glyph glyph-name="Imacron" unicode="&#x12a;" horiz-adv-x="595" 
d="M238 0v1552h120v-1552h-120zM4 1819v59h586v-59h-586z" />
    <glyph glyph-name="imacron" unicode="&#x12b;" horiz-adv-x="505" 
d="M197 0v1028h112v-1028h-112zM-41 1368v55h586v-55h-586z" />
    <glyph glyph-name="Ibreve" unicode="&#x12c;" horiz-adv-x="595" 
d="M238 0v1552h120v-1552h-120zM297 1702q-45 0 -86.5 9.5t-82 32.5t-71.5 58t-53 89.5t-29 123.5h58q13 -131 83.5 -197.5t180.5 -66.5t180.5 66.5t83.5 197.5h57q-10 -86 -40.5 -149t-75.5 -97.5t-96 -50.5t-109 -16z" />
    <glyph glyph-name="ibreve" unicode="&#x12d;" horiz-adv-x="505" 
d="M197 0v1028h112v-1028h-112zM252 1237q-57 0 -108 16t-97.5 51t-77.5 98.5t-39 149.5h58q13 -131 83.5 -197.5t180.5 -66.5t180.5 66.5t83.5 197.5h57q-10 -87 -40.5 -150t-75.5 -98t-96 -51t-109 -16z" />
    <glyph glyph-name="Iogonek" unicode="&#x12e;" horiz-adv-x="595" 
d="M238 0v1552h120v-1552h-120zM238 -477q-85 0 -147 44.5t-62 115.5q0 41 29.5 89t78 92.5t89.5 76t83 59.5h33q-53 -46 -76.5 -67.5t-68.5 -68.5t-65.5 -87.5t-20.5 -77.5q0 -60 46 -93.5t115 -33.5q86 0 160 45l6 -31q-38 -26 -92.5 -44.5t-107.5 -18.5z" />
    <glyph glyph-name="iogonek" unicode="&#x12f;" horiz-adv-x="505" 
d="M197 0v1028h112v-1028h-112zM166 1489q0 35 25.5 60.5t60.5 25.5t61.5 -25.5t26.5 -60.5t-26.5 -61.5t-61.5 -26.5t-60.5 26.5t-25.5 61.5zM188 -477q-85 0 -145.5 44t-60.5 116q0 41 30 89t79.5 93t89.5 75.5t83 59.5h29q-117 -101 -160 -152q-72 -85 -72 -149
q0 -61 46.5 -95t115.5 -34q83 0 160 43l6 -27q-38 -26 -93 -44.5t-108 -18.5z" />
    <glyph glyph-name="Idotaccent" unicode="&#x130;" horiz-adv-x="595" 
d="M238 0v1552h120v-1552h-120zM297 1810q-35 0 -60.5 26.5t-25.5 61.5t25.5 61t60.5 26t61.5 -26t26.5 -61t-26.5 -61.5t-61.5 -26.5z" />
    <glyph glyph-name="dotlessi" unicode="&#x131;" horiz-adv-x="505" 
d="M197 0v1028h112v-1028h-112z" />
    <glyph glyph-name="Jcircumflex" unicode="&#x134;" horiz-adv-x="610" 
d="M-23 -285l-26 39q151 123 196 172q78 83 98 184q11 56 11 138v1304h121v-1286q0 -84 -9.5 -139.5t-39 -105t-68.5 -88t-113 -99.5q-54 -44 -170 -119zM-2 1720l311 283h17l311 -283h-41l-279 187l-278 -187h-41z" />
    <glyph glyph-name="jcircumflex" unicode="&#x135;" horiz-adv-x="516" 
d="M-31 -532l-20 28q46 38 69.5 57.5t55 50t46 50.5t33.5 52.5t26 62.5t15.5 73t10.5 92t2 113v981h112v-977q0 -136 -16.5 -216t-51.5 -133t-106 -110q-50 -40 -176 -124zM-68 1233l326 366h12l326 -366h-39l-293 260l-293 -260h-39z" />
    <glyph glyph-name="uni0136" unicode="&#x136;" horiz-adv-x="1531" 
d="M238 0v1552h120v-757l4 2l990 755h100l-948 -725l1048 -827h-182l-1012 788v-788h-120zM686 -651l-20 28q184 161 184 287q0 86 -90 115q0 37 20.5 58.5t55.5 21.5q44 0 70 -30.5t26 -84.5q0 -187 -246 -395z" />
    <glyph glyph-name="uni0137" unicode="&#x137;" horiz-adv-x="1118" 
d="M190 0v1597h113v-1034l639 465h90l-604 -438l705 -590h-154l-676 555v-555h-113zM473 -651l-20 28q184 161 184 287q0 86 -90 115q0 37 20.5 58.5t55.5 21.5q44 0 70 -30.5t26 -84.5q0 -187 -246 -395z" />
    <glyph glyph-name="Lacute" unicode="&#x139;" horiz-adv-x="1255" 
d="M238 0v1552h120v-1489h871v-63h-991zM225 1726l295 265h154v-4l-408 -261h-41z" />
    <glyph glyph-name="lacute" unicode="&#x13a;" horiz-adv-x="505" 
d="M197 0v1597h112v-1597h-112zM199 1802l221 338h127v-8l-311 -330h-37z" />
    <glyph glyph-name="uni013B" unicode="&#x13b;" horiz-adv-x="1255" 
d="M238 0v1552h120v-1489h871v-63h-991zM621 -651l-21 28q184 161 184 287q0 86 -90 115q0 37 20.5 58.5t55.5 21.5q44 0 70 -30.5t26 -84.5q0 -188 -245 -395z" />
    <glyph glyph-name="uni013C" unicode="&#x13c;" horiz-adv-x="505" 
d="M197 0v1597h112v-1597h-112zM98 -651l-20 28q184 161 184 287q0 86 -90 115q0 37 20.5 58.5t55.5 21.5q44 0 70 -30.5t26 -84.5q0 -187 -246 -395z" />
    <glyph glyph-name="Lcaron" unicode="&#x13d;" horiz-adv-x="1255" 
d="M238 0v1552h120v-1489h871v-63h-991zM578 1063l-21 27q184 164 184 288q0 86 -90 115q0 36 20.5 58t55.5 22q44 0 70 -32t26 -83q0 -188 -245 -395z" />
    <glyph glyph-name="lcaron" unicode="&#x13e;" horiz-adv-x="544" 
d="M197 0v1597h112v-1597h-112zM508 1108l-21 27q185 165 185 288q0 86 -90 115q0 36 20 58t55 22q44 0 70.5 -32t26.5 -83q0 -187 -246 -395z" />
    <glyph glyph-name="Ldot" unicode="&#x13f;" horiz-adv-x="1255" 
d="M238 0v1552h120v-1489h871v-63h-991zM952 754q-35 0 -60.5 26.5t-25.5 61.5t25.5 60.5t60.5 25.5t61.5 -25.5t26.5 -60.5t-26.5 -61.5t-61.5 -26.5z" />
    <glyph glyph-name="ldot" unicode="&#x140;" horiz-adv-x="643" 
d="M197 0v1597h112v-1597h-112zM571 760q-35 0 -60.5 26.5t-25.5 61.5t25.5 60.5t60.5 25.5t61.5 -25.5t26.5 -60.5t-26.5 -61.5t-61.5 -26.5z" />
    <glyph glyph-name="Lslash" unicode="&#x141;" horiz-adv-x="1255" 
d="M238 0v1552h120v-1489h871v-63h-991zM-45 547v74l690 464v-69z" />
    <glyph glyph-name="lslash" unicode="&#x142;" horiz-adv-x="587" 
d="M238 0v1597h112v-1597h-112zM23 635v59l540 346v-57z" />
    <glyph glyph-name="Nacute" unicode="&#x143;" horiz-adv-x="1738" 
d="M307 1552l1125 -1357v1357h71v-1552h-71l-1125 1366v-1366h-69v1552h69zM823 1726l295 265h154v-4l-408 -261h-41z" />
    <glyph glyph-name="nacute" unicode="&#x144;" horiz-adv-x="1218" 
d="M303 0h-113v1028h113v-303q28 167 131.5 247.5t245.5 80.5q362 0 362 -426v-627h-112v606q0 375 -303 375q-138 0 -231 -96.5t-93 -280.5v-604zM561 1233l221 338h127v-8l-311 -330h-37z" />
    <glyph glyph-name="uni0145" unicode="&#x145;" horiz-adv-x="1738" 
d="M307 1552l1125 -1357v1357h71v-1552h-71l-1125 1366v-1366h-69v1552h69zM743 -651l-20 28q184 161 184 287q0 86 -90 115q0 37 20.5 58.5t55.5 21.5q44 0 70 -30.5t26 -84.5q0 -187 -246 -395z" />
    <glyph glyph-name="uni0146" unicode="&#x146;" horiz-adv-x="1218" 
d="M303 0h-113v1028h113v-303q28 167 131.5 247.5t245.5 80.5q362 0 362 -426v-627h-112v606q0 375 -303 375q-138 0 -231 -96.5t-93 -280.5v-604zM465 -651l-21 28q185 162 185 287q0 86 -90 115q0 37 20 58.5t55 21.5q45 0 71 -30.5t26 -84.5q0 -187 -246 -395z" />
    <glyph glyph-name="Ncaron" unicode="&#x147;" horiz-adv-x="1738" 
d="M307 1552l1125 -1357v1357h71v-1552h-71l-1125 1366v-1366h-69v1552h69zM573 2003h41l279 -186l278 186h41l-311 -283h-16z" />
    <glyph glyph-name="ncaron" unicode="&#x148;" horiz-adv-x="1218" 
d="M303 0h-113v1028h113v-303q28 167 131.5 247.5t245.5 80.5q362 0 362 -426v-627h-112v606q0 375 -303 375q-138 0 -231 -96.5t-93 -280.5v-604zM285 1599h39l292 -260l293 260h39l-325 -366h-13z" />
    <glyph glyph-name="Eng" unicode="&#x14a;" horiz-adv-x="1738" 
d="M1151 -532l-18 28q120 101 157 144q70 81 89 197q12 73 12 188v22l-1084 1323v-1370h-69v1552h69l1125 -1362v1362h71v-1517q0 -127 -17.5 -206t-53.5 -130.5t-105 -106.5q-19 -16 -176 -124z" />
    <glyph glyph-name="eng" unicode="&#x14b;" horiz-adv-x="1218" 
d="M680 1053q362 0 362 -426v-596q0 -127 -16.5 -204.5t-52 -128.5t-105.5 -106q-19 -16 -176 -124l-18 28q118 99 156 143q68 80 87 198q13 79 13 210v559q0 375 -303 375q-138 0 -231 -96.5t-93 -280.5v-604h-113v1028h113v-303q28 167 131.5 247.5t245.5 80.5z" />
    <glyph glyph-name="Omacron" unicode="&#x14c;" horiz-adv-x="1863" 
d="M932 -23q-227 0 -412.5 103t-292 286.5t-106.5 411.5q0 229 106.5 413t292 286t412.5 102t412.5 -102t292 -286t106.5 -413q0 -228 -106.5 -411.5t-292 -286.5t-412.5 -103zM936 35q103 0 200.5 29.5t182 89.5t147.5 144.5t99.5 202.5t36.5 255q0 176 -54.5 323
t-147.5 243t-214.5 149t-257.5 53q-103 0 -200.5 -29.5t-182 -89.5t-147.5 -144.5t-99.5 -202.5t-36.5 -255q0 -176 54.5 -323t147.5 -243t214.5 -149t257.5 -53zM633 1819v59h586v-59h-586z" />
    <glyph glyph-name="omacron" unicode="&#x14d;" horiz-adv-x="1284" 
d="M643 -23q-143 0 -263.5 64.5t-195.5 189t-75 285.5q0 162 75 286t195.5 187.5t263.5 63.5q105 0 201 -37.5t170 -105t118 -170t44 -224.5q0 -121 -44 -223.5t-118 -171t-170 -106.5t-201 -38zM649 25q75 0 145.5 28.5t128.5 82.5t93 144t35 203q0 146 -57.5 267.5
t-152.5 189.5t-206 68q-75 0 -145 -28.5t-127.5 -83.5t-92 -145t-34.5 -202q0 -147 56.5 -268t151 -188.5t205.5 -67.5zM348 1368v55h586v-55h-586z" />
    <glyph glyph-name="Obreve" unicode="&#x14e;" horiz-adv-x="1863" 
d="M932 -23q-227 0 -412.5 103t-292 286.5t-106.5 411.5q0 229 106.5 413t292 286t412.5 102t412.5 -102t292 -286t106.5 -413q0 -228 -106.5 -411.5t-292 -286.5t-412.5 -103zM936 35q103 0 200.5 29.5t182 89.5t147.5 144.5t99.5 202.5t36.5 255q0 176 -54.5 323
t-147.5 243t-214.5 149t-257.5 53q-103 0 -200.5 -29.5t-182 -89.5t-147.5 -144.5t-99.5 -202.5t-36.5 -255q0 -176 54.5 -323t147.5 -243t214.5 -149t257.5 -53zM926 1702q-45 0 -86.5 9.5t-82 32.5t-71.5 58t-53 89.5t-29 123.5h58q13 -131 83.5 -197.5t180.5 -66.5
t180.5 66.5t83.5 197.5h57q-10 -86 -40.5 -149t-75.5 -97.5t-96 -50.5t-109 -16z" />
    <glyph glyph-name="obreve" unicode="&#x14f;" horiz-adv-x="1284" 
d="M643 -23q-143 0 -263.5 64.5t-195.5 189t-75 285.5q0 162 75 286t195.5 187.5t263.5 63.5q105 0 201 -37.5t170 -105t118 -170t44 -224.5q0 -121 -44 -223.5t-118 -171t-170 -106.5t-201 -38zM649 25q75 0 145.5 28.5t128.5 82.5t93 144t35 203q0 146 -57.5 267.5
t-152.5 189.5t-206 68q-75 0 -145 -28.5t-127.5 -83.5t-92 -145t-34.5 -202q0 -147 56.5 -268t151 -188.5t205.5 -67.5zM641 1237q-57 0 -108 16t-97.5 51t-77.5 98.5t-39 149.5h58q13 -131 83.5 -197.5t180.5 -66.5t180.5 66.5t83.5 197.5h58q-10 -87 -40.5 -150t-76 -98
t-96.5 -51t-109 -16z" />
    <glyph glyph-name="Ohungarumlaut" unicode="&#x150;" horiz-adv-x="1863" 
d="M932 -23q-227 0 -412.5 103t-292 286.5t-106.5 411.5q0 229 106.5 413t292 286t412.5 102t412.5 -102t292 -286t106.5 -413q0 -228 -106.5 -411.5t-292 -286.5t-412.5 -103zM936 35q103 0 200.5 29.5t182 89.5t147.5 144.5t99.5 202.5t36.5 255q0 176 -54.5 323
t-147.5 243t-214.5 149t-257.5 53q-103 0 -200.5 -29.5t-182 -89.5t-147.5 -144.5t-99.5 -202.5t-36.5 -255q0 -176 54.5 -323t147.5 -243t214.5 -149t257.5 -53zM690 1726l295 265h154v-4l-408 -261h-41zM1104 1726l297 265h155v-4l-407 -261h-45z" />
    <glyph glyph-name="ohungarumlaut" unicode="&#x151;" horiz-adv-x="1284" 
d="M643 -23q-143 0 -263.5 64.5t-195.5 189t-75 285.5q0 162 75 286t195.5 187.5t263.5 63.5q105 0 201 -37.5t170 -105t118 -170t44 -224.5q0 -121 -44 -223.5t-118 -171t-170 -106.5t-201 -38zM649 25q75 0 145.5 28.5t128.5 82.5t93 144t35 203q0 146 -57.5 267.5
t-152.5 189.5t-206 68q-75 0 -145 -28.5t-127.5 -83.5t-92 -145t-34.5 -202q0 -147 56.5 -268t151 -188.5t205.5 -67.5zM457 1233l219 338h127v-8l-311 -330h-35zM823 1233l221 338h127v-8l-311 -330h-37z" />
    <glyph glyph-name="OE" unicode="&#x152;" horiz-adv-x="2711" 
d="M932 -23q-227 0 -412.5 103t-292 286.5t-106.5 411.5q0 229 106.5 413t292 286t412.5 102q237 0 416.5 -112t275.5 -308v395h977v-65h-877v-645h762v-64h-762v-717h877v-61h-977v395q-96 -196 -275.5 -308t-416.5 -112zM928 1524q-103 0 -201 -29.5t-183.5 -89.5
t-149.5 -144.5t-101 -202.5t-37 -255q0 -176 55.5 -323t149.5 -243t216.5 -149t258.5 -53q103 0 201 29.5t183.5 89.5t149.5 144.5t101 202.5t37 255q0 176 -55.5 323t-149.5 243t-216.5 149t-258.5 53z" />
    <glyph glyph-name="oe" unicode="&#x153;" horiz-adv-x="2136" 
d="M637 -23q-142 0 -261 64.5t-193 189t-74 285.5q0 162 74 286t193 187.5t261 63.5q149 0 270.5 -78.5t184.5 -214.5q64 139 187.5 217t262.5 78q195 0 325.5 -113t162.5 -324h-873q-9 -112 15.5 -212t78 -178t142.5 -123.5t202 -45.5q67 0 127.5 14.5t118.5 47t101.5 93
t64.5 144.5h33q-44 -194 -172.5 -287.5t-311.5 -93.5q-162 0 -283.5 77t-182.5 214q-62 -135 -183 -213t-270 -78zM1540 1012q-134 0 -241.5 -91.5t-135.5 -252.5h733q-17 165 -112 254.5t-244 89.5zM236 549q0 -223 120 -373.5t289 -150.5q75 0 144 28.5t126 82.5t91 144
t34 203q0 222 -120 373.5t-289 151.5q-75 0 -144.5 -28.5t-126 -83.5t-90.5 -145t-34 -202z" />
    <glyph glyph-name="Racute" unicode="&#x154;" horiz-adv-x="1460" 
d="M358 0h-120v1552h372q110 0 196.5 -9t169 -34.5t136.5 -68t86.5 -112t32.5 -163.5q0 -82 -25.5 -146t-69 -106.5t-108.5 -72t-135.5 -44.5t-159.5 -22l748 -774h-160l-727 758h-236v-758zM358 817h230q93 0 164.5 8t138.5 30.5t110 59.5t69 97.5t26 142.5t-26 142.5
t-69.5 97.5t-110.5 59.5t-139 30.5t-165 8h-228v-676zM670 1726l295 265h153v-4l-407 -261h-41z" />
    <glyph glyph-name="racute" unicode="&#x155;" horiz-adv-x="753" 
d="M190 0v1028h113v-313q64 327 391 327h15v-108h-54q-184 0 -268 -87t-84 -235v-612h-113zM412 1233l221 338h127v-8l-311 -330h-37z" />
    <glyph glyph-name="uni0156" unicode="&#x156;" horiz-adv-x="1460" 
d="M358 0h-120v1552h372q110 0 196.5 -9t169 -34.5t136.5 -68t86.5 -112t32.5 -163.5q0 -82 -25.5 -146t-69 -106.5t-108.5 -72t-135.5 -44.5t-159.5 -22l748 -774h-160l-727 758h-236v-758zM358 817h230q93 0 164.5 8t138.5 30.5t110 59.5t69 97.5t26 142.5t-26 142.5
t-69.5 97.5t-110.5 59.5t-139 30.5t-165 8h-228v-676zM709 -651l-21 28q184 161 184 287q0 86 -90 115q0 37 20.5 58.5t55.5 21.5q44 0 70 -30.5t26 -84.5q0 -188 -245 -395z" />
    <glyph glyph-name="uni0157" unicode="&#x157;" horiz-adv-x="753" 
d="M190 0v1028h113v-313q64 327 391 327h15v-108h-54q-184 0 -268 -87t-84 -235v-612h-113zM90 -651l-20 28q184 161 184 287q0 86 -90 115q0 37 20.5 58.5t55.5 21.5q44 0 70 -30.5t26 -84.5q0 -187 -246 -395z" />
    <glyph glyph-name="Rcaron" unicode="&#x158;" horiz-adv-x="1460" 
d="M358 0h-120v1552h372q110 0 196.5 -9t169 -34.5t136.5 -68t86.5 -112t32.5 -163.5q0 -82 -25.5 -146t-69 -106.5t-108.5 -72t-135.5 -44.5t-159.5 -22l748 -774h-160l-727 758h-236v-758zM358 817h230q93 0 164.5 8t138.5 30.5t110 59.5t69 97.5t26 142.5t-26 142.5
t-69.5 97.5t-110.5 59.5t-139 30.5t-165 8h-228v-676zM420 2003h41l278 -186l279 186h41l-311 -283h-17z" />
    <glyph glyph-name="rcaron" unicode="&#x159;" horiz-adv-x="753" 
d="M190 0v1028h113v-313q64 327 391 327h15v-108h-54q-184 0 -268 -87t-84 -235v-612h-113zM133 1599h39l293 -260l293 260h39l-326 -366h-12z" />
    <glyph glyph-name="Sacute" unicode="&#x15a;" horiz-adv-x="1306" 
d="M651 -23q-281 0 -454 91l-68 405h41l121 -309q17 -40 35 -58t51 -30q111 -43 272 -43q185 0 302.5 91.5t117.5 237.5q0 65 -21 118t-54.5 91t-90 71t-112.5 55.5t-136 47.5l-108 35q-192 63 -289.5 162.5t-97.5 257.5q0 112 72.5 200t189 133.5t252.5 45.5q247 0 383 -72
l67 -372h-41l-120 282q-16 34 -36.5 51t-52.5 29q-86 27 -188 27q-81 0 -154 -18t-132 -52.5t-93.5 -91.5t-34.5 -129q0 -122 73 -196.5t239 -129.5l108 -35q94 -30 162 -58.5t133.5 -69t106 -87.5t65.5 -112t25 -144q0 -183 -151 -303.5t-382 -120.5zM584 1726l295 265h153
v-4l-407 -261h-41z" />
    <glyph glyph-name="sacute" unicode="&#x15b;" horiz-adv-x="995" 
d="M481 -23q-198 0 -325 74l-33 320h33l86 -252q3 -8 6 -14t5.5 -10.5t6.5 -9t6.5 -6.5t8 -5.5t8 -5t9 -5t9.5 -4.5q64 -34 193 -34q120 0 203 59t83 162q0 96 -64 146t-190 77l-96 20q-285 64 -285 287q0 121 105.5 199t267.5 78q180 0 287 -72l29 -289h-33l-80 219
q-11 30 -21.5 44t-33.5 24q-49 29 -166 29t-187.5 -56t-70.5 -143q0 -162 227 -211l94 -20q160 -37 240 -107.5t80 -189.5q0 -136 -116 -220t-286 -84zM432 1233l221 338h127v-8l-311 -330h-37z" />
    <glyph glyph-name="Scircumflex" unicode="&#x15c;" horiz-adv-x="1306" 
d="M651 -23q-281 0 -454 91l-68 405h41l121 -309q17 -40 35 -58t51 -30q111 -43 272 -43q185 0 302.5 91.5t117.5 237.5q0 65 -21 118t-54.5 91t-90 71t-112.5 55.5t-136 47.5l-108 35q-192 63 -289.5 162.5t-97.5 257.5q0 112 72.5 200t189 133.5t252.5 45.5q247 0 383 -72
l67 -372h-41l-120 282q-16 34 -36.5 51t-52.5 29q-86 27 -188 27q-81 0 -154 -18t-132 -52.5t-93.5 -91.5t-34.5 -129q0 -122 73 -196.5t239 -129.5l108 -35q94 -30 162 -58.5t133.5 -69t106 -87.5t65.5 -112t25 -144q0 -183 -151 -303.5t-382 -120.5zM334 1720l311 283h17
l311 -283h-41l-279 187l-278 -187h-41z" />
    <glyph glyph-name="scircumflex" unicode="&#x15d;" horiz-adv-x="995" 
d="M481 -23q-198 0 -325 74l-33 320h33l86 -252q3 -8 6 -14t5.5 -10.5t6.5 -9t6.5 -6.5t8 -5.5t8 -5t9 -5t9.5 -4.5q64 -34 193 -34q120 0 203 59t83 162q0 96 -64 146t-190 77l-96 20q-285 64 -285 287q0 121 105.5 199t267.5 78q180 0 287 -72l29 -289h-33l-80 219
q-11 30 -21.5 44t-33.5 24q-49 29 -166 29t-187.5 -56t-70.5 -143q0 -162 227 -211l94 -20q160 -37 240 -107.5t80 -189.5q0 -136 -116 -220t-286 -84zM156 1233l325 366h13l325 -366h-39l-293 260l-292 -260h-39z" />
    <glyph glyph-name="Scedilla" unicode="&#x15e;" horiz-adv-x="1306" 
d="M651 -23q-281 0 -454 91l-68 405h41l121 -309q17 -40 35 -58t51 -30q111 -43 272 -43q185 0 302.5 91.5t117.5 237.5q0 65 -21 118t-54.5 91t-90 71t-112.5 55.5t-136 47.5l-108 35q-192 63 -289.5 162.5t-97.5 257.5q0 112 72.5 200t189 133.5t252.5 45.5q247 0 383 -72
l67 -372h-41l-120 282q-16 34 -36.5 51t-52.5 29q-86 27 -188 27q-81 0 -154 -18t-132 -52.5t-93.5 -91.5t-34.5 -129q0 -122 73 -196.5t239 -129.5l108 -35q94 -30 162 -58.5t133.5 -69t106 -87.5t65.5 -112t25 -144q0 -183 -151 -303.5t-382 -120.5zM596 -520
q-75 0 -130.5 36t-55.5 87q0 19 16 28t39 4q1 -58 45 -90t100 -32q58 0 95.5 26t37.5 70q0 17 -7 32t-26.5 31t-34.5 27t-50.5 28.5t-53 26t-63.5 29.5l215 217h49l-178 -178q109 -53 156 -93.5t47 -97.5q0 -67 -55.5 -109t-145.5 -42z" />
    <glyph glyph-name="scedilla" unicode="&#x15f;" horiz-adv-x="995" 
d="M481 -23q-198 0 -325 74l-33 320h33l86 -252q3 -8 6 -14t5.5 -10.5t6.5 -9t6.5 -6.5t8 -5.5t8 -5t9 -5t9.5 -4.5q64 -34 193 -34q120 0 203 59t83 162q0 96 -64 146t-190 77l-96 20q-285 64 -285 287q0 121 105.5 199t267.5 78q180 0 287 -72l29 -289h-33l-80 219
q-11 30 -21.5 44t-33.5 24q-49 29 -166 29t-187.5 -56t-70.5 -143q0 -162 227 -211l94 -20q160 -37 240 -107.5t80 -189.5q0 -136 -116 -220t-286 -84zM428 -516q-75 0 -130.5 36t-55.5 85q0 19 16 29t39 4q1 -58 45 -89.5t100 -31.5q59 0 96 25t37 71q0 17 -7 32t-26.5 31
t-34.5 27t-50.5 28.5t-53 26t-63.5 29.5l215 217h49l-178 -178q107 -52 155 -94t48 -99q0 -64 -56 -106.5t-145 -42.5z" />
    <glyph glyph-name="Scaron" unicode="&#x160;" horiz-adv-x="1306" 
d="M651 -23q-281 0 -454 91l-68 405h41l121 -309q17 -40 35 -58t51 -30q111 -43 272 -43q185 0 302.5 91.5t117.5 237.5q0 65 -21 118t-54.5 91t-90 71t-112.5 55.5t-136 47.5l-108 35q-192 63 -289.5 162.5t-97.5 257.5q0 112 72.5 200t189 133.5t252.5 45.5q247 0 383 -72
l67 -372h-41l-120 282q-16 34 -36.5 51t-52.5 29q-86 27 -188 27q-81 0 -154 -18t-132 -52.5t-93.5 -91.5t-34.5 -129q0 -122 73 -196.5t239 -129.5l108 -35q94 -30 162 -58.5t133.5 -69t106 -87.5t65.5 -112t25 -144q0 -183 -151 -303.5t-382 -120.5zM334 2003h41l278 -186
l279 186h41l-311 -283h-17z" />
    <glyph glyph-name="scaron" unicode="&#x161;" horiz-adv-x="995" 
d="M481 -23q-198 0 -325 74l-33 320h33l86 -252q3 -8 6 -14t5.5 -10.5t6.5 -9t6.5 -6.5t8 -5.5t8 -5t9 -5t9.5 -4.5q64 -34 193 -34q120 0 203 59t83 162q0 96 -64 146t-190 77l-96 20q-285 64 -285 287q0 121 105.5 199t267.5 78q180 0 287 -72l29 -289h-33l-80 219
q-11 30 -21.5 44t-33.5 24q-49 29 -166 29t-187.5 -56t-70.5 -143q0 -162 227 -211l94 -20q160 -37 240 -107.5t80 -189.5q0 -136 -116 -220t-286 -84zM156 1599h39l292 -260l293 260h39l-325 -366h-13z" />
    <glyph glyph-name="uni0162" unicode="&#x162;" horiz-adv-x="1390" 
d="M635 0v1489h-617v63h1354v-63h-614v-1489h-123zM537 -651l-21 28q184 161 184 287q0 86 -90 115q0 37 20.5 58.5t55.5 21.5q44 0 70 -30.5t26 -84.5q0 -188 -245 -395z" />
    <glyph glyph-name="uni0163" unicode="&#x163;" horiz-adv-x="815" 
d="M492 -23q-107 0 -161.5 44t-54.5 163v779h-249v65h249v229l113 50v-279h410v-65h-410v-779q0 -88 43.5 -118.5t128.5 -30.5q77 0 176 18v-43q-174 -33 -245 -33zM262 -651l-20 28q184 161 184 287q0 86 -90 115q0 37 20.5 58.5t55.5 21.5q44 0 70 -30.5t26 -84.5
q0 -187 -246 -395z" />
    <glyph glyph-name="Tcaron" unicode="&#x164;" horiz-adv-x="1390" 
d="M635 0v1489h-617v63h1354v-63h-614v-1489h-123zM375 2003h41l278 -186l279 186h41l-312 -283h-16z" />
    <glyph glyph-name="tcaron" unicode="&#x165;" horiz-adv-x="815" 
d="M492 -23q-107 0 -161.5 44t-54.5 163v779h-249v65h249v229l113 50v-279h410v-65h-410v-779q0 -88 43.5 -118.5t128.5 -30.5q77 0 176 18v-43q-174 -33 -245 -33zM563 1135l-20 26q184 164 184 289q0 86 -90 115q0 36 20.5 58t55.5 22q44 0 70 -32t26 -83
q0 -187 -246 -395z" />
    <glyph glyph-name="Tbar" unicode="&#x166;" horiz-adv-x="1390" 
d="M635 0v1489h-617v63h1354v-63h-614v-1489h-123zM215 784v62h963v-62h-963z" />
    <glyph glyph-name="tbar" unicode="&#x167;" horiz-adv-x="897" 
d="M532 -23q-107 0 -161 44t-54 163v779h-249v65h249v229l113 50v-279h410v-65h-410v-779q0 -88 43.5 -118.5t128.5 -30.5q77 0 176 18v-43q-174 -33 -246 -33zM68 709v49h772v-49h-772z" />
    <glyph glyph-name="Utilde" unicode="&#x168;" horiz-adv-x="1689" 
d="M840 -23q-623 0 -623 621v954h121v-948q0 -279 127.5 -421t402.5 -142q535 0 535 575v936h70v-946q0 -629 -633 -629zM1026 1733q-41 0 -79.5 15.5t-69.5 37.5t-60.5 44.5t-62.5 38t-66 15.5q-109 0 -115 -135h-34q0 97 44.5 159t116.5 62q44 0 90.5 -24t80 -52.5
t78.5 -52.5t87 -24q48 0 77.5 34t33.5 99h35q0 -106 -45.5 -161.5t-110.5 -55.5z" />
    <glyph glyph-name="utilde" unicode="&#x169;" horiz-adv-x="1208" 
d="M905 1028h113v-1028h-113v307q-28 -170 -129 -250t-241 -80q-359 0 -359 429v622h111v-604q0 -196 77 -285.5t224 -89.5q136 0 226.5 97t90.5 280v602zM762 1290q-41 0 -79.5 16t-69.5 38.5t-60.5 45t-62.5 38.5t-66 16q-109 0 -115 -135h-35q0 97 45 159t117 62
q36 0 72.5 -16t67 -38.5l61 -45t66 -38.5t69.5 -16q48 0 77.5 33.5t33.5 99.5h35q0 -106 -45.5 -162.5t-110.5 -56.5z" />
    <glyph glyph-name="Umacron" unicode="&#x16a;" horiz-adv-x="1689" 
d="M840 -23q-623 0 -623 621v954h121v-948q0 -279 127.5 -421t402.5 -142q535 0 535 575v936h70v-946q0 -629 -633 -629zM567 1819v59h586v-59h-586z" />
    <glyph glyph-name="umacron" unicode="&#x16b;" horiz-adv-x="1208" 
d="M905 1028h113v-1028h-113v307q-28 -170 -129 -250t-241 -80q-359 0 -359 429v622h111v-604q0 -196 77 -285.5t224 -89.5q136 0 226.5 97t90.5 280v602zM303 1368v55h586v-55h-586z" />
    <glyph glyph-name="Ubreve" unicode="&#x16c;" horiz-adv-x="1689" 
d="M840 -23q-623 0 -623 621v954h121v-948q0 -279 127.5 -421t402.5 -142q535 0 535 575v936h70v-946q0 -629 -633 -629zM860 1702q-57 0 -108 16t-97 50.5t-77 97.5t-39 149h57q13 -131 83.5 -197.5t180.5 -66.5t180.5 66.5t83.5 197.5h58q-10 -86 -40.5 -149t-76 -97.5
t-96.5 -50.5t-109 -16z" />
    <glyph glyph-name="ubreve" unicode="&#x16d;" horiz-adv-x="1208" 
d="M905 1028h113v-1028h-113v307q-28 -170 -129 -250t-241 -80q-359 0 -359 429v622h111v-604q0 -196 77 -285.5t224 -89.5q136 0 226.5 97t90.5 280v602zM596 1237q-57 0 -108 16t-97.5 51t-77.5 98.5t-39 149.5h58q13 -131 83.5 -197.5t180.5 -66.5t180.5 66.5t83.5 197.5
h58q-10 -87 -40.5 -150t-76 -98t-96.5 -51t-109 -16z" />
    <glyph glyph-name="Uring" unicode="&#x16e;" horiz-adv-x="1689" 
d="M840 -23q-623 0 -623 621v954h121v-948q0 -279 127.5 -421t402.5 -142q535 0 535 575v936h70v-946q0 -629 -633 -629zM860 1708q-93 0 -158 62.5t-65 152.5q0 91 65 153t158 62q94 0 159.5 -61.5t65.5 -153.5q0 -90 -65.5 -152.5t-159.5 -62.5zM860 1757q72 0 120 47
t48 119t-48 119t-120 47t-120 -47t-48 -119t48 -119t120 -47z" />
    <glyph glyph-name="uring" unicode="&#x16f;" horiz-adv-x="1208" 
d="M905 1028h113v-1028h-113v307q-28 -170 -129 -250t-241 -80q-359 0 -359 429v622h111v-604q0 -196 77 -285.5t224 -89.5q136 0 226.5 97t90.5 280v602zM596 1198q-93 0 -158 62t-65 153q0 90 65 152.5t158 62.5q94 0 159.5 -62.5t65.5 -152.5q0 -92 -65.5 -153.5
t-159.5 -61.5zM596 1247q72 0 120 47t48 119t-48 119t-120 47t-120 -47t-48 -119t48 -119t120 -47z" />
    <glyph glyph-name="Uhungarumlaut" unicode="&#x170;" horiz-adv-x="1689" 
d="M840 -23q-623 0 -623 621v954h121v-948q0 -279 127.5 -421t402.5 -142q535 0 535 575v936h70v-946q0 -629 -633 -629zM623 1726l295 265h153v-4l-407 -261h-41zM1036 1726l297 265h156v-4l-408 -261h-45z" />
    <glyph glyph-name="uhungarumlaut" unicode="&#x171;" horiz-adv-x="1208" 
d="M905 1028h113v-1028h-113v307q-28 -170 -129 -250t-241 -80q-359 0 -359 429v622h111v-604q0 -196 77 -285.5t224 -89.5q136 0 226.5 97t90.5 280v602zM414 1233l219 338h127v-8l-311 -330h-35zM780 1233l221 338h127v-8l-311 -330h-37z" />
    <glyph glyph-name="Uogonek" unicode="&#x172;" horiz-adv-x="1689" 
d="M840 -23q-623 0 -623 621v954h121v-948q0 -279 127.5 -421t402.5 -142q535 0 535 575v936h70v-946q0 -553 -490 -618q-209 -173 -209 -289q0 -60 46 -93.5t116 -33.5q88 0 158 45l8 -31q-94 -63 -201 -63q-85 0 -147 44.5t-62 115.5q0 37 25 81t66 85t81.5 74t81.5 61
q-58 -7 -106 -7z" />
    <glyph glyph-name="uogonek" unicode="&#x173;" horiz-adv-x="1208" 
d="M905 1028h113v-1028h-113v307q-28 -170 -129 -250t-241 -80q-359 0 -359 429v622h111v-604q0 -196 77 -285.5t224 -89.5q136 0 226.5 97t90.5 280v602zM893 -477q-85 0 -146 44t-61 116q0 127 283 317h28q-53 -46 -76.5 -67.5t-68.5 -68.5t-65.5 -87.5t-20.5 -77.5
q0 -61 46.5 -95t115.5 -34q82 0 159 43l7 -27q-38 -26 -93 -44.5t-108 -18.5z" />
    <glyph glyph-name="Wcircumflex" unicode="&#x174;" horiz-adv-x="2273" 
d="M578 -20l-525 1572h129l459 -1386l483 1386h70l483 -1388l465 1388h78l-526 -1572h-76l-485 1382l-482 -1382h-73zM840 1720l311 283h16l312 -283h-41l-279 187l-278 -187h-41z" />
    <glyph glyph-name="wcircumflex" unicode="&#x175;" horiz-adv-x="1781" 
d="M166 1028l354 -889l379 889h41l381 -891l354 891h64l-418 -1042h-55l-377 870l-371 -870h-59l-418 1042h125zM584 1233l325 366h13l325 -366h-39l-293 260l-292 -260h-39z" />
    <glyph glyph-name="Ycircumflex" unicode="&#x176;" horiz-adv-x="1548" 
d="M836 700v-700h-123v700l-658 852h144l604 -782l604 782h86zM467 1720l311 283h17l311 -283h-41l-279 187l-278 -187h-41z" />
    <glyph glyph-name="ycircumflex" unicode="&#x177;" horiz-adv-x="1132" 
d="M279 -508l251 512l-491 1024h125l428 -895l440 895h68l-754 -1536h-67zM258 1233l326 366h12l326 -366h-39l-293 260l-293 -260h-39z" />
    <glyph glyph-name="Ydieresis" unicode="&#x178;" horiz-adv-x="1548" 
d="M836 700v-700h-123v700l-658 852h144l604 -782l604 782h86zM537 1810q-35 0 -60.5 26.5t-25.5 61.5t25.5 61t60.5 26t60.5 -26t25.5 -61t-25.5 -61.5t-60.5 -26.5zM1036 1810q-35 0 -60.5 26.5t-25.5 61.5t25.5 61t60.5 26t60.5 -26t25.5 -61t-25.5 -61.5t-60.5 -26.5z
" />
    <glyph glyph-name="Zacute" unicode="&#x179;" horiz-adv-x="1368" 
d="M29 0v57l1116 1432h-1000v63h1141v-59l-1116 -1430h1133v-63h-1274zM616 1726l295 265h154v-4l-408 -261h-41z" />
    <glyph glyph-name="zacute" unicode="&#x17a;" horiz-adv-x="1034" 
d="M59 0v47l744 916h-688v65h831v-47l-741 -915h747v-66h-893zM498 1233l221 338h127v-8l-311 -330h-37z" />
    <glyph glyph-name="Zdotaccent" unicode="&#x17b;" horiz-adv-x="1368" 
d="M29 0v57l1116 1432h-1000v63h1141v-59l-1116 -1430h1133v-63h-1274zM686 1810q-35 0 -60.5 26.5t-25.5 61.5t25.5 61t60.5 26t61.5 -26t26.5 -61t-26.5 -61.5t-61.5 -26.5z" />
    <glyph glyph-name="zdotaccent" unicode="&#x17c;" horiz-adv-x="1034" 
d="M59 0v47l744 916h-688v65h831v-47l-741 -915h747v-66h-893zM551 1362q-35 0 -60.5 26.5t-25.5 61.5t25.5 60.5t60.5 25.5t61.5 -25.5t26.5 -60.5t-26.5 -61.5t-61.5 -26.5z" />
    <glyph glyph-name="Zcaron" unicode="&#x17d;" horiz-adv-x="1368" 
d="M29 0v57l1116 1432h-1000v63h1141v-59l-1116 -1430h1133v-63h-1274zM367 2003h41l278 -186l279 186h41l-312 -283h-16z" />
    <glyph glyph-name="zcaron" unicode="&#x17e;" horiz-adv-x="1034" 
d="M59 0v47l744 916h-688v65h831v-47l-741 -915h747v-66h-893zM219 1599h39l293 -260l293 260h39l-326 -366h-12z" />
    <glyph glyph-name="uni018F" unicode="&#x18f;" horiz-adv-x="1744" 
d="M850 -20q-287 0 -489 160t-246 433h1364q14 66 14 156q0 169 -52.5 313t-144 243t-217 154.5t-268.5 55.5q-258 0 -435.5 -143.5t-213.5 -403.5h-56q32 290 236 461.5t512 171.5q169 0 312 -58.5t242.5 -163.5t155.5 -254t56 -325q0 -173 -56 -321.5t-156.5 -254
t-244 -165t-313.5 -59.5zM850 37q145 0 270.5 56t216 164t125.5 253h-1206q53 -222 214.5 -347.5t379.5 -125.5z" />
    <glyph glyph-name="uni0218" unicode="&#x218;" horiz-adv-x="1306" 
d="M651 -23q-281 0 -454 91l-68 405h41l121 -309q17 -40 35 -58t51 -30q111 -43 272 -43q185 0 302.5 91.5t117.5 237.5q0 65 -21 118t-54.5 91t-90 71t-112.5 55.5t-136 47.5l-108 35q-192 63 -289.5 162.5t-97.5 257.5q0 112 72.5 200t189 133.5t252.5 45.5q247 0 383 -72
l67 -372h-41l-120 282q-16 34 -36.5 51t-52.5 29q-86 27 -188 27q-81 0 -154 -18t-132 -52.5t-93.5 -91.5t-34.5 -129q0 -122 73 -196.5t239 -129.5l108 -35q94 -30 162 -58.5t133.5 -69t106 -87.5t65.5 -112t25 -144q0 -183 -151 -303.5t-382 -120.5zM549 -651l-21 28
q185 162 185 287q0 86 -90 115q0 37 20 58.5t55 21.5q45 0 71 -30.5t26 -84.5q0 -187 -246 -395z" />
    <glyph glyph-name="uni0219" unicode="&#x219;" horiz-adv-x="995" 
d="M481 -23q-198 0 -325 74l-33 320h33l86 -252q3 -8 6 -14t5.5 -10.5t6.5 -9t6.5 -6.5t8 -5.5t8 -5t9 -5t9.5 -4.5q64 -34 193 -34q120 0 203 59t83 162q0 96 -64 146t-190 77l-96 20q-285 64 -285 287q0 121 105.5 199t267.5 78q180 0 287 -72l29 -289h-33l-80 219
q-11 30 -21.5 44t-33.5 24q-49 29 -166 29t-187.5 -56t-70.5 -143q0 -162 227 -211l94 -20q160 -37 240 -107.5t80 -189.5q0 -136 -116 -220t-286 -84zM369 -651l-21 28q184 161 184 287q0 86 -90 115q0 37 20.5 58.5t55.5 21.5q44 0 70 -30.5t26 -84.5q0 -188 -245 -395z
" />
    <glyph glyph-name="uni021A" unicode="&#x21a;" horiz-adv-x="1390" 
d="M635 0v1489h-617v63h1354v-63h-614v-1489h-123zM537 -651l-21 28q184 161 184 287q0 86 -90 115q0 37 20.5 58.5t55.5 21.5q44 0 70 -30.5t26 -84.5q0 -188 -245 -395z" />
    <glyph glyph-name="uni021B" unicode="&#x21b;" horiz-adv-x="815" 
d="M492 -23q-107 0 -161.5 44t-54.5 163v779h-249v65h249v229l113 50v-279h410v-65h-410v-779q0 -88 43.5 -118.5t128.5 -30.5q77 0 176 18v-43q-174 -33 -245 -33zM262 -651l-20 28q184 161 184 287q0 86 -90 115q0 37 20.5 58.5t55.5 21.5q44 0 70 -30.5t26 -84.5
q0 -187 -246 -395z" />
    <glyph glyph-name="uni0232" unicode="&#x232;" horiz-adv-x="1548" 
d="M836 700v-700h-123v700l-658 852h144l604 -782l604 782h86zM494 1819v59h585v-59h-585z" />
    <glyph glyph-name="uni0233" unicode="&#x233;" horiz-adv-x="1132" 
d="M279 -508l251 512l-491 1024h125l428 -895l440 895h68l-754 -1536h-67zM297 1368v55h586v-55h-586z" />
    <glyph glyph-name="uni0237" unicode="&#x237;" horiz-adv-x="516" 
d="M-31 -532l-20 28q46 38 69.5 57.5t55 50t46 50.5t33.5 52.5t26 62.5t15.5 73t10.5 92t2 113v981h112v-977q0 -136 -16.5 -216t-51.5 -133t-106 -110q-50 -40 -176 -124z" />
    <glyph glyph-name="uni0259" unicode="&#x259;" horiz-adv-x="1210" 
d="M584 1055q228 0 372 -150t144 -387q0 -124 -43.5 -227.5t-115.5 -170.5t-161 -103.5t-182 -36.5q-193 0 -324 113t-163 321h870q2 18 2 59q0 226 -121 366t-319 140q-68 0 -128.5 -15.5t-118 -49t-101 -95.5t-64.5 -147h-35q42 192 173.5 287.5t314.5 95.5zM600 20
q135 0 240 91t133 251h-729q17 -167 111.5 -254.5t244.5 -87.5z" />
    <glyph glyph-name="uni02BB" unicode="&#x2bb;" horiz-adv-x="501" 
d="M389 1591l25 -35q-189 -166 -189 -303q0 -84 94 -118q1 -41 -26.5 -67t-65.5 -26q-44 0 -73 34t-29 95q0 90 62 200t202 220z" />
    <glyph glyph-name="uni02BC" unicode="&#x2bc;" horiz-adv-x="505" 
d="M143 1042l-24 35q188 165 188 303q0 85 -94 119q-1 41 26 66.5t66 25.5q45 0 74 -34t29 -95q0 -90 -62.5 -199.5t-202.5 -220.5z" />
    <glyph glyph-name="circumflex" unicode="&#x2c6;" 
d="M-332 1233l326 366h12l326 -366h-39l-293 260l-293 -260h-39z" />
    <glyph glyph-name="caron" unicode="&#x2c7;" 
d="M-332 1599h39l293 -260l293 260h39l-326 -366h-12z" />
    <glyph glyph-name="breve" unicode="&#x2d8;" 
d="M-322 1237q-57 0 -108 16t-97 51t-77 98.5t-39 149.5h57q13 -131 83.5 -197.5t180.5 -66.5t181 66.5t84 197.5h57q-10 -87 -40.5 -150t-76 -98t-96.5 -51t-109 -16z" />
    <glyph glyph-name="dotaccent" unicode="&#x2d9;" 
d="M-86 1362q-35 0 -60.5 26.5t-25.5 61.5t25.5 60.5t60.5 25.5t61.5 -25.5t26.5 -60.5t-26.5 -61.5t-61.5 -26.5z" />
    <glyph glyph-name="ring" unicode="&#x2da;" 
d="M-223 1198q-93 0 -158 62t-65 153q0 90 65 152.5t158 62.5q94 0 159.5 -62.5t65.5 -152.5q0 -92 -65.5 -153.5t-159.5 -61.5zM-223 1247q72 0 120 47t48 119t-48 119t-120 47t-120 -47t-48 -119t48 -119t120 -47z" />
    <glyph glyph-name="ogonek" unicode="&#x2db;" 
d="M-2 -477q-85 0 -146 44t-61 116q0 127 283 317h28q-53 -46 -76.5 -67.5t-68.5 -68.5t-65.5 -87.5t-20.5 -77.5q0 -61 46.5 -95t115.5 -34q83 0 160 43l6 -27q-38 -26 -93 -44.5t-108 -18.5z" />
    <glyph glyph-name="tilde" unicode="&#x2dc;" 
d="M166 1290q-41 0 -79.5 16t-69.5 38.5t-60.5 45t-62.5 38.5t-66 16q-109 0 -115 -135h-35q0 97 45 159t117 62q36 0 72.5 -16t67 -38.5l61 -45t66 -38.5t69.5 -16q48 0 77.5 33.5t33.5 99.5h35q0 -106 -45.5 -162.5t-110.5 -56.5z" />
    <glyph glyph-name="hungarumlaut" unicode="&#x2dd;" 
d="M-360 1233l219 338h127v-8l-312 -330h-34zM6 1233l221 338h127v-8l-311 -330h-37z" />
    <glyph glyph-name="uni0401" unicode="&#x401;" horiz-adv-x="1345" 
d="M238 0v1552h999v-63h-879v-645h762v-64h-762v-717h879v-63h-999zM522 1810q-35 0 -60.5 26.5t-25.5 61.5t25.5 61t60.5 26t60.5 -26t25.5 -61t-25.5 -61.5t-60.5 -26.5zM1022 1810q-35 0 -60.5 26.5t-25.5 61.5t25.5 61t60.5 26t60.5 -26t25.5 -61t-25.5 -61.5
t-60.5 -26.5z" />
    <glyph glyph-name="uni0402" unicode="&#x402;" horiz-adv-x="1740" 
d="M690 0h-121v1489h-549v63h1317v-63h-647v-688q171 139 447 139q249 0 362.5 -113.5t118.5 -347.5v-213q0 -84 -10 -139.5t-40 -105t-68.5 -88t-113.5 -99.5q-59 -47 -169 -119l-27 37q149 125 189 165q81 84 103 180q15 61 15 153v223q0 215 -101.5 310.5t-310.5 95.5
q-117 0 -225.5 -40t-169.5 -102v-737z" />
    <glyph glyph-name="uni0403" unicode="&#x403;" horiz-adv-x="1259" 
d="M358 1489v-1489h-120v1552h946v-63h-826zM692 1726l295 265h154v-4l-408 -261h-41z" />
    <glyph glyph-name="uni0404" unicode="&#x404;" horiz-adv-x="1699" 
d="M123 778q0 245 114.5 428.5t312 278t449.5 94.5q151 0 299 -30.5t234 -90.5l53 -368h-41l-110 294q-16 40 -36 56.5t-55 29.5q-177 54 -346 54q-114 0 -217.5 -23.5t-196.5 -76.5t-162 -130.5t-111.5 -193t-47.5 -256.5h877v-64h-877q3 -229 98.5 -399.5t261 -259
t379.5 -88.5q104 0 197.5 15.5t149.5 37.5q35 12 54.5 29t35.5 57l110 295h41l-53 -369q-86 -60 -233.5 -90.5t-298.5 -30.5q-258 0 -456 94t-311.5 277t-113.5 430z" />
    <glyph glyph-name="uni0405" unicode="&#x405;" horiz-adv-x="1306" 
d="M651 -23q-281 0 -454 91l-68 405h41l121 -309q17 -40 35 -58t51 -30q111 -43 272 -43q185 0 302.5 91.5t117.5 237.5q0 65 -21 118t-54.5 91t-90 71t-112.5 55.5t-136 47.5l-108 35q-192 63 -289.5 162.5t-97.5 257.5q0 112 72.5 200t189 133.5t252.5 45.5q247 0 383 -72
l67 -372h-41l-120 282q-16 34 -36.5 51t-52.5 29q-86 27 -188 27q-81 0 -154 -18t-132 -52.5t-93.5 -91.5t-34.5 -129q0 -122 73 -196.5t239 -129.5l108 -35q94 -30 162 -58.5t133.5 -69t106 -87.5t65.5 -112t25 -144q0 -183 -151 -303.5t-382 -120.5z" />
    <glyph glyph-name="uni0406" unicode="&#x406;" horiz-adv-x="595" 
d="M238 0v1552h120v-1552h-120z" />
    <glyph glyph-name="uni0407" unicode="&#x407;" horiz-adv-x="595" 
d="M238 0v1552h120v-1552h-120zM47 1810q-35 0 -60.5 26.5t-25.5 61.5t25.5 61t60.5 26t60.5 -26t25.5 -61t-25.5 -61.5t-60.5 -26.5zM547 1810q-35 0 -60.5 26.5t-25.5 61.5t25.5 61t60.5 26t60.5 -26t25.5 -61t-25.5 -61.5t-60.5 -26.5z" />
    <glyph glyph-name="uni0408" unicode="&#x408;" horiz-adv-x="610" 
d="M-23 -285l-26 39q151 123 196 172q78 83 98 184q11 56 11 138v1304h121v-1286q0 -84 -9.5 -139.5t-39 -105t-68.5 -88t-113 -99.5q-54 -44 -170 -119z" />
    <glyph glyph-name="uni0409" unicode="&#x409;" horiz-adv-x="2289" 
d="M1233 883h326q338 0 499.5 -111t161.5 -311q0 -461 -661 -461h-447v1489h-649q0 -620 -42 -928t-134 -446q-86 -138 -164 -138q-30 0 -48 15t-18 43q0 6 1 12t4 11.5t6 10t9 10.5t10 9.5t14 10.5t15.5 10.5t18 12t19.5 13.5q62 42 103.5 110t69 166.5t42 258.5t20.5 352
t6 481v49h838v-669zM1233 63h280q301 0 436.5 95t135.5 286q0 375 -574 375h-278v-756z" />
    <glyph glyph-name="uni040A" unicode="&#x40a;" horiz-adv-x="2375" 
d="M358 0h-120v1552h120v-688h846v688h121v-688h320q659 0 659 -409q0 -455 -659 -455h-441v801h-846v-801zM1325 63h272q302 0 437 92.5t135 282.5q0 178 -136.5 270.5t-437.5 92.5h-270v-738z" />
    <glyph glyph-name="uni040B" unicode="&#x40b;" horiz-adv-x="1763" 
d="M690 0h-121v1489h-549v63h1317v-63h-647v-688q171 139 447 139q250 0 365.5 -114.5t115.5 -346.5v-479h-123v473q0 215 -100.5 310.5t-309.5 95.5q-117 0 -225.5 -40t-169.5 -102v-737z" />
    <glyph glyph-name="uni040C" unicode="&#x40c;" horiz-adv-x="1531" 
d="M238 0v1552h120v-757l4 2l990 755h100l-948 -725l1048 -827h-182l-1012 788v-788h-120zM766 1726l295 265h153v-4l-407 -261h-41z" />
    <glyph glyph-name="uni040E" unicode="&#x40e;" horiz-adv-x="1456" 
d="M1444 1552l-696 -1282q-85 -158 -143 -225.5t-116 -67.5q-28 0 -45.5 19t-17.5 45q0 25 18.5 43.5t65.5 46.5q62 35 115 92t110 160l-696 1169h133l625 -1052l571 1052h76zM791 1710q-176 0 -261.5 84.5t-85.5 226.5h99q0 -135 71 -205.5t177 -70.5q109 0 174 69.5
t65 206.5h98q0 -151 -88.5 -231t-248.5 -80z" />
    <glyph glyph-name="uni040F" unicode="&#x40f;" horiz-adv-x="1656" 
d="M813 -319l-49 294q-4 17 -9.5 21t-23.5 4h-493v1552h120v-1489h940v1489h121v-1552h-487q-18 0 -23.5 -4t-9.5 -21l-49 -294h-37z" />
    <glyph glyph-name="uni0410" unicode="&#x410;" horiz-adv-x="1540" 
d="M1372 0l-266 612h-725l-264 -612h-76l678 1573h102l682 -1573h-131zM408 676h671l-336 774z" />
    <glyph glyph-name="uni0411" unicode="&#x411;" horiz-adv-x="1484" 
d="M1278 1489h-907v-617h370q180 0 308.5 -31t202 -89t106.5 -132.5t33 -170.5q0 -99 -33.5 -177.5t-107 -141t-202.5 -96.5t-307 -34h-491v1552h1028v-63zM371 59h358q524 0 524 390q0 85 -25 148.5t-83.5 113.5t-163 76t-254.5 26h-356v-754z" />
    <glyph glyph-name="uni0412" unicode="&#x412;" horiz-adv-x="1497" 
d="M737 0h-499v1552h452q105 0 188.5 -9.5t160.5 -33.5t128 -63.5t81 -102.5t30 -147q0 -155 -114.5 -254t-297.5 -117v-2q112 -2 203.5 -25t162.5 -67.5t110.5 -118t39.5 -170.5q0 -208 -156.5 -325t-488.5 -117zM358 846h381q178 0 294 88t116 244q0 88 -34 150
t-99.5 97.5t-150 51.5t-195.5 16h-312v-647zM358 59h340q284 0 416.5 95t132.5 284q0 181 -131.5 267t-374.5 86h-383v-732z" />
    <glyph glyph-name="uni0413" unicode="&#x413;" horiz-adv-x="1245" 
d="M358 1489v-1489h-120v1552h946v-63h-826z" />
    <glyph glyph-name="uni0414" unicode="&#x414;" horiz-adv-x="1609" 
d="M1380 0h-1183q-26 0 -35 -25l-92 -307h-37l16 395h152q94 210 144 549t50 891v49h930v-1489h201l16 -395h-37l-92 307q-9 25 -33 25zM1204 1489h-737q0 -544 -54 -897t-137 -529h928v1426z" />
    <glyph glyph-name="uni0415" unicode="&#x415;" horiz-adv-x="1345" 
d="M238 0v1552h999v-63h-879v-645h762v-64h-762v-717h879v-63h-999z" />
    <glyph glyph-name="uni0416" unicode="&#x416;" horiz-adv-x="2242" 
d="M160 0h-174l934 823l-848 729h108l877 -755l4 -2v757h121v-755l880 755h101l-844 -727l938 -825h-176l-899 786v-786h-121v786z" />
    <glyph glyph-name="uni0417" unicode="&#x417;" horiz-adv-x="1386" 
d="M625 33q253 0 381.5 102.5t128.5 294.5q0 185 -127.5 273t-362.5 88h-207v55h203q178 0 290.5 89t112.5 251q0 72 -20.5 129t-57.5 95.5t-89.5 64.5t-114 37.5t-133.5 11.5q-170 0 -246 -43q-30 -15 -49 -60l-123 -286h-41l68 372q58 33 166.5 52.5t240.5 19.5
q90 0 166 -11.5t144.5 -38.5t116 -69.5t75 -107.5t27.5 -148q0 -158 -113.5 -259.5t-292.5 -119.5v-2q109 -2 198 -25.5t158.5 -69t107.5 -121t38 -175.5q0 -204 -161 -329.5t-472 -125.5q-278 0 -447 91l-67 405h41l125 -319q19 -49 61 -70q41 -23 117 -37t158 -14z" />
    <glyph glyph-name="uni0418" unicode="&#x418;" horiz-adv-x="1759" 
d="M358 0h-120v1552h120v-1439l1043 1439h121v-1552h-121v1440z" />
    <glyph glyph-name="uni0419" unicode="&#x419;" horiz-adv-x="1759" 
d="M358 0h-120v1552h120v-1439l1043 1439h121v-1552h-121v1440zM891 1710q-176 0 -261 84.5t-85 226.5h98q0 -135 71 -205.5t177 -70.5q109 0 174 69.5t65 206.5h99q0 -151 -89 -231t-249 -80z" />
    <glyph glyph-name="uni041A" unicode="&#x41a;" horiz-adv-x="1531" 
d="M238 0v1552h120v-757l4 2l990 755h100l-948 -725l1048 -827h-182l-1012 788v-788h-120z" />
    <glyph glyph-name="uni041B" unicode="&#x41b;" horiz-adv-x="1546" 
d="M57 35q0 6 1 12t4 11.5t6 10t9 10.5t10 9.5t14 10.5t15.5 10.5t18 12t19.5 13.5q62 42 103.5 110t69 166.5t42 258.5t20.5 352t6 481v49h916v-1552h-121v1489h-727q0 -620 -42 -928t-134 -446q-86 -138 -164 -138q-30 0 -48 15t-18 43z" />
    <glyph glyph-name="uni041C" unicode="&#x41c;" horiz-adv-x="2037" 
d="M307 1403v-1403h-69v1552h114l666 -1075l672 1075h110v-1552h-121v1403l-661 -1059h-51z" />
    <glyph glyph-name="uni041D" unicode="&#x41d;" horiz-adv-x="1740" 
d="M238 0v1552h120v-708h1024v708h121v-1552h-121v780h-1024v-780h-120z" />
    <glyph glyph-name="uni041E" unicode="&#x41e;" horiz-adv-x="1875" 
d="M932 -23q-227 0 -412.5 103t-292 286.5t-106.5 411.5q0 229 106.5 413t292 286t412.5 102t412.5 -102t292 -286t106.5 -413q0 -228 -106.5 -411.5t-292 -286.5t-412.5 -103zM936 35q103 0 200.5 29.5t182 89.5t147.5 144.5t99.5 202.5t36.5 255q0 176 -54.5 323
t-147.5 243t-214.5 149t-257.5 53q-103 0 -200.5 -29.5t-182 -89.5t-147.5 -144.5t-99.5 -202.5t-36.5 -255q0 -176 54.5 -323t147.5 -243t214.5 -149t257.5 -53z" />
    <glyph glyph-name="uni041F" unicode="&#x41f;" horiz-adv-x="1683" 
d="M238 1552h1210v-1552h-123v1489h-967v-1489h-120v1552z" />
    <glyph glyph-name="uni0420" unicode="&#x420;" horiz-adv-x="1431" 
d="M358 0h-120v1552h491q109 0 195.5 -9.5t171 -36.5t140 -71t90 -118t34.5 -174t-34 -174.5t-90.5 -120.5t-140 -74t-171 -38.5t-195.5 -10.5h-371v-725zM358 1493v-707h355q92 0 164 9t139.5 32.5t111.5 62t70.5 102t26.5 147.5q0 85 -26.5 148.5t-70.5 102t-111.5 62.5
t-139.5 32.5t-164 8.5h-355z" />
    <glyph glyph-name="uni0421" unicode="&#x421;" horiz-adv-x="1699" 
d="M123 778q0 245 114.5 428.5t312 278t449.5 94.5q151 0 299 -30.5t234 -90.5l53 -368h-41l-110 294q-16 40 -36 56.5t-55 29.5q-177 54 -346 54q-118 0 -223.5 -25t-200 -81t-163 -138.5t-108.5 -205t-40 -273.5q0 -236 94 -411t260.5 -266t384.5 -91q104 0 197.5 15.5
t149.5 37.5q35 12 54.5 29t35.5 57l110 295h41l-53 -369q-86 -60 -233.5 -90.5t-298.5 -30.5q-258 0 -456 94t-311.5 277t-113.5 430z" />
    <glyph glyph-name="uni0422" unicode="&#x422;" horiz-adv-x="1390" 
d="M635 0v1489h-617v63h1354v-63h-614v-1489h-123z" />
    <glyph glyph-name="uni0423" unicode="&#x423;" horiz-adv-x="1456" 
d="M1444 1552l-696 -1282q-85 -158 -143 -225.5t-116 -67.5q-28 0 -45.5 19t-17.5 45q0 25 18.5 43.5t65.5 46.5q62 35 115 92t110 160l-696 1169h133l625 -1052l571 1052h76z" />
    <glyph glyph-name="uni0424" unicode="&#x424;" horiz-adv-x="1945" 
d="M913 -41v193q-243 8 -424 79t-284 208t-103 325q0 152 59 273t166.5 200.5t255.5 123.5t330 50v186h121v-188q179 -6 327 -48.5t255.5 -118t167 -189.5t59.5 -256q0 -151 -59.5 -271.5t-167.5 -199t-255 -122.5t-327 -50v-195h-121zM238 795q0 -121 35.5 -218t96 -161.5
t147.5 -109t184.5 -65.5t211.5 -26v1135q-109 -3 -203 -21t-182.5 -59t-151.5 -102.5t-100.5 -156.5t-37.5 -216zM1708 766q0 120 -36 217t-97.5 162t-148.5 109.5t-184 66.5t-208 27v-1135q106 3 199 21t182 59t152.5 102t102 156t38.5 215z" />
    <glyph glyph-name="uni0425" unicode="&#x425;" horiz-adv-x="1470" 
d="M0 0l676 807l-594 745h149l521 -653l548 653h86l-591 -706l673 -846h-149l-600 754l-633 -754h-86z" />
    <glyph glyph-name="uni0426" unicode="&#x426;" horiz-adv-x="1732" 
d="M1505 0h-1267v1552h120v-1489h969v1489h121v-1489h201l16 -395h-37l-90 307q-9 25 -33 25z" />
    <glyph glyph-name="uni0427" unicode="&#x427;" horiz-adv-x="1554" 
d="M160 1176v376h121v-376q0 -83 16 -149.5t41.5 -111t66 -76.5t80.5 -50t95.5 -28t100.5 -13t105 -3q146 0 289 27q44 6 121 27v753h121v-1552h-121v741q-81 -19 -135 -28q-154 -27 -289 -27q-71 0 -129.5 4.5t-123.5 17.5t-115.5 35t-97.5 59.5t-78 88t-49.5 123
t-18.5 162.5z" />
    <glyph glyph-name="uni0428" unicode="&#x428;" horiz-adv-x="2209" 
d="M1972 0h-1734v1552h120v-1489h686v1489h121v-1489h686v1489h121v-1552z" />
    <glyph glyph-name="uni0429" unicode="&#x429;" horiz-adv-x="2256" 
d="M2030 0h-1792v1552h120v-1489h686v1489h121v-1489h686v1489h121v-1489h201l16 -395h-37l-90 307q-9 25 -32 25z" />
    <glyph glyph-name="uni042A" unicode="&#x42a;" horiz-adv-x="1607" 
d="M557 883h320q338 0 499.5 -111t161.5 -311q0 -461 -661 -461h-441v1489h-416v63h537v-669zM557 63h274q301 0 436.5 95t135.5 286q0 375 -574 375h-272v-756z" />
    <glyph glyph-name="uni042B" unicode="&#x42b;" horiz-adv-x="1935" 
d="M358 883h320q338 0 499.5 -111t161.5 -311q0 -461 -661 -461h-440v1552h120v-669zM358 63h273q304 0 437.5 94.5t133.5 286.5q0 181 -136 278t-437 97h-271v-756zM1579 0v1552h121v-1552h-121z" />
    <glyph glyph-name="uni042C" unicode="&#x42c;" horiz-adv-x="1409" 
d="M358 883h320q338 0 499.5 -111t161.5 -311q0 -461 -661 -461h-440v1552h120v-669zM358 63h273q304 0 437.5 94.5t133.5 286.5q0 181 -136 278t-437 97h-271v-756z" />
    <glyph glyph-name="uni042D" unicode="&#x42d;" horiz-adv-x="1699" 
d="M1577 778q0 -247 -113.5 -430t-311.5 -277t-456 -94q-149 0 -299 30.5t-233 90.5l-53 369h41l110 -295q16 -40 35.5 -57t54.5 -29q56 -22 149 -37.5t197 -15.5q213 0 378 87t261 255.5t101 396.5h-895v64h895q-5 144 -47 260.5t-110.5 195.5t-161.5 132t-197 76.5
t-220 23.5q-169 0 -346 -54q-35 -12 -54.5 -29t-35.5 -57l-110 -294h-41l53 368q83 60 233 90.5t299 30.5q252 0 449.5 -94.5t312.5 -278t115 -428.5z" />
    <glyph glyph-name="uni042E" unicode="&#x42e;" horiz-adv-x="2332" 
d="M238 0v1552h120v-708h269q12 160 76.5 297t167 233t242.5 150.5t298 54.5q166 0 312 -60t251 -165t165.5 -254.5t60.5 -321.5q0 -171 -60.5 -320t-165 -254.5t-251 -166t-312.5 -60.5q-223 0 -402.5 103t-281.5 286.5t-102 411.5v2h-267v-780h-120zM1417 35
q99 0 192.5 29.5t175 89.5t142.5 144.5t96 202.5t35 255q0 176 -52 323t-141.5 243t-207.5 149t-250 53q-127 0 -241.5 -47.5t-204 -135.5t-142.5 -227t-53 -309q0 -177 52 -324t141.5 -243.5t207.5 -149.5t250 -53z" />
    <glyph glyph-name="uni042F" unicode="&#x42f;" horiz-adv-x="1456" 
d="M201 0h-150l662 733q-498 41 -498 412q0 94 32.5 165.5t88 117t137.5 74t172 39.5t201 11h373v-1552h-121v719h-250zM1098 778v715h-240q-91 0 -164.5 -10t-139 -35t-109.5 -65t-69.5 -103t-25.5 -145t25.5 -144t69.5 -102t109.5 -65.5t139 -35.5t164.5 -10h240z" />
    <glyph glyph-name="uni0430" unicode="&#x430;" horiz-adv-x="1138" 
d="M436 -23q-146 0 -241 79.5t-95 197.5q0 45 16 84.5t40.5 69.5t65.5 56t80.5 44t96 33.5t101.5 25t108 18t103.5 13t99.5 10.5v68q0 168 -64 252t-202 84q-134 0 -211 -70q-57 -51 -43 -190q1 -29 -16.5 -46.5t-47.5 -17.5q-28 0 -45.5 18t-17.5 52q0 55 27 107.5
t75.5 94.5t123 67.5t161.5 25.5q185 0 278.5 -92t92.5 -291l-2 -508q0 -67 19 -96t62 -29q72 0 115 78l23 -13q-55 -122 -181 -122q-68 0 -106.5 43t-38.5 131v112q-35 -151 -134 -220t-243 -69zM483 35q63 0 119.5 19.5t104 59.5t76 110t28.5 161v188q-66 -9 -109.5 -15.5
t-104 -17.5t-100.5 -23t-87 -29t-77 -38t-56.5 -48t-39 -61t-12.5 -75q0 -96 72 -163.5t186 -67.5z" />
    <glyph glyph-name="uni0431" unicode="&#x431;" horiz-adv-x="1275" 
d="M1165 504q0 -230 -151.5 -378.5t-380.5 -148.5q-83 0 -158 21t-142.5 68t-116.5 116.5t-78 172.5t-29 229q0 297 75.5 491.5t219 295t366.5 128.5q182 22 235.5 38.5t53.5 61.5h26q0 -100 -62 -143t-241 -63q-218 -25 -307 -54t-147 -96q-48 -60 -72.5 -159.5
t-24.5 -272.5q66 108 183 164.5t233 56.5q226 0 372 -146t146 -382zM639 25q123 0 215 60t139 160t47 224q0 241 -111.5 371.5t-314.5 130.5q-105 0 -213.5 -47t-169.5 -138v-190q0 -140 34 -251.5t91.5 -180t129.5 -104t153 -35.5z" />
    <glyph glyph-name="uni0432" unicode="&#x432;" horiz-adv-x="1134" 
d="M535 0h-345v1028h353q405 0 405 -237q0 -96 -69 -164t-209 -86v-2q172 -7 263 -75.5t91 -172.5q0 -291 -489 -291zM532 981h-229v-426h256q264 0 264 211q0 215 -291 215zM303 510v-463h229q196 0 281.5 58t85.5 178q0 104 -84 165.5t-256 61.5h-256z" />
    <glyph glyph-name="uni0433" unicode="&#x433;" horiz-adv-x="872" 
d="M834 977h-531v-977h-113v1028h644v-51z" />
    <glyph glyph-name="uni0434" unicode="&#x434;" horiz-adv-x="1173" 
d="M129 -27l-82 -254h-33l17 332h123q139 301 139 928v49h631v-977h163l17 -332h-31l-82 254q-9 27 -43 27h-776q-34 0 -43 -27zM811 51v926h-455q-12 -655 -139 -926h594z" />
    <glyph glyph-name="uni0435" unicode="&#x435;" horiz-adv-x="1208" 
d="M627 -23q-228 0 -372 150t-144 387q0 124 43.5 228t115 170.5t160.5 103.5t182 37q193 0 324.5 -113.5t163.5 -321.5h-871q-2 -18 -2 -59q0 -226 121.5 -366t319.5 -140q68 0 128.5 15.5t117.5 49t100.5 95.5t64.5 147h35q-29 -130 -101.5 -217.5t-169.5 -126.5t-216 -39
zM610 1012q-134 0 -239 -91t-133 -251h729q-17 167 -112 254.5t-245 87.5z" />
    <glyph glyph-name="uni0436" unicode="&#x436;" horiz-adv-x="1622" 
d="M139 0h-153l647 567l-578 461h97l604 -483v483h112v-483l605 483h90l-578 -459l649 -569h-151l-615 532v-532h-112v532z" />
    <glyph glyph-name="uni0437" unicode="&#x437;" horiz-adv-x="1056" 
d="M541 -23q-101 0 -186.5 24.5t-136.5 61.5t-79 77t-28 75q0 64 63 64q31 0 47 -20t29 -64q18 -73 87 -125t204 -52q147 0 224 66t77 188q0 110 -80 173t-246 63h-154v49h154q262 0 262 221q0 119 -69 174.5t-187 55.5q-93 0 -157 -21q-29 -12 -45.5 -27t-28.5 -49
l-80 -219h-33l29 289q52 35 140.5 53.5t187.5 18.5q103 0 183.5 -24.5t132.5 -83t52 -144.5q0 -99 -68.5 -170.5t-207.5 -89.5v-2q165 -7 252.5 -79t87.5 -181q0 -141 -107.5 -221.5t-318.5 -80.5z" />
    <glyph glyph-name="uni0438" unicode="&#x438;" horiz-adv-x="1216" 
d="M190 0v1028h113v-922l610 922h113v-1028h-113v922l-610 -922h-113z" />
    <glyph glyph-name="uni0439" unicode="&#x439;" horiz-adv-x="1216" 
d="M190 0v1028h113v-922l610 922h113v-1028h-113v922l-610 -922h-113zM612 1262q-177 0 -262.5 84.5t-85.5 226.5h98q0 -134 71 -204.5t179 -70.5q109 0 175.5 69.5t66.5 205.5h98q0 -151 -89.5 -231t-250.5 -80z" />
    <glyph glyph-name="uni043A" unicode="&#x43a;" horiz-adv-x="1103" 
d="M961 0l-658 532v-532h-113v1028h113v-483l647 483h90l-616 -459l692 -569h-155z" />
    <glyph glyph-name="uni043B" unicode="&#x43b;" horiz-adv-x="1136" 
d="M946 0h-112v977h-459q0 -374 -26.5 -591.5t-102.5 -328.5q-54 -80 -117 -80q-27 0 -44 16t-17 44q0 25 15.5 40t53.5 34q67 34 105 117.5t55.5 249.5t17.5 450v100h631v-1028z" />
    <glyph glyph-name="uni043C" unicode="&#x43c;" horiz-adv-x="1411" 
d="M252 0h-62v1028h111l414 -661l399 661h107v-1028h-113v897l-399 -657h-41l-416 659v-899z" />
    <glyph glyph-name="uni043D" unicode="&#x43d;" horiz-adv-x="1196" 
d="M190 0v1028h113v-469h590v469h113v-1028h-113v508h-590v-508h-113z" />
    <glyph glyph-name="uni043E" unicode="&#x43e;" horiz-adv-x="1284" 
d="M643 -23q-143 0 -263.5 64.5t-195.5 189t-75 285.5q0 162 75 286t195.5 187.5t263.5 63.5q105 0 201 -37.5t170 -105t118 -170t44 -224.5q0 -121 -44 -223.5t-118 -171t-170 -106.5t-201 -38zM649 25q75 0 145.5 28.5t128.5 82.5t93 144t35 203q0 146 -57.5 267.5
t-152.5 189.5t-206 68q-75 0 -145 -28.5t-127.5 -83.5t-92 -145t-34.5 -202q0 -147 56.5 -268t151 -188.5t205.5 -67.5z" />
    <glyph glyph-name="uni043F" unicode="&#x43f;" horiz-adv-x="1175" 
d="M872 977h-569v-977h-113v1028h795v-1028h-113v977z" />
    <glyph glyph-name="uni0440" unicode="&#x440;" horiz-adv-x="1265" 
d="M190 -508v1536h113v-160q51 86 146 135.5t208 49.5q221 0 359.5 -152.5t138.5 -384.5q0 -153 -61.5 -275.5t-175.5 -193t-261 -70.5q-116 0 -210.5 49.5t-143.5 135.5v-670h-113zM303 852v-674q61 -74 144 -107.5t167 -33.5q187 0 300.5 136t113.5 343q0 205 -113.5 341
t-300.5 136q-84 0 -167 -33.5t-144 -107.5z" />
    <glyph glyph-name="uni0441" unicode="&#x441;" horiz-adv-x="1177" 
d="M627 -23q-228 0 -372 150t-144 387q0 125 42 228t114 170.5t167.5 104t202.5 36.5q95 0 176 -24t130.5 -60.5t76.5 -76.5t27 -75q0 -30 -15.5 -47.5t-44.5 -17.5q-32 0 -50 18.5t-30 65.5q-10 32 -27.5 59.5t-49 55.5t-84 44.5t-121.5 16.5q-82 0 -154 -30.5
t-126.5 -86.5t-86 -143t-31.5 -193q0 -226 121.5 -366t317.5 -140q67 0 128 16t117.5 51t99.5 97.5t64 147.5h33q-44 -196 -173 -292t-308 -96z" />
    <glyph glyph-name="uni0442" unicode="&#x442;" horiz-adv-x="964" 
d="M426 977h-401v51h915v-51h-401v-977h-113v977z" />
    <glyph glyph-name="uni0443" unicode="&#x443;" horiz-adv-x="1132" 
d="M279 -508l251 512l-491 1024h125l428 -895l440 895h68l-754 -1536h-67z" />
    <glyph glyph-name="uni0444" unicode="&#x444;" horiz-adv-x="1523" 
d="M817 -508h-112v485q-122 2 -230.5 39.5t-191 104t-131 166t-48.5 217.5q0 124 49 228.5t132 174t191.5 108t228.5 38.5v544h112v-544q164 0 300 -63.5t219 -185.5t83 -278q0 -123 -49 -227.5t-132 -174t-192 -108.5t-229 -39v-485zM705 25v983q-73 0 -141 -18t-129 -56.5
t-107 -93t-72.5 -132.5t-26.5 -171q0 -141 63.5 -257.5t172.5 -184t240 -70.5zM1292 494q0 214 -139 361.5t-336 152.5v-983q92 0 175 29t151 85t108.5 148t40.5 207z" />
    <glyph glyph-name="uni0445" unicode="&#x445;" horiz-adv-x="1107" 
d="M111 0h-72l463 512l-434 516h137l368 -438l396 438h73l-434 -479l461 -549h-137l-395 471z" />
    <glyph glyph-name="uni0446" unicode="&#x446;" horiz-adv-x="1232" 
d="M1010 0h-820v1028h113v-977h569v977h113v-977h164l16 -332h-30l-82 254q-9 27 -43 27z" />
    <glyph glyph-name="uni0447" unicode="&#x447;" horiz-adv-x="1112" 
d="M131 784v244h113v-244q0 -95 18 -157.5t58 -96t91.5 -46.5t129.5 -13q154 0 268 39v518h113v-1028h-113v463q-138 -45 -287 -45q-76 0 -131 8t-106.5 31.5t-83.5 63.5t-51 106t-19 157z" />
    <glyph glyph-name="uni0448" unicode="&#x448;" horiz-adv-x="1689" 
d="M303 51h485v977h113v-977h485v977h113v-1028h-1309v1028h113v-977z" />
    <glyph glyph-name="uni0449" unicode="&#x449;" horiz-adv-x="1748" 
d="M1524 0h-1334v1028h113v-977h485v977h113v-977h485v977h113v-977h164l16 -332h-30l-82 254q-9 27 -43 27z" />
    <glyph glyph-name="uni044A" unicode="&#x44a;" horiz-adv-x="1169" 
d="M346 977h-287v51h400v-416h157q258 0 375 -74.5t117 -215.5q0 -147 -117 -234.5t-373 -87.5h-272v977zM459 561v-510h153q193 0 281 62.5t88 193.5q0 127 -88.5 190.5t-280.5 63.5h-153z" />
    <glyph glyph-name="uni044B" unicode="&#x44b;" horiz-adv-x="1433" 
d="M190 1028h113v-416h158q258 0 374.5 -74.5t116.5 -215.5q0 -148 -116 -235t-371 -87h-275v1028zM303 561v-510h154q193 0 281.5 62.5t88.5 193.5q0 127 -89 190.5t-281 63.5h-154zM1130 0v1028h113v-1028h-113z" />
    <glyph glyph-name="uni044C" unicode="&#x44c;" horiz-adv-x="1013" 
d="M190 1028h113v-416h158q258 0 374.5 -74.5t116.5 -215.5q0 -148 -116 -235t-371 -87h-275v1028zM303 561v-510h154q193 0 281.5 62.5t88.5 193.5q0 127 -89 190.5t-281 63.5h-154z" />
    <glyph glyph-name="uni044D" unicode="&#x44d;" horiz-adv-x="1179" 
d="M535 -23q-96 0 -177.5 24t-131.5 60.5t-77.5 76.5t-27.5 75q0 30 15 48t44 18q32 0 50 -18.5t30 -65.5q8 -31 26 -59.5t49.5 -56.5t85 -44.5t122.5 -16.5q188 0 298.5 126.5t110.5 336.5v27h-532v51h528q-21 198 -139 323.5t-297 125.5q-96 0 -152 -21q-19 -8 -24 -10.5
t-17.5 -11.5t-20 -21.5t-13.5 -32.5l-80 -219h-33l29 289q107 72 315 72q111 0 204 -31.5t156.5 -84.5t107.5 -123t64.5 -145.5t20.5 -154.5q0 -242 -150 -389.5t-384 -147.5z" />
    <glyph glyph-name="uni044E" unicode="&#x44e;" horiz-adv-x="1642" 
d="M190 0v1028h113v-469h207q6 112 50.5 206t115 156.5t159.5 97t185 34.5q102 0 194.5 -37.5t163.5 -105t113.5 -170t42.5 -224.5q0 -121 -42.5 -223.5t-113.5 -171t-164 -106.5t-194 -38q-136 0 -252 64t-188 187t-72 280h-205v-508h-113zM1028 25q71 0 137.5 28.5
t121.5 82.5t88.5 144t33.5 203q0 110 -32 208t-85.5 167t-126 109.5t-151.5 40.5q-72 0 -138 -28.5t-120.5 -83.5t-87.5 -145t-33 -202q0 -222 116 -373t277 -151z" />
    <glyph glyph-name="uni044F" unicode="&#x44f;" horiz-adv-x="1087" 
d="M49 0l416 461q-60 4 -114.5 22t-100.5 50t-73 83.5t-27 114.5q0 81 34 139.5t96.5 92.5t142 49.5t179.5 15.5h295v-1028h-113v451h-186l-405 -451h-144zM784 981h-159q-351 0 -351 -250q0 -231 359 -231h151v481z" />
    <glyph glyph-name="uni0451" unicode="&#x451;" horiz-adv-x="1208" 
d="M627 -23q-228 0 -372 150t-144 387q0 124 43.5 228t115 170.5t160.5 103.5t182 37q193 0 324.5 -113.5t163.5 -321.5h-871q-2 -18 -2 -59q0 -226 121.5 -366t319.5 -140q68 0 128.5 15.5t117.5 49t100.5 95.5t64.5 147h35q-29 -130 -101.5 -217.5t-169.5 -126.5t-216 -39
zM610 1012q-134 0 -239 -91t-133 -251h729q-17 167 -112 254.5t-245 87.5zM373 1362q-35 0 -60.5 26.5t-25.5 61.5t25.5 60.5t60.5 25.5t61.5 -25.5t26.5 -60.5t-26.5 -61.5t-61.5 -26.5zM854 1362q-35 0 -60.5 26.5t-25.5 61.5t25.5 60.5t60.5 25.5t61.5 -25.5t26.5 -60.5
t-26.5 -61.5t-61.5 -26.5z" />
    <glyph glyph-name="uni0452" unicode="&#x452;" horiz-adv-x="1218" 
d="M930 47v559q0 375 -303 375q-138 0 -231 -96.5t-93 -280.5v-604h-113v1288h-186v49h186v260h113v-260h297v-49h-297v-563q28 167 131.5 247.5t245.5 80.5q362 0 362 -426v-576q0 -136 -16.5 -216t-51.5 -133t-106 -110q-25 -20 -92 -66t-84 -58l-20 28q40 33 56.5 47
t46.5 41t41 40.5t32 39.5t28 43.5t20 47t16.5 56.5t9 64.5t7 79t1.5 92.5z" />
    <glyph glyph-name="uni0453" unicode="&#x453;" horiz-adv-x="872" 
d="M834 977h-531v-977h-113v1028h644v-51zM487 1233l222 338h127v-8l-312 -330h-37z" />
    <glyph glyph-name="uni0454" unicode="&#x454;" horiz-adv-x="1179" 
d="M627 -23q-228 0 -372 150t-144 387q0 125 42 228t114 170.5t167.5 104t202.5 36.5q95 0 176 -24t130.5 -60.5t76.5 -76.5t27 -75q0 -30 -15.5 -47.5t-44.5 -17.5q-32 0 -50 18.5t-30 65.5q-10 32 -27.5 59.5t-49 55.5t-84 44.5t-121.5 16.5q-170 0 -284 -120.5
t-114 -328.5h496v-49h-496q12 -210 131 -335.5t308 -125.5q67 0 128 16t117.5 51t99.5 97.5t64 147.5h33q-44 -196 -173 -292t-308 -96z" />
    <glyph glyph-name="uni0455" unicode="&#x455;" horiz-adv-x="995" 
d="M481 -23q-198 0 -325 74l-33 320h33l86 -252q3 -8 6 -14t5.5 -10.5t6.5 -9t6.5 -6.5t8 -5.5t8 -5t9 -5t9.5 -4.5q64 -34 193 -34q120 0 203 59t83 162q0 96 -64 146t-190 77l-96 20q-285 64 -285 287q0 121 105.5 199t267.5 78q180 0 287 -72l29 -289h-33l-80 219
q-11 30 -21.5 44t-33.5 24q-49 29 -166 29t-187.5 -56t-70.5 -143q0 -162 227 -211l94 -20q160 -37 240 -107.5t80 -189.5q0 -136 -116 -220t-286 -84z" />
    <glyph glyph-name="uni0456" unicode="&#x456;" horiz-adv-x="505" 
d="M197 0v1028h112v-1028h-112zM166 1489q0 35 25.5 60.5t60.5 25.5t61.5 -25.5t26.5 -60.5t-26.5 -61.5t-61.5 -26.5t-60.5 26.5t-25.5 61.5z" />
    <glyph glyph-name="uni0457" unicode="&#x457;" horiz-adv-x="530" 
d="M123 1401q-35 0 -60.5 26.5t-25.5 61.5t25.5 60.5t60.5 25.5t61.5 -25.5t26.5 -60.5t-26.5 -61.5t-61.5 -26.5zM403 1401q-35 0 -60.5 26.5t-25.5 61.5t25.5 60.5t60.5 25.5q36 0 62.5 -25.5t26.5 -60.5t-27 -61.5t-62 -26.5zM197 0v1028h112v-1028h-112z" />
    <glyph glyph-name="uni0458" unicode="&#x458;" horiz-adv-x="516" 
d="M-31 -532l-20 28q46 38 69.5 57.5t55 50t46 50.5t33.5 52.5t26 62.5t15.5 73t10.5 92t2 113v981h112v-977q0 -136 -16.5 -216t-51.5 -133t-106 -110q-50 -40 -176 -124zM178 1489q0 35 25.5 60.5t60.5 25.5t61.5 -25.5t26.5 -60.5t-26.5 -61.5t-61.5 -26.5t-60.5 26.5
t-25.5 61.5z" />
    <glyph glyph-name="uni0459" unicode="&#x459;" horiz-adv-x="1591" 
d="M752 977h-367q0 -374 -26.5 -591.5t-102.5 -328.5q-54 -80 -117 -80q-27 0 -44 16t-17 44q0 25 15.5 40t53.5 34q67 34 105 117.5t56 249.5t18 450v100h538v-416h158q258 0 374.5 -74.5t116.5 -215.5q0 -148 -116 -235t-371 -87h-274v977zM864 561v-510h154q193 0 282 63
t89 193q0 127 -89.5 190.5t-281.5 63.5h-154z" />
    <glyph glyph-name="uni045A" unicode="&#x45a;" horiz-adv-x="1630" 
d="M190 0v1028h113v-444h514v444h113v-444h147q492 0 492 -283q0 -140 -116.5 -220.5t-371.5 -80.5h-264v535h-514v-535h-113zM930 535v-484h143q195 0 283 56t88 180q0 125 -89.5 186.5t-281.5 61.5h-143z" />
    <glyph glyph-name="uni045B" unicode="&#x45b;" horiz-adv-x="1218" 
d="M303 0h-113v1597h113v-872q28 167 131.5 247.5t245.5 80.5q362 0 362 -426v-627h-112v606q0 375 -303 375q-138 0 -231 -96.5t-93 -280.5v-604zM4 1288v49h596v-49h-596z" />
    <glyph glyph-name="uni045C" unicode="&#x45c;" horiz-adv-x="1099" 
d="M573 1233l222 338h127v-8l-312 -330h-37zM961 0l-658 532v-532h-113v1028h113v-483l647 483h90l-616 -459l692 -569h-155z" />
    <glyph glyph-name="uni045E" unicode="&#x45e;" horiz-adv-x="1132" 
d="M279 -508l251 512l-491 1024h125l428 -895l440 895h68l-754 -1536h-67zM606 1262q-177 0 -262.5 84.5t-85.5 226.5h98q0 -134 71 -204.5t179 -70.5q109 0 175.5 69.5t66.5 205.5h98q0 -151 -89.5 -231t-250.5 -80z" />
    <glyph glyph-name="uni045F" unicode="&#x45f;" horiz-adv-x="1175" 
d="M573 -281l-47 254q-6 27 -43 27h-293v1028h113v-977h569v977h113v-1028h-291q-37 0 -43 -27l-49 -254h-29z" />
    <glyph glyph-name="uni0462" unicode="&#x462;" horiz-adv-x="1708" 
d="M657 766h377q310 0 457 -94.5t147 -268.5q0 -403 -604 -403h-497v1223h-517v63h517v266h120v-266h527v-63h-527v-457zM657 63h330q189 0 304 38t162.5 108t47.5 180q0 73 -27 128.5t-86 98t-160.5 64.5t-242.5 22h-328v-639z" />
    <glyph glyph-name="uni0463" unicode="&#x463;" horiz-adv-x="1173" 
d="M795 977h-332v-369h158q259 0 375 -75t116 -216q0 -146 -116 -231.5t-371 -85.5h-275v977h-330v51h330v569h113v-569h332v-51zM463 557v-506h155q191 0 280 62t89 190q0 126 -90 190t-279 64h-155z" />
    <glyph glyph-name="uni0472" unicode="&#x472;" horiz-adv-x="1863" 
d="M932 -23q-227 0 -412.5 103t-292 286.5t-106.5 411.5q0 229 106.5 413t292 286t412.5 102t412.5 -102t292 -286t106.5 -413q0 -228 -106.5 -411.5t-292 -286.5t-412.5 -103zM262 803v-15q132 52 258 72t226 12.5t195 -26.5t179 -41.5t161.5 -38t159.5 -11t158 35.5
q-6 170 -62 310t-147.5 231.5t-210 141.5t-251.5 50q-103 0 -200.5 -29.5t-182 -89.5t-147.5 -144.5t-99.5 -202.5t-36.5 -255zM936 35q129 0 246.5 46t210 132t149 221.5t60.5 302.5q-103 -42 -206 -54.5t-192.5 -2.5t-179.5 30t-180.5 41t-180 32.5t-193 1.5t-206.5 -48
q10 -162 67.5 -296t149 -222t208.5 -136t247 -48z" />
    <glyph glyph-name="uni0473" unicode="&#x473;" horiz-adv-x="1284" 
d="M643 -23q-143 0 -263.5 64.5t-195.5 189t-75 285.5q0 162 75 286t195.5 187.5t263.5 63.5q105 0 201 -37.5t170 -105t118 -170t44 -224.5q0 -121 -44 -223.5t-118 -171t-170 -106.5t-201 -38zM236 549v-17q89 43 175 54.5t151 -1.5t132.5 -31.5t121 -35t115 -12
t116.5 36.5q-17 199 -137 332t-275 133q-75 0 -145 -28.5t-127.5 -83.5t-92 -145t-34.5 -202zM649 25q75 0 145.5 28.5t128.5 82.5t93 144t35 203v15q-64 -40 -128 -55.5t-119.5 -10t-111 20t-110.5 31.5t-108.5 28t-115 6t-120.5 -31q17 -202 134.5 -332t276.5 -130z" />
    <glyph glyph-name="uni0474" unicode="&#x474;" horiz-adv-x="1527" 
d="M1307 1196l-521 -1216h-65l-682 1572h133l608 -1411l496 1159q67 158 118 218.5t109 60.5q33 0 50.5 -17.5t17.5 -43.5q0 -27 -17 -45t-57 -41q-60 -36 -105 -86t-85 -150z" />
    <glyph glyph-name="uni0475" unicode="&#x475;" horiz-adv-x="1134" 
d="M940 743l-354 -757h-47l-502 1042h123l430 -889l332 711q92 203 178 203q27 0 44 -15t17 -43q0 -27 -18 -44.5t-56 -37.5q-84 -41 -147 -170z" />
    <glyph glyph-name="uni0490" unicode="&#x490;" horiz-adv-x="1222" 
d="M1178 1489h-820v-1489h-120v1552h792q27 0 33 25l92 307h39z" />
    <glyph glyph-name="uni0491" unicode="&#x491;" horiz-adv-x="890" 
d="M840 977h-537v-977h-113v1028h510q34 0 43 27l82 254h31z" />
    <glyph glyph-name="uni0492" unicode="&#x492;" horiz-adv-x="1271" 
d="M379 1489v-1489h-121v1552h946v-63h-825zM57 780v64h766v-64h-766z" />
    <glyph glyph-name="uni0493" unicode="&#x493;" horiz-adv-x="909" 
d="M870 977h-530v-432h297v-51h-297v-494h-113v494h-157v51h157v483h643v-51z" />
    <glyph glyph-name="uni0496" unicode="&#x496;" horiz-adv-x="2351" 
d="M160 0h-174l934 823l-848 729h108l877 -755l4 -2v757h121v-755l880 755h101l-844 -727l866 -762h178l17 -395h-37l-90 307q-9 22 -27 25h-145l-899 786v-786h-121v786z" />
    <glyph glyph-name="uni0497" unicode="&#x497;" horiz-adv-x="1679" 
d="M113 0h-154l647 567l-577 461h96l604 -483v483h113v-483l604 483h90l-578 -459l590 -518h133l17 -332h-31l-82 254q-9 27 -43 27h-86l-614 532v-532h-113v532z" />
    <glyph glyph-name="uni049A" unicode="&#x49a;" horiz-adv-x="1624" 
d="M238 0v1552h120v-757l4 2l990 755h100l-948 -725l966 -764h172l17 -395h-37l-90 307q-9 25 -33 25h-129l-1012 788v-788h-120z" />
    <glyph glyph-name="uni049B" unicode="&#x49b;" horiz-adv-x="1169" 
d="M944 0l-657 532v-532h-113v1028h113v-483l647 483h90l-616 -459l628 -518h135l17 -332h-31l-82 254q-9 27 -43 27h-88z" />
    <glyph glyph-name="uni04A2" unicode="&#x4a2;" horiz-adv-x="1787" 
d="M238 0v1552h120v-708h1024v708h121v-1489h201l16 -395h-37l-90 307q-9 25 -32 25h-179v780h-1024v-780h-120z" />
    <glyph glyph-name="uni04A3" unicode="&#x4a3;" horiz-adv-x="1243" 
d="M190 0v1028h113v-469h590v469h113v-977h163l17 -332h-31l-82 254q-9 27 -43 27h-137v508h-590v-508h-113z" />
    <glyph glyph-name="uni04AE" unicode="&#x4ae;" horiz-adv-x="1548" 
d="M836 700v-700h-123v700l-658 852h144l604 -782l604 782h86z" />
    <glyph glyph-name="uni04AF" unicode="&#x4af;" horiz-adv-x="1067" 
d="M590 -508h-113v506l-440 1030h123l401 -940l400 940h67l-438 -1028v-508z" />
    <glyph glyph-name="uni04B0" unicode="&#x4b0;" horiz-adv-x="1548" 
d="M836 700v-700h-123v700l-658 852h144l604 -782l604 782h86zM293 643v62h962v-62h-962z" />
    <glyph glyph-name="uni04B1" unicode="&#x4b1;" horiz-adv-x="1067" 
d="M178 -61v61h297l-438 1028h123l401 -940l400 940h67l-438 -1028h301v-61h-301v-447h-113v447h-299z" />
    <glyph glyph-name="uni04B2" unicode="&#x4b2;" horiz-adv-x="1570" 
d="M0 0l676 807l-594 745h149l521 -653l548 653h86l-591 -706l622 -783h166l16 -395h-36l-90 307q-9 25 -33 25h-121l-600 754l-633 -754h-86z" />
    <glyph glyph-name="uni04B3" unicode="&#x4b3;" horiz-adv-x="1159" 
d="M111 0h-72l463 512l-434 516h137l368 -438l396 438h73l-434 -479l418 -498h135l17 -332h-31l-82 254q-9 27 -43 27h-90l-395 471z" />
    <glyph glyph-name="uni04B6" unicode="&#x4b6;" horiz-adv-x="1603" 
d="M1536 -332h-37l-90 307q-9 25 -33 25h-180v741q-81 -19 -135 -28q-154 -27 -289 -27q-71 0 -129.5 4.5t-123.5 17.5t-115.5 35t-97.5 59.5t-78 88t-49.5 123t-18.5 162.5v376h121v-376q0 -83 16 -149.5t41.5 -111t66 -76.5t80.5 -50t95.5 -28t100.5 -13t105 -3
q146 0 289 27q44 6 121 27v753h121v-1489h203z" />
    <glyph glyph-name="uni04B7" unicode="&#x4b7;" horiz-adv-x="1169" 
d="M131 784v244h113v-244q0 -95 18 -157.5t58 -96t91.5 -46.5t129.5 -13q108 0 268 39v518h113v-977h163l17 -332h-33l-82 254q-9 27 -43 27h-135v465q-144 -47 -287 -47q-76 0 -131 8t-106.5 31.5t-83.5 63.5t-51 106t-19 157z" />
    <glyph glyph-name="uni04BA" unicode="&#x4ba;" horiz-adv-x="1536" 
d="M1395 377v-377h-121v377q0 83 -16 149t-41.5 110.5t-66 77t-81 50t-96 28t-100.5 13t-105 2.5q-146 0 -289 -27q-51 -7 -121 -26v-754h-120v1552h120v-741q94 22 136 29q149 26 288 26q71 0 129.5 -4.5t124 -17.5t115.5 -35t97.5 -59.5t78.5 -87.5t49.5 -122.5
t18.5 -162.5z" />
    <glyph glyph-name="uni04BB" unicode="&#x4bb;" horiz-adv-x="1218" 
d="M303 0h-113v1597h113v-872q28 167 131.5 247.5t245.5 80.5q362 0 362 -426v-627h-112v606q0 375 -303 375q-138 0 -231 -96.5t-93 -280.5v-604z" />
    <glyph glyph-name="uni04C0" unicode="&#x4c0;" horiz-adv-x="595" 
d="M238 0v1552h120v-1552h-120z" />
    <glyph glyph-name="uni04CF" unicode="&#x4cf;" horiz-adv-x="493" 
d="M190 0v1597h113v-1597h-113z" />
    <glyph glyph-name="uni04D8" unicode="&#x4d8;" horiz-adv-x="1744" 
d="M850 -20q-287 0 -489 160t-246 433h1364q14 66 14 156q0 169 -52.5 313t-144 243t-217 154.5t-268.5 55.5q-258 0 -435.5 -143.5t-213.5 -403.5h-56q32 290 236 461.5t512 171.5q169 0 312 -58.5t242.5 -163.5t155.5 -254t56 -325q0 -173 -56 -321.5t-156.5 -254
t-244 -165t-313.5 -59.5zM850 37q145 0 270.5 56t216 164t125.5 253h-1206q53 -222 214.5 -347.5t379.5 -125.5z" />
    <glyph glyph-name="uni04D9" unicode="&#x4d9;" horiz-adv-x="1210" 
d="M584 1055q228 0 372 -150t144 -387q0 -124 -43.5 -227.5t-115.5 -170.5t-161 -103.5t-182 -36.5q-193 0 -324 113t-163 321h870q2 18 2 59q0 226 -121 366t-319 140q-68 0 -128.5 -15.5t-118 -49t-101 -95.5t-64.5 -147h-35q42 192 173.5 287.5t314.5 95.5zM600 20
q135 0 240 91t133 251h-729q17 -167 111.5 -254.5t244.5 -87.5z" />
    <glyph glyph-name="uni04E2" unicode="&#x4e2;" horiz-adv-x="1759" 
d="M358 0h-120v1552h120v-1439l1043 1439h121v-1552h-121v1440zM596 1819v59h586v-59h-586z" />
    <glyph glyph-name="uni04E3" unicode="&#x4e3;" horiz-adv-x="1216" 
d="M190 0v1028h113v-922l610 922h113v-1028h-113v922l-610 -922h-113zM322 1368v55h585v-55h-585z" />
    <glyph glyph-name="uni04E8" unicode="&#x4e8;" horiz-adv-x="1863" 
d="M932 -23q-227 0 -412.5 103t-292 286.5t-106.5 411.5q0 229 106.5 413t292 286t412.5 102t412.5 -102t292 -286t106.5 -413q0 -228 -106.5 -411.5t-292 -286.5t-412.5 -103zM936 35q103 0 200.5 29.5t182 89.5t147.5 144.5t99.5 202.5t36.5 255q0 4 -1.5 12t-1.5 12
h-1337q4 -172 59.5 -314.5t148 -235.5t212.5 -144t254 -51zM928 1524q-126 0 -242 -45t-209 -128.5t-151 -215t-64 -291.5h1335q-12 157 -71 287t-150 215t-206.5 131.5t-241.5 46.5z" />
    <glyph glyph-name="uni04E9" unicode="&#x4e9;" horiz-adv-x="1284" 
d="M643 -23q-143 0 -263.5 64.5t-195.5 189t-75 285.5q0 162 75 286t195.5 187.5t263.5 63.5q105 0 201 -37.5t170 -105t118 -170t44 -224.5q0 -121 -44 -223.5t-118 -171t-170 -106.5t-201 -38zM649 25q75 0 145.5 28.5t128.5 82.5t93 144t35 203v19h-815
q12 -206 132 -341.5t281 -135.5zM635 1008q-60 0 -116.5 -17.5t-108 -54.5t-90 -90t-61.5 -129t-23 -166h811q-20 197 -138.5 327t-273.5 130z" />
    <glyph glyph-name="uni04EE" unicode="&#x4ee;" horiz-adv-x="1456" 
d="M1444 1552l-696 -1282q-85 -158 -143 -225.5t-116 -67.5q-28 0 -45.5 19t-17.5 45q0 25 18.5 43.5t65.5 46.5q62 35 115 92t110 160l-696 1169h133l625 -1052l571 1052h76zM504 1819v59h586v-59h-586z" />
    <glyph glyph-name="uni04EF" unicode="&#x4ef;" horiz-adv-x="1132" 
d="M279 -508l251 512l-491 1024h125l428 -895l440 895h68l-754 -1536h-67zM303 1368v55h586v-55h-586z" />
    <glyph glyph-name="Wgrave" unicode="&#x1e80;" horiz-adv-x="2273" 
d="M578 -20l-525 1572h129l459 -1386l483 1386h70l483 -1388l465 1388h78l-526 -1572h-76l-485 1382l-482 -1382h-73zM1272 1726h-41l-408 261v4h154z" />
    <glyph glyph-name="wgrave" unicode="&#x1e81;" horiz-adv-x="1781" 
d="M166 1028l354 -889l379 889h41l381 -891l354 891h64l-418 -1042h-55l-377 870l-371 -870h-59l-418 1042h125zM981 1233h-37l-311 330v8h129z" />
    <glyph glyph-name="Wacute" unicode="&#x1e82;" horiz-adv-x="2273" 
d="M578 -20l-525 1572h129l459 -1386l483 1386h70l483 -1388l465 1388h78l-526 -1572h-76l-485 1382l-482 -1382h-73zM1090 1726l294 265h154v-4l-408 -261h-40z" />
    <glyph glyph-name="wacute" unicode="&#x1e83;" horiz-adv-x="1781" 
d="M166 1028l354 -889l379 889h41l381 -891l354 891h64l-418 -1042h-55l-377 870l-371 -870h-59l-418 1042h125zM862 1233l221 338h127v-8l-311 -330h-37z" />
    <glyph glyph-name="Wdieresis" unicode="&#x1e84;" horiz-adv-x="2273" 
d="M578 -20l-525 1572h129l459 -1386l483 1386h70l483 -1388l465 1388h78l-526 -1572h-76l-485 1382l-482 -1382h-73zM909 1810q-35 0 -60.5 26.5t-25.5 61.5t25.5 61t60.5 26t60.5 -26t25.5 -61t-25.5 -61.5t-60.5 -26.5zM1409 1810q-35 0 -60.5 26.5t-25.5 61.5t25.5 61
t60.5 26t60.5 -26t25.5 -61t-25.5 -61.5t-60.5 -26.5z" />
    <glyph glyph-name="wdieresis" unicode="&#x1e85;" horiz-adv-x="1781" 
d="M166 1028l354 -889l379 889h41l381 -891l354 891h64l-418 -1042h-55l-377 870l-371 -870h-59l-418 1042h125zM674 1362q-35 0 -60.5 26.5t-25.5 61.5t25.5 60.5t60.5 25.5t61.5 -25.5t26.5 -60.5t-26.5 -61.5t-61.5 -26.5zM1155 1362q-35 0 -60.5 26.5t-25.5 61.5
t25.5 60.5t60.5 25.5t61.5 -25.5t26.5 -60.5t-26.5 -61.5t-61.5 -26.5z" />
    <glyph glyph-name="uni1ECA" unicode="&#x1eca;" horiz-adv-x="595" 
d="M238 0v1552h120v-1552h-120zM297 -436q-35 0 -60.5 26.5t-25.5 61.5t25.5 60.5t60.5 25.5t61.5 -25.5t26.5 -60.5t-26.5 -61.5t-61.5 -26.5z" />
    <glyph glyph-name="uni1ECB" unicode="&#x1ecb;" horiz-adv-x="505" 
d="M197 0v1028h112v-1028h-112zM166 1489q0 35 25.5 60.5t60.5 25.5t61.5 -25.5t26.5 -60.5t-26.5 -61.5t-61.5 -26.5t-60.5 26.5t-25.5 61.5zM252 -436q-35 0 -60.5 26.5t-25.5 61.5t25.5 60.5t60.5 25.5t61.5 -25.5t26.5 -60.5t-26.5 -61.5t-61.5 -26.5z" />
    <glyph glyph-name="uni1ECC" unicode="&#x1ecc;" horiz-adv-x="1863" 
d="M932 -23q-227 0 -412.5 103t-292 286.5t-106.5 411.5q0 229 106.5 413t292 286t412.5 102t412.5 -102t292 -286t106.5 -413q0 -228 -106.5 -411.5t-292 -286.5t-412.5 -103zM936 35q103 0 200.5 29.5t182 89.5t147.5 144.5t99.5 202.5t36.5 255q0 176 -54.5 323
t-147.5 243t-214.5 149t-257.5 53q-103 0 -200.5 -29.5t-182 -89.5t-147.5 -144.5t-99.5 -202.5t-36.5 -255q0 -176 54.5 -323t147.5 -243t214.5 -149t257.5 -53zM940 -436q-35 0 -60.5 26.5t-25.5 61.5t25.5 60.5t60.5 25.5t61.5 -25.5t26.5 -60.5t-26.5 -61.5t-61.5 -26.5
z" />
    <glyph glyph-name="uni1ECD" unicode="&#x1ecd;" horiz-adv-x="1284" 
d="M643 -23q-143 0 -263.5 64.5t-195.5 189t-75 285.5q0 162 75 286t195.5 187.5t263.5 63.5q105 0 201 -37.5t170 -105t118 -170t44 -224.5q0 -121 -44 -223.5t-118 -171t-170 -106.5t-201 -38zM649 25q75 0 145.5 28.5t128.5 82.5t93 144t35 203q0 146 -57.5 267.5
t-152.5 189.5t-206 68q-75 0 -145 -28.5t-127.5 -83.5t-92 -145t-34.5 -202q0 -147 56.5 -268t151 -188.5t205.5 -67.5zM649 -436q-35 0 -60.5 26.5t-25.5 61.5t25.5 60.5t60.5 25.5t61.5 -25.5t26.5 -60.5t-26.5 -61.5t-61.5 -26.5z" />
    <glyph glyph-name="uni1EE4" unicode="&#x1ee4;" horiz-adv-x="1689" 
d="M840 -23q-623 0 -623 621v954h121v-948q0 -279 127.5 -421t402.5 -142q535 0 535 575v936h70v-946q0 -629 -633 -629zM854 -436q-35 0 -60.5 26.5t-25.5 61.5t25.5 60.5t60.5 25.5t61.5 -25.5t26.5 -60.5t-26.5 -61.5t-61.5 -26.5z" />
    <glyph glyph-name="uni1EE5" unicode="&#x1ee5;" horiz-adv-x="1208" 
d="M905 1028h113v-1028h-113v307q-28 -170 -129 -250t-241 -80q-359 0 -359 429v622h111v-604q0 -196 77 -285.5t224 -89.5q136 0 226.5 97t90.5 280v602zM596 -436q-35 0 -60.5 26.5t-25.5 61.5t25.5 60.5t60.5 25.5t61.5 -25.5t26.5 -60.5t-26.5 -61.5t-61.5 -26.5z" />
    <glyph glyph-name="Ygrave" unicode="&#x1ef2;" horiz-adv-x="1548" 
d="M836 700v-700h-123v700l-658 852h144l604 -782l604 782h86zM899 1726h-41l-407 261v4h153z" />
    <glyph glyph-name="ygrave" unicode="&#x1ef3;" horiz-adv-x="1132" 
d="M279 -508l251 512l-491 1024h125l428 -895l440 895h68l-754 -1536h-67zM655 1233h-37l-311 330v8h129z" />
    <glyph glyph-name="uni2007" unicode="&#x2007;" horiz-adv-x="1390" 
 />
    <glyph glyph-name="uni2008" unicode="&#x2008;" horiz-adv-x="462" 
 />
    <glyph glyph-name="uni2009" unicode="&#x2009;" horiz-adv-x="118" 
 />
    <glyph glyph-name="uni200B" unicode="&#x200b;" 
 />
    <glyph glyph-name="endash" unicode="&#x2013;" horiz-adv-x="1239" 
d="M158 502v63h925v-63h-925z" />
    <glyph glyph-name="emdash" unicode="&#x2014;" horiz-adv-x="1861" 
d="M158 502v63h1548v-63h-1548z" />
    <glyph glyph-name="quoteleft" unicode="&#x2018;" horiz-adv-x="501" 
d="M389 1591l25 -35q-189 -166 -189 -303q0 -84 94 -118q1 -41 -26.5 -67t-65.5 -26q-44 0 -73 34t-29 95q0 90 62 200t202 220z" />
    <glyph glyph-name="quoteright" unicode="&#x2019;" horiz-adv-x="505" 
d="M143 1042l-24 35q188 165 188 303q0 85 -94 119q-1 41 26 66.5t66 25.5q45 0 74 -34t29 -95q0 -90 -62.5 -199.5t-202.5 -220.5z" />
    <glyph glyph-name="quotesinglbase" unicode="&#x201a;" horiz-adv-x="460" 
d="M68 -393l-25 35q188 165 188 303q0 84 -94 118q-1 41 26.5 67t65.5 26q45 0 74 -34t29 -95q0 -90 -62 -200t-202 -220z" />
    <glyph glyph-name="quotedblleft" unicode="&#x201c;" horiz-adv-x="935" 
d="M389 1591l25 -35q-189 -166 -189 -303q0 -84 94 -118q1 -41 -26.5 -67t-65.5 -26q-44 0 -73 34t-29 95q0 90 62 200t202 220zM823 1591l25 -35q-189 -166 -189 -303q0 -83 95 -118q1 -41 -26.5 -67t-65.5 -26q-45 0 -74 34t-29 95q0 90 62 200t202 220z" />
    <glyph glyph-name="quotedblright" unicode="&#x201d;" horiz-adv-x="942" 
d="M143 1042l-24 35q188 165 188 303q0 85 -94 119q-1 41 26 66.5t66 25.5q45 0 74 -34t29 -95q0 -90 -62.5 -199.5t-202.5 -220.5zM580 1042l-25 35q188 165 188 303q0 85 -94 119q-1 41 26 66.5t66 25.5q45 0 74 -34t29 -95q0 -90 -62 -200t-202 -220z" />
    <glyph glyph-name="quotedblbase" unicode="&#x201e;" horiz-adv-x="897" 
d="M68 -393l-25 35q188 165 188 303q0 84 -94 118q-1 41 26.5 67t65.5 26q45 0 74 -34t29 -95q0 -90 -62 -200t-202 -220zM504 -393l-25 35q189 166 189 303q0 83 -95 118q-1 41 26.5 67t66.5 26q44 0 73 -34t29 -95q0 -90 -62 -200t-202 -220z" />
    <glyph glyph-name="dagger" unicode="&#x2020;" horiz-adv-x="1376" 
d="M657 -467v1419h-536v58h536v571h62v-571h534v-58h-534v-1419h-62z" />
    <glyph glyph-name="daggerdbl" unicode="&#x2021;" horiz-adv-x="1376" 
d="M121 76v57h536v819h-536v58h536v571h62v-571h534v-58h-534v-819h534v-57h-534v-543h-62v543h-536z" />
    <glyph glyph-name="bullet" unicode="&#x2022;" horiz-adv-x="880" 
d="M438 528q-106 0 -182 76.5t-76 183.5q0 106 76 182.5t182 76.5t183 -76.5t77 -182.5q0 -107 -77 -183.5t-183 -76.5z" />
    <glyph glyph-name="ellipsis" unicode="&#x2026;" horiz-adv-x="1591" 
d="M229 -23q-36 0 -62 27t-26 64t25.5 63.5t62.5 26.5q41 0 67 -26t26 -64t-26.5 -64.5t-66.5 -26.5zM793 -23q-36 0 -62 27t-26 64t25.5 63.5t62.5 26.5q40 0 66 -26t26 -64t-26 -64.5t-66 -26.5zM1358 -23q-36 0 -62 27t-26 64t25.5 63.5t62.5 26.5q40 0 66 -26t26 -64
t-26 -64.5t-66 -26.5z" />
    <glyph glyph-name="perthousand" unicode="&#x2030;" horiz-adv-x="2676" 
d="M301 0l1159 1552h86l-1159 -1552h-86zM88 1135q0 121 37 221.5t110 162.5t168 62q144 0 231 -129.5t87 -316.5q0 -123 -37.5 -224.5t-110.5 -163t-170 -61.5q-143 0 -229 129.5t-86 319.5zM182 1135q0 -191 59 -301.5t162 -110.5t163.5 111t60.5 301q0 189 -60.5 299
t-163.5 110t-162 -110t-59 -299zM1128 426q0 121 37 221.5t110.5 162.5t168.5 62q144 0 230.5 -129.5t86.5 -316.5q0 -123 -37 -224.5t-110 -163t-170 -61.5q-143 0 -229.5 129.5t-86.5 319.5zM1223 426q0 -191 59 -301.5t162 -110.5t163 111t60 301q0 189 -60 299.5
t-163 110.5t-162 -110.5t-59 -299.5zM1960 426q0 121 37 221.5t110 162.5t168 62q144 0 231 -129.5t87 -316.5q0 -123 -37.5 -224.5t-110.5 -163t-170 -61.5q-143 0 -229 129.5t-86 319.5zM2054 426q0 -191 59 -301.5t162 -110.5t163.5 111t60.5 301q0 189 -60.5 299.5
t-163.5 110.5t-162 -110.5t-59 -299.5z" />
    <glyph glyph-name="guilsinglleft" unicode="&#x2039;" horiz-adv-x="694" 
d="M535 74l-433 450l433 451l38 -31l-325 -420l325 -422z" />
    <glyph glyph-name="guilsinglright" unicode="&#x203a;" horiz-adv-x="694" 
d="M592 524l-432 -450l-39 28l325 422l-325 420l39 31z" />
    <glyph glyph-name="fraction" unicode="&#x2044;" horiz-adv-x="350" 
d="M-442 0l1159 1552h86l-1159 -1552h-86z" />
    <glyph glyph-name="uni2060" unicode="&#x2060;" 
 />
    <glyph glyph-name="uni2070" unicode="&#x2070;" horiz-adv-x="825" 
d="M96 1251q0 121 37 222t110.5 163t168.5 62q144 0 230.5 -130t86.5 -317q0 -123 -37 -224t-110 -162.5t-170 -61.5q-143 0 -229.5 129.5t-86.5 318.5zM190 1251q0 -190 59.5 -300.5t162.5 -110.5t163 110.5t60 300.5q0 189 -60 299.5t-163 110.5t-162.5 -110.5
t-59.5 -299.5z" />
    <glyph glyph-name="uni2074" unicode="&#x2074;" horiz-adv-x="835" 
d="M522 821v234h-465v32l475 590h72v-567h168v-55h-168v-234h-82zM129 1110h393v483z" />
    <glyph glyph-name="uni2075" unicode="&#x2075;" horiz-adv-x="724" 
d="M311 834q102 0 174 63.5t72 159.5q0 215 -401 268l90 350h401l-22 -73h-361l-51 -197q405 -57 405 -318q0 -119 -91 -201.5t-230 -82.5q-100 0 -167 49t-67 98q0 20 12.5 31.5t30.5 11.5q16 0 26 -8.5t13.5 -17.5t10.5 -29q22 -54 55.5 -79t99.5 -25z" />
    <glyph glyph-name="uni2076" unicode="&#x2076;" horiz-adv-x="753" 
d="M662 1077q0 -115 -83.5 -194.5t-201.5 -79.5q-136 0 -215.5 91.5t-79.5 227.5q0 188 156 349t421 251l9 -26q-203 -75 -328.5 -196.5t-157.5 -274.5q38 53 99.5 83.5t128.5 30.5q105 0 178.5 -69.5t73.5 -192.5zM172 1124q0 -130 55.5 -208t151.5 -78q86 0 139 61t53 164
q0 108 -55.5 169.5t-144.5 61.5q-55 0 -110 -24t-81 -60q-8 -36 -8 -86z" />
    <glyph glyph-name="uni2077" unicode="&#x2077;" horiz-adv-x="706" 
d="M90 1675h580l-512 -854h-52l465 781h-503z" />
    <glyph glyph-name="uni2078" unicode="&#x2078;" horiz-adv-x="737" 
d="M365 803q-119 0 -196 60t-77 161q0 169 219 242q-88 53 -132 105t-44 124q0 93 70.5 148t169.5 55q93 0 161 -46t68 -128q0 -74 -53.5 -130.5t-134.5 -88.5l16 -9q107 -59 160 -115t53 -141q0 -105 -78 -171t-202 -66zM150 1028q0 -88 63.5 -140t155.5 -52q98 0 155.5 48
t57.5 130q0 63 -46 107.5t-145 99.5l-61 34q-180 -75 -180 -227zM369 1331l30 -16q150 66 150 196q0 74 -51.5 113t-126.5 39q-77 0 -127.5 -36t-50.5 -105q0 -60 42 -100.5t134 -90.5z" />
    <glyph glyph-name="uni2079" unicode="&#x2079;" horiz-adv-x="755" 
d="M674 1378q0 -188 -156 -348t-422 -252l-10 27q203 75 329 196.5t158 274.5q-41 -54 -102 -85.5t-127 -31.5q-104 0 -177 69.5t-73 192.5q0 116 83.5 196.5t201.5 80.5q136 0 215.5 -92t79.5 -228zM184 1438q0 -108 56 -171t145 -63q54 0 107.5 23.5t82.5 60.5q9 46 9 88
q0 130 -55.5 207.5t-151.5 77.5q-87 0 -140 -60.5t-53 -162.5z" />
    <glyph glyph-name="uni2080" unicode="&#x2080;" horiz-adv-x="825" 
d="M96 309q0 121 37 222t110.5 163t168.5 62q144 0 230.5 -130t86.5 -317q0 -123 -37 -224t-110 -162.5t-170 -61.5q-143 0 -229.5 129.5t-86.5 318.5zM190 309q0 -190 59.5 -300.5t162.5 -110.5t163 110.5t60 300.5q0 189 -60 299.5t-163 110.5t-162.5 -110.5t-59.5 -299.5
z" />
    <glyph glyph-name="uni2081" unicode="&#x2081;" horiz-adv-x="481" 
d="M242 -121v801l-187 -80v37l269 113v-871h-82z" />
    <glyph glyph-name="uni2082" unicode="&#x2082;" horiz-adv-x="702" 
d="M47 -121v4q128 124 207 207t144 166t93.5 149.5t28.5 129.5q0 80 -45 127t-129 47q-85 0 -138 -54t-54 -155h-31q0 120 68.5 188t185.5 68q107 0 167 -56.5t60 -146.5q0 -108 -89 -226t-273 -282l-103 -92h479l-28 -74h-543z" />
    <glyph glyph-name="uni2083" unicode="&#x2083;" horiz-adv-x="722" 
d="M305 -139q-100 0 -164.5 49t-64.5 98q0 20 12.5 31.5t30.5 11.5q16 0 26 -9t13 -16.5t10 -29.5q22 -54 56 -79.5t100 -25.5q96 0 164.5 64t68.5 174q0 100 -63.5 161.5t-135.5 61.5q-41 0 -96 -22l-8 26l37 15q203 79 203 207q0 62 -42 96.5t-112 34.5
q-72 0 -125.5 -41.5t-64.5 -126.5h-27q10 101 78.5 158t173.5 57q90 0 143 -42.5t53 -107.5q0 -115 -161 -184v-4q96 -18 159.5 -86.5t63.5 -167.5q0 -133 -96.5 -218t-231.5 -85z" />
    <glyph glyph-name="uni2084" unicode="&#x2084;" horiz-adv-x="835" 
d="M522 -121v234h-465v32l475 590h72v-567h168v-55h-168v-234h-82zM129 168h393v483z" />
    <glyph glyph-name="uni2085" unicode="&#x2085;" horiz-adv-x="724" 
d="M311 -109q102 0 174 63.5t72 160.5q0 215 -401 268l90 350h401l-22 -74h-361l-51 -196q405 -57 405 -318q0 -119 -91 -201.5t-230 -82.5q-100 0 -167 49t-67 98q0 20 12.5 31.5t30.5 11.5q16 0 26 -8.5t13.5 -17.5t10.5 -29q22 -55 55.5 -80t99.5 -25z" />
    <glyph glyph-name="uni2086" unicode="&#x2086;" horiz-adv-x="753" 
d="M662 135q0 -115 -83.5 -194.5t-201.5 -79.5q-136 0 -215.5 91.5t-79.5 227.5q0 188 156 349t421 251l9 -26q-203 -75 -328.5 -196.5t-157.5 -274.5q38 53 99.5 83.5t128.5 30.5q105 0 178.5 -69.5t73.5 -192.5zM172 182q0 -130 55.5 -208t151.5 -78q86 0 139 61t53 164
q0 108 -55.5 169.5t-144.5 61.5q-55 0 -110 -24t-81 -60q-8 -36 -8 -86z" />
    <glyph glyph-name="uni2087" unicode="&#x2087;" horiz-adv-x="706" 
d="M90 733h580l-512 -854h-52l465 780h-503z" />
    <glyph glyph-name="uni2088" unicode="&#x2088;" horiz-adv-x="737" 
d="M365 -139q-119 0 -196 60t-77 161q0 169 219 242q-88 53 -132 105t-44 124q0 93 70.5 148t169.5 55q93 0 161 -46t68 -128q0 -74 -53.5 -131t-134.5 -89l16 -8q107 -59 160 -115t53 -141q0 -105 -78 -171t-202 -66zM150 86q0 -88 63.5 -140t155.5 -52q98 0 155.5 48
t57.5 130q0 63 -46 107.5t-145 99.5l-61 34q-180 -75 -180 -227zM369 389l30 -16q150 66 150 196q0 74 -51.5 113t-126.5 39q-77 0 -127.5 -36t-50.5 -105q0 -60 42 -100.5t134 -90.5z" />
    <glyph glyph-name="uni2089" unicode="&#x2089;" horiz-adv-x="755" 
d="M674 436q0 -188 -156 -348t-422 -252l-10 27q203 75 329 196.5t158 274.5q-41 -54 -102 -85.5t-127 -31.5q-104 0 -177 69.5t-73 192.5q0 116 83.5 196.5t201.5 80.5q136 0 215.5 -92t79.5 -228zM184 496q0 -108 56 -171t145 -63q54 0 107.5 23.5t82.5 60.5q9 47 9 88
q0 130 -55.5 207.5t-151.5 77.5q-87 0 -140 -60.5t-53 -162.5z" />
    <glyph glyph-name="Euro" unicode="&#x20ac;" horiz-adv-x="1785" 
d="M82 600l27 59h268q-8 55 -8 125t8 125h-293l27 60h274q52 280 251.5 445t465.5 165q118 0 217.5 -25.5t161 -65t95.5 -84t34 -85.5q0 -68 -64 -68q-32 0 -48.5 19.5t-29.5 56.5q-38 89 -131.5 147t-246.5 58q-222 0 -382 -147.5t-200 -415.5h797l-27 -60h-776
q-4 -62 -4 -94q0 -74 10 -156h682l-27 -59h-645q51 -254 207.5 -406.5t388.5 -152.5q68 0 134 15.5t132.5 51.5t120 90t95.5 136.5t61 185.5h41q-19 -118 -64 -212t-105 -155t-135.5 -101.5t-152.5 -57.5t-160 -17q-267 0 -456.5 171.5t-239.5 451.5h-303z" />
    <glyph glyph-name="uni20B4" unicode="&#x20b4;" horiz-adv-x="1329" 
d="M84 901v60h784q183 95 183 280q0 139 -100.5 211t-278.5 72q-135 0 -215 -35q-23 -12 -38.5 -27t-27.5 -45l-117 -262h-41l64 352q136 72 379 72q146 0 251 -35.5t166.5 -115t61.5 -199.5q0 -158 -98 -268h186v-60h-1159zM86 590v59h1157v-59h-881q-96 -87 -96 -228
q0 -154 108.5 -241.5t295.5 -87.5q154 0 262 47q30 13 45 30.5t29 53.5l112 289h45l-63 -385q-166 -91 -430 -91q-230 0 -371 106.5t-141 295.5q0 118 55 211h-127z" />
    <glyph glyph-name="uni20B8" unicode="&#x20b8;" horiz-adv-x="1392" 
d="M20 1493v59h1354v-59h-1354zM635 0v1180h-617v61h1356v-61h-616v-1180h-123z" />
    <glyph glyph-name="uni20BD" unicode="&#x20bd;" horiz-adv-x="1427" 
d="M406 0h-123v416h-203v61h203v250h-203v59h203v766h446q89 0 163 -7t147.5 -23.5t129 -47.5t99 -75t66 -109t22.5 -147q0 -99 -34 -174t-90 -120.5t-139 -74t-170 -39t-194 -10.5h-323v-248h681v-61h-681v-416zM406 1493v-707h303q92 0 164.5 9t139.5 33t111.5 62.5
t70.5 101.5t26 147t-26 147t-70.5 102t-111 63t-139.5 33t-165 9h-303z" />
    <glyph glyph-name="uni2116" unicode="&#x2116;" horiz-adv-x="2476" 
d="M1755 494v61h576v-61h-576zM307 1552l1125 -1357v1357h71v-1552h-71l-1125 1366v-1366h-69v1552h69zM1722 1128q0 121 37 222t110.5 163t168.5 62q144 0 230.5 -130t86.5 -317q0 -123 -37 -224t-110 -162.5t-170 -61.5q-143 0 -229.5 129.5t-86.5 318.5zM1817 1128
q0 -191 59 -301t162 -110t163 110.5t60 300.5q0 189 -60 299.5t-163 110.5t-162 -110.5t-59 -299.5z" />
    <glyph glyph-name="uni2117" unicode="&#x2117;" horiz-adv-x="1828" 
d="M913 -23q-171 0 -319.5 62t-251.5 168.5t-162 254.5t-59 316t59 316t162 254.5t251.5 168.5t319.5 62q229 0 411.5 -105.5t283 -288t100.5 -407.5t-100.5 -407.5t-283 -288t-411.5 -105.5zM913 27q147 0 279.5 52.5t234 147t161 238t59.5 313.5q0 137 -38.5 257.5
t-107.5 210.5t-160.5 155t-201 98t-226.5 33q-146 0 -278.5 -53t-233 -148t-160 -239t-59.5 -314t59.5 -313.5t160 -238t233 -147t278.5 -52.5zM629 367v880h329q80 0 140.5 -10.5t112.5 -35.5t80 -72.5t28 -116.5q0 -240 -361 -240h-245v-405h-84zM713 1204v-387h235
q131 0 204 43.5t73 147.5q0 108 -72.5 152t-204.5 44h-235z" />
    <glyph glyph-name="trademark" unicode="&#x2122;" horiz-adv-x="2256" 
d="M436 590v911h-368v51h829v-51h-369v-911h-92zM1098 590v962h110l367 -645l367 645h104v-962h-94v864l-381 -672h-37l-381 672v-864h-55z" />
    <glyph glyph-name="uni2150" unicode="&#x2150;" horiz-adv-x="1538" 
d="M242 698v801l-187 -80v37l269 113v-871h-82zM39 0l1159 1552h86l-1159 -1552h-86zM922 854h579l-512 -854h-51l465 780h-504z" />
    <glyph glyph-name="uni2151" unicode="&#x2151;" horiz-adv-x="1587" 
d="M242 698v801l-187 -80v37l269 113v-871h-82zM39 0l1159 1552h86l-1159 -1552h-86zM1505 557q0 -189 -156 -348.5t-421 -251.5l-10 27q203 75 329 196.5t158 274.5q-41 -54 -102 -85.5t-127 -31.5q-104 0 -177 69.5t-73 192.5q0 116 83 196.5t201 80.5q136 0 215.5 -92
t79.5 -228zM1016 616q0 -108 55.5 -170.5t145.5 -62.5q54 0 107.5 23.5t82.5 60.5q8 41 8 88q0 130 -55.5 207.5t-151.5 77.5q-87 0 -139.5 -61t-52.5 -163z" />
    <glyph glyph-name="uni2152" unicode="&#x2152;" horiz-adv-x="2138" 
d="M242 698v801l-187 -80v37l269 113v-871h-82zM39 0l1159 1552h86l-1159 -1552h-86zM1073 0v801l-186 -80v37l268 112v-870h-82zM1409 430q0 121 37 222t110 163t168 62q144 0 231 -130t87 -317q0 -123 -37.5 -224t-110.5 -162.5t-170 -61.5q-143 0 -229 129t-86 319z
M1503 430q0 -191 59 -301.5t162 -110.5t163.5 111t60.5 301q0 189 -60.5 299.5t-163.5 110.5t-162 -110.5t-59 -299.5z" />
    <glyph glyph-name="onethird" unicode="&#x2153;" horiz-adv-x="1554" 
d="M242 698v801l-187 -80v37l269 113v-871h-82zM39 0l1159 1552h86l-1159 -1552h-86zM1137 -18q-100 0 -165 49t-65 98q0 20 12.5 31.5t30.5 11.5q16 0 26 -9t13 -16.5t10 -29.5q22 -54 56 -79.5t100 -25.5q96 0 165 64t69 174q0 100 -63.5 161.5t-135.5 61.5q-41 0 -96 -22
l-9 26l37 15q203 79 203 206q0 62 -42 96.5t-112 34.5q-73 0 -126 -41t-64 -126h-27q10 101 78.5 158t173.5 57q90 0 143.5 -42.5t53.5 -107.5q0 -115 -162 -184v-4q96 -18 159.5 -86.5t63.5 -167.5q0 -133 -96 -218t-231 -85z" />
    <glyph glyph-name="twothirds" unicode="&#x2154;" horiz-adv-x="1775" 
d="M47 698v4q128 124 207 207t144 166t93.5 149.5t28.5 129.5q0 80 -45 127t-129 47q-85 0 -138 -54t-54 -155h-31q0 120 68.5 188t185.5 68q107 0 167 -56.5t60 -146.5q0 -108 -89 -226t-273 -282l-103 -92h479l-28 -74h-543zM260 0l1159 1552h86l-1159 -1552h-86z
M1358 -18q-100 0 -165 49t-65 98q0 20 12.5 31.5t30.5 11.5q16 0 26 -8.5t13.5 -17.5t10.5 -29q22 -55 55.5 -80t99.5 -25q96 0 165 64t69 174q0 100 -63.5 161.5t-135.5 61.5q-41 0 -96 -22l-8 26l36 15q203 79 203 206q0 62 -41.5 96.5t-111.5 34.5q-73 0 -126.5 -41
t-64.5 -126h-26q10 101 78.5 158t172.5 57q90 0 143.5 -42.5t53.5 -107.5q0 -115 -162 -184v-4q96 -18 160 -86.5t64 -167.5q0 -133 -96.5 -218t-231.5 -85z" />
    <glyph glyph-name="uni2155" unicode="&#x2155;" horiz-adv-x="1556" 
d="M242 698v801l-187 -80v37l269 113v-871h-82zM39 0l1159 1552h86l-1159 -1552h-86zM1143 12q102 0 174 63.5t72 160.5q0 214 -402 268l90 350h402l-23 -74h-360l-52 -196q406 -58 406 -318q0 -119 -91.5 -201.5t-230.5 -82.5q-100 0 -166.5 49t-66.5 98q0 20 12.5 31.5
t30.5 11.5q16 0 26 -9t13 -16.5t10 -29.5q22 -54 56 -79.5t100 -25.5z" />
    <glyph glyph-name="uni2156" unicode="&#x2156;" horiz-adv-x="1777" 
d="M47 698v4q128 124 207 207t144 166t93.5 149.5t28.5 129.5q0 80 -45 127t-129 47q-85 0 -138 -54t-54 -155h-31q0 120 68.5 188t185.5 68q107 0 167 -56.5t60 -146.5q0 -108 -89 -226t-273 -282l-103 -92h479l-28 -74h-543zM260 0l1159 1552h86l-1159 -1552h-86zM1364 12
q102 0 174 63.5t72 160.5q0 214 -402 268l90 350h402l-23 -74h-360l-51 -196q405 -57 405 -318q0 -119 -91 -201.5t-230 -82.5q-100 0 -167 49t-67 98q0 20 12.5 31.5t30.5 11.5q16 0 26 -9t13 -16.5t10 -29.5q22 -54 56 -79.5t100 -25.5z" />
    <glyph glyph-name="uni2157" unicode="&#x2157;" horiz-adv-x="1798" 
d="M305 680q-100 0 -164.5 49t-64.5 98q0 20 12.5 31.5t30.5 11.5q16 0 26 -9t13 -16.5t10 -29.5q22 -54 56 -79t100 -25q96 0 164.5 63.5t68.5 173.5q0 100 -63.5 161.5t-135.5 61.5q-41 0 -96 -22l-8 27l37 14q203 79 203 207q0 62 -42 96.5t-112 34.5q-72 0 -125.5 -41.5
t-64.5 -126.5h-27q10 101 78.5 158t173.5 57q90 0 143 -42.5t53 -107.5q0 -115 -161 -184v-4q96 -18 159.5 -86.5t63.5 -167.5q0 -133 -96.5 -218t-231.5 -85zM281 0l1159 1552h86l-1159 -1552h-86zM1384 12q102 0 174 63.5t72 160.5q0 215 -401 268l90 350h401l-22 -74
h-361l-51 -196q406 -58 406 -318q0 -119 -91.5 -201.5t-230.5 -82.5q-100 0 -166.5 49t-66.5 98q0 20 12.5 31.5t30.5 11.5q16 0 26 -9t13 -16.5t10 -29.5q22 -55 55.5 -80t99.5 -25z" />
    <glyph glyph-name="uni2158" unicode="&#x2158;" horiz-adv-x="1910" 
d="M522 698v234h-465v33l475 589h72v-567h168v-55h-168v-234h-82zM129 987h393v483zM393 0l1159 1552h86l-1159 -1552h-86zM1497 12q102 0 174 63.5t72 160.5q0 214 -402 268l91 350h401l-23 -74h-360l-51 -196q405 -57 405 -318q0 -119 -91 -201.5t-230 -82.5
q-100 0 -167 49t-67 98q0 20 12.5 31.5t30.5 11.5q16 0 26 -9t13 -16.5t10 -29.5q22 -54 56 -79.5t100 -25.5z" />
    <glyph glyph-name="uni2159" unicode="&#x2159;" horiz-adv-x="1497" 
d="M242 698v801l-187 -80v37l269 113v-871h-82zM39 0l1159 1552h86l-1159 -1552h-86zM1405 256q0 -115 -83.5 -194.5t-201.5 -79.5q-136 0 -215.5 91.5t-79.5 227.5q0 188 156.5 349t421.5 251l8 -27q-203 -75 -328 -196.5t-157 -274.5q38 54 99 84.5t128 30.5
q105 0 178.5 -69.5t73.5 -192.5zM915 303q0 -130 55.5 -208.5t151.5 -78.5q86 0 139.5 61.5t53.5 164.5q0 108 -56 169.5t-145 61.5q-55 0 -109.5 -24t-80.5 -60q-9 -40 -9 -86z" />
    <glyph glyph-name="uni215A" unicode="&#x215a;" horiz-adv-x="1742" 
d="M311 711q102 0 174 63.5t72 159.5q0 215 -401 268l90 350h401l-22 -73h-361l-51 -197q405 -57 405 -317q0 -119 -91 -202t-230 -83q-100 0 -167 49t-67 98q0 20 12.5 31.5t30.5 11.5q16 0 26 -8.5t13.5 -17.5t10.5 -29q22 -54 55.5 -79t99.5 -25zM283 0l1159 1552h86
l-1159 -1552h-86zM1649 256q0 -115 -83.5 -194.5t-201.5 -79.5q-136 0 -215.5 91.5t-79.5 227.5q0 188 156.5 349t421.5 251l8 -27q-203 -75 -328.5 -196.5t-157.5 -274.5q38 53 99.5 84t128.5 31q105 0 178.5 -69.5t73.5 -192.5zM1159 303q0 -130 55.5 -208.5t151.5 -78.5
q86 0 139.5 61.5t53.5 164.5q0 108 -56 169.5t-145 61.5q-55 0 -110 -24t-81 -60q-8 -36 -8 -86z" />
    <glyph glyph-name="oneeighth" unicode="&#x215b;" horiz-adv-x="1568" 
d="M242 698v801l-187 -80v37l269 113v-871h-82zM39 0l1159 1552h86l-1159 -1552h-86zM1196 -18q-119 0 -195.5 60t-76.5 161q0 168 219 241q-88 53 -132 105.5t-44 124.5q0 93 70 148t169 55q93 0 161.5 -46.5t68.5 -128.5q0 -74 -53.5 -130t-135.5 -89l17 -8
q107 -59 160 -115t53 -141q0 -104 -78.5 -170.5t-202.5 -66.5zM981 207q0 -88 64 -140.5t155 -52.5q98 0 155.5 48.5t57.5 130.5q0 63 -45.5 107t-144.5 99l-62 35q-180 -75 -180 -227zM1200 510l31 -16q149 66 149 196q0 74 -51.5 113t-126.5 39q-77 0 -127.5 -36.5
t-50.5 -105.5q0 -60 41.5 -99.5t134.5 -90.5z" />
    <glyph glyph-name="threeeighths" unicode="&#x215c;" horiz-adv-x="1810" 
d="M305 680q-100 0 -164.5 49t-64.5 98q0 20 12.5 31.5t30.5 11.5q16 0 26 -9t13 -16.5t10 -29.5q22 -54 56 -79t100 -25q96 0 164.5 63.5t68.5 173.5q0 100 -63.5 161.5t-135.5 61.5q-41 0 -96 -22l-8 27l37 14q203 79 203 207q0 62 -42 96.5t-112 34.5q-72 0 -125.5 -41.5
t-64.5 -126.5h-27q10 101 78.5 158t173.5 57q90 0 143 -42.5t53 -107.5q0 -115 -161 -184v-4q96 -18 159.5 -86.5t63.5 -167.5q0 -133 -96.5 -218t-231.5 -85zM281 0l1159 1552h86l-1159 -1552h-86zM1438 -18q-119 0 -196 60t-77 161q0 168 219 241q-88 53 -132 105.5
t-44 124.5q0 93 70.5 148t169.5 55q93 0 161 -46.5t68 -128.5q0 -74 -53.5 -130.5t-134.5 -88.5l16 -8q107 -59 160 -115t53 -141q0 -105 -78 -171t-202 -66zM1223 207q0 -88 64 -140.5t155 -52.5q98 0 155.5 48.5t57.5 130.5q0 63 -45.5 107t-145.5 99l-61 35
q-180 -75 -180 -227zM1442 510l31 -16q149 66 149 196q0 74 -51.5 113t-126.5 39q-77 0 -127.5 -36.5t-50.5 -105.5q0 -60 41.5 -99.5t134.5 -90.5z" />
    <glyph glyph-name="fiveeighths" unicode="&#x215d;" horiz-adv-x="1812" 
d="M311 711q102 0 174 63.5t72 159.5q0 215 -401 268l90 350h401l-22 -73h-361l-51 -197q405 -57 405 -317q0 -119 -91 -202t-230 -83q-100 0 -167 49t-67 98q0 20 12.5 31.5t30.5 11.5q16 0 26 -8.5t13.5 -17.5t10.5 -29q22 -54 55.5 -79t99.5 -25zM283 0l1159 1552h86
l-1159 -1552h-86zM1440 -18q-119 0 -196 60t-77 161q0 168 219 241q-88 53 -132 105.5t-44 124.5q0 93 70.5 148t169.5 55q93 0 161 -46.5t68 -128.5q0 -74 -53.5 -130.5t-134.5 -88.5l16 -8q107 -59 160 -115t53 -141q0 -105 -78 -171t-202 -66zM1225 207q0 -88 64 -140.5
t155 -52.5q98 0 155.5 48.5t57.5 130.5q0 63 -45.5 107t-145.5 99l-61 35q-180 -75 -180 -227zM1444 510l31 -16q149 66 149 196q0 74 -51.5 113t-126.5 39q-77 0 -127.5 -36.5t-50.5 -105.5q0 -60 41.5 -99.5t134.5 -90.5z" />
    <glyph glyph-name="seveneighths" unicode="&#x215e;" horiz-adv-x="1648" 
d="M90 1552h580l-512 -854h-52l465 781h-503zM119 0l1159 1552h86l-1159 -1552h-86zM1276 -18q-119 0 -195.5 60t-76.5 161q0 168 219 241q-88 53 -132 105.5t-44 124.5q0 93 70 148t169 55q93 0 161.5 -46.5t68.5 -128.5q0 -74 -53.5 -130t-135.5 -89l16 -8
q107 -59 160 -115t53 -141q0 -105 -78 -171t-202 -66zM1061 207q0 -88 64 -140.5t155 -52.5q98 0 155.5 48.5t57.5 130.5q0 63 -45.5 107t-144.5 99l-62 35q-180 -75 -180 -227zM1280 510l31 -16q149 66 149 196q0 74 -51.5 113t-126.5 39q-77 0 -127.5 -36.5t-50.5 -105.5
q0 -60 41.5 -99.5t134.5 -90.5z" />
    <glyph glyph-name="uni215F" unicode="&#x215f;" horiz-adv-x="831" 
d="M242 698v801l-187 -80v37l269 113v-871h-82zM39 0l1159 1552h86l-1159 -1552h-86z" />
    <glyph glyph-name="minus" unicode="&#x2212;" horiz-adv-x="1337" 
d="M133 502v63h1069v-63h-1069z" />
    <glyph glyph-name="approxequal" unicode="&#x2248;" horiz-adv-x="1337" 
d="M432 872q61 0 116.5 -20.5t97.5 -49.5t82 -58t86.5 -49.5t94.5 -20.5q181 0 207 190h66q-16 -128 -93.5 -189t-179.5 -61q-56 0 -108 20.5t-93 50t-81.5 58.5t-91.5 49.5t-105 20.5q-181 0 -207 -192h-65q8 67 34.5 117t65.5 78.5t82.5 42t91.5 13.5zM432 477
q61 0 116.5 -20.5t97.5 -49.5t82 -58t86.5 -49.5t94.5 -20.5q181 0 207 190h66q-16 -128 -93.5 -189t-179.5 -61q-56 0 -108 20.5t-93 49.5t-81.5 58.5t-91.5 50t-105 20.5q-180 0 -207 -191h-65q16 128 93.5 189t180.5 61z" />
    <glyph glyph-name="notequal" unicode="&#x2260;" horiz-adv-x="1337" 
d="M164 256v61h371l206 422h-577v66h610l109 223h67l-110 -223h334v-66h-365l-209 -422h574v-61h-603l-127 -256h-65l125 256h-340z" />
    <glyph glyph-name="lessequal" unicode="&#x2264;" horiz-adv-x="1337" 
d="M147 567v54l1033 405v-72l-926 -360l926 -363v-71zM147 0v63h1035v-63h-1035z" />
    <glyph glyph-name="greaterequal" unicode="&#x2265;" horiz-adv-x="1337" 
d="M1190 621v-54l-1032 -407v71l925 363l-925 360v72zM1190 63v-63h-1034v63h1034z" />
    <glyph glyph-name="uni27D1" unicode="&#x27d1;" 
d="M-86 1489q0 35 25.5 60.5t60.5 25.5t61.5 -25.5t26.5 -60.5t-26.5 -61.5t-61.5 -26.5t-60.5 26.5t-25.5 61.5z" />
    <glyph glyph-name="f_f" unicode="&#xfb00;" horiz-adv-x="1435" 
d="M952 0v963h-184v65h184q14 172 63.5 296.5t145.5 198.5t232 74h18v-110h-82q-176 0 -248.5 -115t-19.5 -344h356v-65h-352v-963h-113zM276 0v963h-245v65h245q14 172 63.5 296.5t145.5 198.5t232 74h18v-110h-82q-176 0 -248.5 -115t-19.5 -344h289v-65h-285v-963h-113z
" />
    <glyph glyph-name="fi" unicode="&#xfb01;" horiz-adv-x="1243" 
d="M276 0v963h-245v65h245q14 172 63.5 296.5t145.5 198.5t232 74h18v-110h-82q-176 0 -248.5 -115t-19.5 -344h350v-65h-346v-963h-113zM903 1489q0 35 25.5 60.5t60.5 25.5t61.5 -25.5t26.5 -60.5t-26.5 -61.5t-61.5 -26.5t-60.5 26.5t-25.5 61.5zM932 0v1028h112v-1028
h-112z" />
    <glyph glyph-name="fl" unicode="&#xfb02;" horiz-adv-x="1255" 
d="M276 0v963h-245v65h245q14 172 63.5 296.5t145.5 198.5t232 74h18v-110h-82q-176 0 -248.5 -115t-19.5 -344h350v-65h-346v-963h-113zM946 0v1597h113v-1597h-113z" />
    <glyph glyph-name="f_f_i" unicode="&#xfb03;" horiz-adv-x="1918" 
d="M952 0v963h-184v65h184q14 172 63.5 296.5t145.5 198.5t232 74h18v-110h-82q-176 0 -248.5 -115t-19.5 -344h350v-65h-346v-963h-113zM276 0v963h-245v65h245q14 172 63.5 296.5t145.5 198.5t232 74h18v-110h-82q-176 0 -248.5 -115t-19.5 -344h289v-65h-285v-963h-113z
M1579 1489q0 35 25.5 60.5t60.5 25.5t61.5 -25.5t26.5 -60.5t-26.5 -61.5t-61.5 -26.5t-60.5 26.5t-25.5 61.5zM1608 0v1028h112v-1028h-112z" />
    <glyph glyph-name="f_f_l" unicode="&#xfb04;" horiz-adv-x="1931" 
d="M952 0v963h-184v65h184q14 172 63.5 296.5t145.5 198.5t232 74h18v-110h-82q-176 0 -248.5 -115t-19.5 -344h350v-65h-346v-963h-113zM276 0v963h-245v65h245q14 172 63.5 296.5t145.5 198.5t232 74h18v-110h-82q-176 0 -248.5 -115t-19.5 -344h289v-65h-285v-963h-113z
M1622 0v1597h113v-1597h-113z" />
    <glyph glyph-name="uniFEFF" unicode="&#xfeff;" 
 />
    <glyph glyph-name="_001" 
 />
    <glyph glyph-name="_002" horiz-adv-x="593" 
 />
    <glyph glyph-name="_223" horiz-adv-x="1255" 
d="M238 0v1552h120v-1489h871v-63h-991zM952 754q-35 0 -60.5 26.5t-25.5 61.5t25.5 60.5t60.5 25.5t61.5 -25.5t26.5 -60.5t-26.5 -61.5t-61.5 -26.5z" />
    <glyph glyph-name="_298" horiz-adv-x="643" 
d="M197 0v1597h112v-1597h-112zM571 760q-35 0 -60.5 26.5t-25.5 61.5t25.5 60.5t60.5 25.5t61.5 -25.5t26.5 -60.5t-26.5 -61.5t-61.5 -26.5z" />
    <glyph glyph-name="_467" horiz-adv-x="1613" 
d="M1444 0h-1274q-24 0 -33 -25l-90 -307h-39l17 395h137l612 1510h68l610 -1510h135l17 -395h-37l-90 307q-9 25 -33 25zM240 63h1081l-541 1340z" />
    <glyph glyph-name="_468" horiz-adv-x="1505" 
d="M719 1573h65l682 -1573h-131l-610 1411l-610 -1411h-76z" />
    <glyph glyph-name="_469" horiz-adv-x="1103" 
d="M578 -23q-201 0 -308.5 110t-107.5 333v725q0 207 96.5 325.5t286.5 118.5q186 0 283.5 -99.5t97.5 -266.5q0 -159 -95 -270.5t-278 -145.5v-2q207 -21 334 -127.5t127 -280.5q0 -199 -119 -309.5t-317 -110.5zM274 1188v-361h166q83 0 148 25t103.5 63.5t64 90t34.5 99
t9 95.5q0 164 -64.5 253t-191.5 89q-269 0 -269 -354zM584 18q144 0 223.5 87.5t79.5 256.5q0 197 -117 306.5t-330 109.5h-166v-356q0 -404 310 -404z" />
    <glyph glyph-name="_470" horiz-adv-x="985" 
d="M502 -23q-176 0 -281.5 70t-105.5 195q0 113 77.5 182t243.5 131l96 37q114 43 162.5 93t48.5 134q0 85 -62 137t-187 52q-100 0 -156 -19q-32 -11 -49.5 -27t-28.5 -49l-80 -221h-33l29 289q53 38 143.5 55t180.5 17q158 0 247 -68.5t89 -191.5q0 -108 -62 -178
t-205 -126l-96 -38q-125 -48 -166 -75q-92 -59 -92 -165q0 -91 76 -138.5t209 -47.5q88 0 149 20q23 7 34 11t26 12.5t24 20.5t15 30l86 252h32l-32 -320q-122 -74 -332 -74z" />
    <glyph glyph-name="_471" horiz-adv-x="1261" 
d="M608 -23q-221 0 -359 153t-138 386q0 232 138 384.5t359 152.5q115 0 207.5 -49t142.5 -134l5 158h108v-1059q0 -244 -120.5 -368.5t-340.5 -124.5q-81 0 -152 16t-120 41.5t-84 57t-51.5 63t-16.5 59.5q0 29 16.5 46.5t43.5 17.5q33 0 50.5 -20t29.5 -60q17 -78 87 -129
t210 -51q176 0 255.5 98t79.5 309v236q-54 -87 -146 -135t-204 -48zM236 516q0 -207 114 -343t301 -136q190 0 307 141v674q-117 141 -307 141q-187 0 -301 -136t-114 -341z" />
    <glyph glyph-name="_472" horiz-adv-x="1622" 
d="M139 0h-153l647 567l-578 461h97l604 -483v1052h112v-1052l605 483h90l-578 -459l649 -569h-151l-615 532v-532h-112v532z" />
    <glyph glyph-name="_473" horiz-adv-x="1036" 
d="M506 1053q77 0 143.5 -21.5t119.5 -63.5t83.5 -111.5t30.5 -158.5q0 -138 -76.5 -243t-228.5 -140v-2q174 -20 277 -133t103 -274q0 -192 -120 -311t-326 -119q-88 0 -161.5 18t-121 45.5t-80.5 62.5t-47 68t-14 62q0 63 62 63q28 0 42 -18t25 -62q10 -39 26.5 -69
t48 -61t87.5 -48.5t133 -17.5q150 0 236 94.5t86 265.5q0 181 -94.5 292.5t-272.5 111.5h-135v49h135q80 0 138.5 28.5t90.5 78.5t47 108.5t15 128.5q0 170 -72 251t-192 81q-94 0 -158 -21q-29 -12 -45.5 -27t-28.5 -49l-80 -219h-32l28 289q52 35 140.5 53.5t187.5 18.5z
" />
    <glyph glyph-name="u001" horiz-adv-x="1208" 
d="M905 1028h113v-1028h-113v307q-28 -170 -129 -250t-241 -80q-359 0 -359 429v622h111v-604q0 -196 77 -285.5t224 -89.5q136 0 226.5 97t90.5 280v602z" />
    <glyph glyph-name="_475" horiz-adv-x="1208" 
d="M905 1028h113v-1028h-113v307q-28 -170 -129 -250t-241 -80q-359 0 -359 429v622h111v-604q0 -196 77 -285.5t224 -89.5q136 0 226.5 97t90.5 280v602zM600 1262q-177 0 -262.5 84.5t-85.5 226.5h98q0 -134 71 -204.5t179 -70.5q109 0 175.5 69.5t66.5 205.5h98
q0 -151 -89.5 -231t-250.5 -80z" />
    <glyph glyph-name="k002" horiz-adv-x="1118" 
d="M190 0v1597h113v-1034l639 465h90l-604 -438l705 -590h-154l-676 555v-555h-113z" />
    <glyph glyph-name="v003" horiz-adv-x="1122" 
d="M35 0l502 1042h47l501 -1042h-122l-431 893l-430 -893h-67z" />
    <glyph glyph-name="n004" horiz-adv-x="1226" 
d="M303 0h-113v1028h113v-303q28 167 131.5 247.5t245.5 80.5q362 0 362 -426v-627h-112v606q0 375 -303 375q-138 0 -231 -96.5t-93 -280.5v-604z" />
    <glyph glyph-name="m005" horiz-adv-x="1947" 
d="M303 604v-604h-113v1028h113v-303q28 168 128.5 248t242.5 80q158 0 248 -82t108 -256q14 91 50 158.5t88 105.5t110.5 56t126.5 18q176 0 267 -102.5t91 -323.5v-627h-112v606q0 196 -77 285.5t-224 89.5q-136 0 -226 -96.5t-90 -280.5v-604h-112v606q0 196 -77 285.5
t-224 89.5q-65 0 -121.5 -23t-101 -68t-70 -118.5t-25.5 -167.5z" />
    <glyph glyph-name="_480" horiz-adv-x="1253" 
d="M1028 0h-137v307q-28 -170 -128 -250t-241 -80q-175 0 -260.5 102.5t-85.5 326.5v622h113v-604q0 -198 71.5 -286.5t214.5 -88.5q136 0 226 97t90 280v602h113v-977h163l17 -332h-31l-82 254q-9 27 -43 27z" />
    <glyph glyph-name="_481" horiz-adv-x="1910" 
d="M897 1028h113v-604q0 -197 72 -286t216 -89q136 0 226 96.5t90 280.5v602h112v-1028h-112v305q-26 -168 -126.5 -248t-242.5 -80q-155 0 -240.5 79.5t-103.5 250.5q-32 -171 -132 -250.5t-241 -79.5q-174 0 -260 102t-86 324v625h113v-604q0 -198 72 -286.5t217 -88.5
q137 0 225 96t88 281v602z" />
    <glyph glyph-name="_482" horiz-adv-x="1976" 
d="M1614 0v305q-26 -168 -126.5 -248t-242.5 -80q-155 0 -240.5 79.5t-103.5 250.5q-32 -171 -132 -250.5t-241 -79.5q-174 0 -260 102t-86 324v625h113v-604q0 -198 72 -286.5t217 -88.5q137 0 225 96t88 281v602h113v-604q0 -197 72 -286t216 -89q136 0 226 96.5t90 280.5
v602h112v-977h164l17 -332h-31l-82 254q-9 27 -43 27h-137z" />
    <glyph glyph-name="_483" horiz-adv-x="1642" 
d="M193 0v1597h112v-1038h205q6 112 50.5 206t115 156.5t159.5 97t185 34.5q102 0 194.5 -37.5t163.5 -105t113.5 -170t42.5 -224.5q0 -121 -42.5 -223.5t-113.5 -171t-164 -106.5t-194 -38q-136 0 -252 64t-188 187t-72 280h-203v-508h-112zM1028 25q71 0 137.5 28.5
t121.5 82.5t88.5 144t33.5 203q0 110 -32 208t-85.5 167t-126 109.5t-151.5 40.5q-72 0 -138 -28.5t-120.5 -83.5t-87.5 -145t-33 -202q0 -222 116 -373t277 -151z" />
    <glyph glyph-name="_484" horiz-adv-x="1019" 
d="M289 1028v-407h203q238 0 355.5 -81t117.5 -227q0 -147 -104 -241.5t-292 -94.5q-393 0 -393 398v653h113zM571 29q129 0 198 69t69 201q0 129 -91.5 199.5t-257.5 70.5h-200v-204q0 -172 69.5 -254t212.5 -82z" />
    <glyph glyph-name="_485" horiz-adv-x="1144" 
d="M16 977v51h398v-407h202q237 0 355.5 -82t118.5 -226q0 -147 -103.5 -241.5t-292.5 -94.5q-393 0 -393 398v602h-285zM696 29q130 0 199.5 68.5t69.5 201.5q0 129 -92 199.5t-259 70.5h-200v-204q0 -172 70 -254t212 -82z" />
    <glyph glyph-name="_486" horiz-adv-x="1284" 
d="M639 1047q154 -12 273 -74t191.5 -181.5t72.5 -281.5q0 -163 -74 -286t-194.5 -185t-266.5 -62q-105 0 -201 37.5t-169.5 104.5t-117.5 169t-44 222q0 98 34.5 186t92.5 151t130.5 106.5t151.5 62.5q-189 25 -271.5 87.5t-82.5 160.5q0 41 9.5 74t36 65t69 54t112.5 35
t162 13h209q120 0 181.5 9.5t84.5 28t29 54.5h24q0 -75 -30.5 -115.5t-106.5 -59.5t-217 -19h-209q-164 0 -227.5 -38t-63.5 -116q0 -85 95.5 -135t316.5 -67zM627 997q-73 0 -141 -28t-124.5 -81.5t-91 -143t-34.5 -201.5q0 -233 123 -375.5t300 -142.5q77 0 147 29
t125 83.5t87.5 142.5t32.5 197q0 107 -24.5 195t-65 147t-95.5 100t-115 59.5t-124 18.5z" />
    <glyph glyph-name="_487" 
d="M2 1262q-177 0 -262.5 84.5t-85.5 226.5h98q0 -134 71 -204.5t179 -70.5q109 0 175.5 69.5t66.5 205.5h98q0 -151 -89.5 -231t-250.5 -80z" />
    <glyph glyph-name="_488" 
d="M4 1710q-176 0 -261 84.5t-85 226.5h98q0 -135 71 -205.5t177 -70.5q109 0 174.5 69.5t65.5 206.5h98q0 -151 -89 -231t-249 -80z" />
    </font>
</defs>
</svg>
